<svg width="1920" height="649" viewBox="0 0 1920 649" fill="none" xmlns="http://www.w3.org/2000/svg">
<path opacity="0.05" d="M175.059 403.944C175.084 389.764 170.849 378.649 162.355 370.598C153.861 362.548 143.238 355.912 130.485 350.691C118.206 344.997 104.508 339.774 89.3908 335.021C74.7473 329.796 61.0511 323.391 48.3024 315.806C36.0271 307.749 25.6463 297.569 17.1598 285.264C8.67328 272.96 4.44823 256.409 4.48461 235.612C4.54415 201.58 14.2772 176.782 33.6838 161.218C53.0912 145.181 80.0473 137.193 114.552 137.253C140.076 137.298 161.341 139.699 178.349 144.455C195.83 148.74 210.946 153.965 223.698 160.132L210.145 206.903C199.283 201.684 186.056 197.171 170.464 193.362C155.347 189.082 139.043 186.926 121.555 186.896C100.758 186.859 85.3899 190.378 75.4515 197.45C65.9858 204.524 61.2376 216.805 61.207 234.293C61.1855 246.583 65.4226 256.28 73.9181 263.385C82.4145 270.017 92.8024 276.18 105.082 281.873C117.834 287.095 131.533 292.318 146.176 297.543C161.292 302.769 174.988 309.646 187.262 318.176C200.009 326.706 210.625 337.596 219.11 350.846C227.596 363.623 231.82 380.646 231.783 401.916C231.756 417.041 229.132 431.217 223.909 444.442C219.159 457.669 211.577 468.999 201.162 478.435C190.747 487.87 177.735 495.173 162.128 500.345C146.993 505.991 129.027 508.795 108.23 508.759C81.2879 508.712 58.3682 506.072 39.4706 500.84C20.5731 495.607 4.74954 489.435 -8 482.323L9.10029 434.14C19.9609 440.304 34.1309 446.001 51.6105 451.231C69.09 456.461 86.8104 459.091 104.772 459.123C125.096 459.158 141.883 455.17 155.131 447.158C168.38 439.146 175.023 424.741 175.059 403.944ZM312.229 172.34C330.21 161.5 351.021 153.502 374.664 148.344C398.779 143.186 423.834 140.631 449.831 140.676C474.41 140.719 494.02 144.062 508.661 150.705C523.774 157.349 535.103 166.113 542.647 176.997C550.664 187.41 555.843 199 558.184 211.766C560.998 224.533 562.393 237.297 562.371 250.059C562.321 278.419 561.564 306.069 560.099 333.008C558.634 359.948 557.88 385.47 557.838 409.576C557.807 427.065 558.487 443.61 559.878 459.21C561.269 474.811 563.843 489.231 567.601 502.473L525.77 502.399L510.968 452.743L507.423 452.737C503.158 459.347 497.71 465.955 491.082 472.561C484.926 478.695 477.354 484.353 468.364 489.537C459.375 494.248 448.969 498.247 437.147 501.535C425.324 504.823 411.85 506.454 396.725 506.428C381.6 506.401 367.424 504.013 354.198 499.263C341.444 494.514 330.348 487.878 320.909 479.353C311.472 470.356 303.928 459.708 298.277 447.408C293.099 435.11 290.524 421.162 290.551 405.564C290.588 384.766 294.872 367.522 303.404 353.829C311.937 339.664 323.773 328.577 338.912 320.568C354.525 312.088 372.969 306.211 394.245 302.94C415.994 299.197 439.867 297.348 465.864 297.393C472.481 297.405 478.862 297.416 485.007 297.427C491.624 297.438 498.241 297.923 504.856 298.88C506.299 284.702 507.031 271.941 507.05 260.597C507.096 234.601 501.928 216.394 491.548 205.977C481.167 195.56 462.27 190.328 434.855 190.28C426.82 190.266 418.074 190.96 408.619 192.361C399.636 193.291 390.18 194.928 380.25 197.274C370.793 199.149 361.572 201.732 352.585 205.025C344.072 207.846 336.504 211.142 329.88 214.911L312.229 172.34ZM412.41 456.825C425.645 456.848 437.464 455.215 447.869 451.924C458.274 448.161 467.262 443.686 474.834 438.5C482.407 432.841 488.562 426.708 493.3 420.099C498.511 413.49 502.304 407.116 504.678 400.975L504.781 342.128C498.164 341.644 491.311 341.396 484.221 341.384C477.604 340.899 470.988 340.651 464.37 340.64C449.718 340.614 435.3 341.534 421.116 343.4C407.407 344.794 395.112 347.845 384.232 352.553C373.826 356.788 365.307 362.918 358.676 370.942C352.518 378.494 349.429 388.178 349.408 399.995C349.379 416.538 355.264 430.256 367.061 441.148C378.86 451.567 393.976 456.793 412.41 456.825ZM836.906 201.618C822.734 196.867 809.267 194.48 796.505 194.458C776.18 194.422 760.1 200.066 748.263 211.389C736.428 222.24 729.077 236.171 726.211 253.182L725.777 501.331L669.057 501.232L669.677 146.733L709.381 146.802L719.941 190.07L722.777 190.075C731.785 174.02 742.442 161.749 754.746 153.263C767.524 144.304 783.602 139.842 802.981 139.876C816.689 139.9 832.046 142.29 849.054 147.047L836.906 201.618ZM904.908 173.377C922.889 162.537 943.7 154.538 967.342 149.38C991.457 144.223 1016.51 141.667 1042.51 141.713C1067.09 141.756 1086.7 145.099 1101.34 151.742C1116.45 158.386 1127.78 167.15 1135.33 178.034C1143.34 188.447 1148.52 200.036 1150.86 212.803C1153.68 225.57 1155.07 238.334 1155.05 251.096C1155 279.456 1154.24 307.106 1152.78 334.045C1151.31 360.985 1150.56 386.507 1150.52 410.613C1150.49 428.102 1151.17 444.647 1152.56 460.247C1153.95 475.847 1156.52 490.268 1160.28 503.51L1118.45 503.436L1103.65 453.78L1100.1 453.774C1095.84 460.384 1090.39 466.992 1083.76 473.598C1077.61 479.732 1070.03 485.39 1061.04 490.574C1052.05 495.285 1041.65 499.284 1029.83 502.572C1018 505.86 1004.53 507.491 989.404 507.465C974.279 507.438 960.103 505.05 946.876 500.3C934.123 495.551 923.027 488.914 913.588 480.39C904.151 471.393 896.606 460.745 890.956 448.445C885.778 436.147 883.203 422.199 883.23 406.601C883.267 385.803 887.551 368.559 896.083 354.866C904.615 340.701 916.452 329.614 931.591 321.605C947.204 313.124 965.648 307.248 986.924 303.977C1008.67 300.234 1032.55 298.385 1058.54 298.43C1065.16 298.442 1071.54 298.453 1077.69 298.464C1084.3 298.475 1090.92 298.96 1097.54 299.916C1098.98 285.739 1099.71 272.978 1099.73 261.634C1099.78 235.638 1094.61 217.431 1084.23 207.014C1073.85 196.597 1054.95 191.365 1027.54 191.317C1019.5 191.303 1010.75 191.996 1001.3 193.398C992.315 194.328 982.859 195.965 972.929 198.311C963.472 200.185 954.251 202.769 945.264 206.062C936.751 208.883 929.183 212.178 922.559 215.948L904.908 173.377ZM1005.09 457.862C1018.32 457.885 1030.14 456.251 1040.55 452.961C1050.95 449.198 1059.94 444.723 1067.51 439.537C1075.09 433.878 1081.24 427.744 1085.98 421.135C1091.19 414.527 1094.98 408.153 1097.36 402.012L1097.46 343.165C1090.84 342.681 1083.99 342.433 1076.9 342.42C1070.28 341.936 1063.67 341.688 1057.05 341.677C1042.4 341.651 1027.98 342.571 1013.8 344.437C1000.09 345.831 987.791 348.882 976.911 353.59C966.505 357.825 957.986 363.955 951.355 371.979C945.197 379.531 942.108 389.215 942.087 401.032C942.058 417.575 947.942 431.293 959.74 442.185C971.538 452.604 986.655 457.83 1005.09 457.862ZM1274.41 147.791L1331.13 147.89L1330.51 502.389L1273.79 502.29L1274.41 147.791ZM1262.55 40.0017C1262.56 29.1304 1266.13 19.9196 1273.23 12.3694C1280.81 4.3473 1290.27 0.346194 1301.61 0.36604C1312.95 0.385887 1322.64 4.42049 1330.66 12.4698C1338.68 20.0466 1342.68 29.2706 1342.66 40.1419C1342.64 51.0132 1338.61 59.9869 1330.56 67.0628C1322.51 74.1387 1312.82 77.6667 1301.47 77.6469C1290.13 77.627 1280.68 74.0655 1273.13 66.9623C1266.06 59.8599 1262.53 50.8731 1262.55 40.0017ZM1514.7 415.504C1514.67 432.048 1517.49 443.869 1523.15 450.969C1528.81 458.069 1536.84 461.628 1547.24 461.646C1553.38 461.657 1560 461.196 1567.09 460.263C1574.18 459.33 1582.22 457.217 1591.21 453.924L1597.51 498.602C1589.94 502.371 1579.3 505.424 1565.59 507.764C1552.35 510.104 1540.77 511.265 1530.84 511.248C1509.57 511.211 1492.09 505.272 1478.41 493.431C1464.72 481.118 1457.9 460.545 1457.95 431.712L1458.7 6.31284L1515.42 6.41208L1514.7 415.504ZM1762.91 378.362L1782.65 446.46L1786.19 446.466L1801.91 377.721L1871.08 148.835L1928.51 148.935L1823.02 467.092C1814.95 490.239 1806.87 512.676 1798.8 534.405C1791.2 556.134 1782.66 575.499 1773.17 592.498C1763.69 609.497 1753.03 622.95 1741.2 632.855C1729.36 643.233 1715.65 648.408 1700.05 648.381C1683.03 648.351 1669.09 645.964 1658.23 641.218L1668.24 592.314C1674.38 594.688 1680.29 595.88 1685.96 595.89C1699.19 595.914 1711.97 588.846 1724.28 574.687C1736.6 561.002 1746.8 537.15 1754.9 503.132L1613.01 148.383L1678.23 148.497L1762.91 378.362Z" fill="#303030"/>
</svg>
