<svg width="1916" height="464" viewBox="0 0 1916 464" fill="none" xmlns="http://www.w3.org/2000/svg">
<path opacity="0.03" d="M311.587 48.474H169.669V456H115.636V48.474H-26.282V0.299969H311.587V48.474ZM582.2 456V270.465C582.2 253.539 581.115 238.783 578.945 226.197C577.209 213.177 573.737 202.544 568.529 194.298C563.321 185.618 556.16 179.108 547.046 174.768C538.366 170.428 526.865 168.258 512.543 168.258C492.145 168.258 473.7 174.985 457.208 188.439C440.716 201.459 430.083 218.385 425.309 239.217V456H373.229V0.299969H425.309V166.956H427.913C439.197 153.502 452.651 142.869 468.275 135.057C484.333 126.811 504.08 122.688 527.516 122.688C545.744 122.688 561.585 124.858 575.039 129.198C588.493 133.104 599.56 140.265 608.24 150.681C617.354 161.097 623.864 175.202 627.77 192.996C632.11 210.356 634.28 232.49 634.28 259.398V456H582.2ZM724.036 154.587C740.528 144.605 759.624 137.227 781.324 132.453C803.458 127.679 826.46 125.292 850.33 125.292C872.898 125.292 890.909 128.33 904.363 134.406C918.251 140.482 928.667 148.511 935.611 158.493C942.989 168.041 947.763 178.674 949.933 190.392C952.537 202.11 953.839 213.828 953.839 225.546C953.839 251.586 953.188 276.975 951.886 301.713C950.584 326.451 949.933 349.887 949.933 372.021C949.933 388.079 950.584 403.269 951.886 417.591C953.188 431.913 955.575 445.15 959.047 457.302H920.638L906.967 411.732H903.712C899.806 417.808 894.815 423.884 888.739 429.96C883.097 435.602 876.153 440.81 867.907 445.584C859.661 449.924 850.113 453.613 839.263 456.651C828.413 459.689 816.044 461.208 802.156 461.208C788.268 461.208 775.248 459.038 763.096 454.698C751.378 450.358 741.179 444.282 732.499 436.47C723.819 428.224 716.875 418.459 711.667 407.175C706.893 395.891 704.506 383.088 704.506 368.766C704.506 349.67 708.412 333.829 716.224 321.243C724.036 308.223 734.886 298.024 748.774 290.646C763.096 282.834 780.022 277.409 799.552 274.371C819.516 270.899 841.433 269.163 865.303 269.163C871.379 269.163 877.238 269.163 882.88 269.163C888.956 269.163 895.032 269.597 901.108 270.465C902.41 257.445 903.061 245.727 903.061 235.311C903.061 211.441 898.287 194.732 888.739 185.184C879.191 175.636 861.831 170.862 836.659 170.862C829.281 170.862 821.252 171.513 812.572 172.815C804.326 173.683 795.646 175.202 786.532 177.372C777.852 179.108 769.389 181.495 761.143 184.533C753.331 187.137 746.387 190.175 740.311 193.647L724.036 154.587ZM816.478 415.638C828.63 415.638 839.48 414.119 849.028 411.081C858.576 407.609 866.822 403.486 873.766 398.712C880.71 393.504 886.352 387.862 890.692 381.786C895.466 375.71 898.938 369.851 901.108 364.209V310.176C895.032 309.742 888.739 309.525 882.229 309.525C876.153 309.091 870.077 308.874 864.001 308.874C850.547 308.874 837.31 309.742 824.29 311.478C811.704 312.78 800.42 315.601 790.438 319.941C780.89 323.847 773.078 329.489 767.002 336.867C761.36 343.811 758.539 352.708 758.539 363.558C758.539 378.748 763.964 391.334 774.814 401.316C785.664 410.864 799.552 415.638 816.478 415.638ZM1261.17 456V270.465C1261.17 236.613 1256.18 211.224 1246.2 194.298C1236.65 176.938 1218.86 168.258 1192.82 168.258C1169.82 168.258 1150.72 174.551 1135.53 187.137C1120.77 199.289 1110.36 214.696 1104.28 233.358V456H1052.2V130.5H1088.66L1098.42 170.211H1101.03C1111.44 156.323 1125.33 145.039 1142.69 136.359C1160.48 127.245 1181.53 122.688 1205.84 122.688C1223.63 122.688 1239.26 124.858 1252.71 129.198C1266.16 133.104 1277.23 140.265 1285.91 150.681C1295.02 161.097 1301.75 175.202 1306.09 192.996C1310.87 210.356 1313.25 232.49 1313.25 259.398V456H1261.17ZM1490.24 309.525H1460.3V456H1408.22V0.299969H1460.3V277.626L1486.99 268.512L1587.89 130.5H1648.44L1548.83 261.351L1522.14 282.834L1554.69 308.874L1663.41 456H1598.96L1490.24 309.525ZM1862.95 367.464C1862.95 354.444 1859.04 344.245 1851.23 336.867C1843.42 329.489 1833.66 323.413 1821.94 318.639C1810.65 313.431 1798.07 308.657 1784.18 304.317C1770.73 299.543 1758.14 293.684 1746.42 286.74C1735.14 279.362 1725.59 270.031 1717.78 258.747C1709.97 247.463 1706.06 232.273 1706.06 213.177C1706.06 181.929 1714.96 159.144 1732.75 144.822C1750.54 130.066 1775.28 122.688 1806.96 122.688C1830.4 122.688 1849.93 124.858 1865.55 129.198C1881.61 133.104 1895.5 137.878 1907.22 143.52L1894.85 186.486C1884.87 181.712 1872.72 177.589 1858.39 174.117C1844.51 170.211 1829.53 168.258 1813.47 168.258C1794.38 168.258 1780.27 171.513 1771.16 178.023C1762.48 184.533 1758.14 195.817 1758.14 211.875C1758.14 223.159 1762.05 232.056 1769.86 238.566C1777.67 244.642 1787.22 250.284 1798.5 255.492C1810.22 260.266 1822.81 265.04 1836.26 269.814C1850.15 274.588 1862.73 280.881 1874.02 288.693C1885.74 296.505 1895.5 306.487 1903.31 318.639C1911.12 330.357 1915.03 345.981 1915.03 365.511C1915.03 379.399 1912.64 392.419 1907.87 404.571C1903.53 416.723 1896.59 427.139 1887.04 435.819C1877.49 444.499 1865.55 451.226 1851.23 456C1837.34 461.208 1820.85 463.812 1801.76 463.812C1777.02 463.812 1755.97 461.425 1738.61 456.651C1721.25 451.877 1706.71 446.235 1694.99 439.725L1710.62 395.457C1720.6 401.099 1733.62 406.307 1749.68 411.081C1765.73 415.855 1782.01 418.242 1798.5 418.242C1817.16 418.242 1832.57 414.553 1844.72 407.175C1856.87 399.797 1862.95 386.56 1862.95 367.464Z" fill="#3A3939"/>
</svg>
