<svg width="1892" height="557" viewBox="0 0 1892 557" fill="none" xmlns="http://www.w3.org/2000/svg">
<path opacity="0.03" d="M327.624 296.299H65.208V547H0.385001V0.299963H65.208V238.505H327.624V0.299963H392.447V547H327.624V296.299ZM497.003 351.75C497.003 285.625 511.582 235.121 540.739 200.236C570.417 164.831 612.852 147.128 668.042 147.128C697.2 147.128 722.452 152.074 743.799 161.967C765.667 171.339 783.63 185.137 797.688 203.36C811.746 221.063 822.16 242.67 828.928 268.183C835.697 293.175 839.081 321.031 839.081 351.75C839.081 417.875 824.242 468.64 794.564 504.045C765.407 538.93 723.233 556.372 668.042 556.372C638.885 556.372 613.372 551.686 591.504 542.314C570.157 532.421 552.454 518.624 538.396 500.921C524.338 482.698 513.925 461.09 507.156 436.098C500.388 410.585 497.003 382.469 497.003 351.75ZM561.826 351.75C561.826 371.535 563.649 390.54 567.293 408.763C571.459 426.986 577.707 442.867 586.037 456.404C594.368 469.941 605.302 480.875 618.839 489.206C632.377 497.537 648.778 501.702 668.042 501.702C738.853 502.223 774.258 452.239 774.258 351.75C774.258 331.444 772.176 312.179 768.01 293.956C764.366 275.733 758.378 259.852 750.047 246.315C741.717 232.778 730.783 222.104 717.245 214.294C703.708 205.963 687.307 201.798 668.042 201.798C597.232 201.277 561.826 251.261 561.826 351.75ZM1040.9 385.333L1062.77 459.528H1063.55L1083.08 383.771L1170.55 156.5H1237.71L1071.36 555.591H1044.81L875.331 156.5H947.183L1040.9 385.333ZM1581.89 515.76C1566.27 528.256 1546.48 538.149 1522.53 545.438C1499.1 552.727 1474.11 556.372 1447.55 556.372C1417.88 556.372 1392.1 551.686 1370.23 542.314C1348.37 532.421 1330.4 518.624 1316.35 500.921C1302.29 482.698 1291.87 461.09 1285.11 436.098C1278.34 411.106 1274.95 382.99 1274.95 351.75C1274.95 285.105 1289.79 234.34 1319.47 199.455C1349.15 164.57 1391.58 147.128 1446.77 147.128C1464.48 147.128 1482.18 149.211 1499.88 153.376C1517.58 157.021 1533.46 164.31 1547.52 175.244C1561.58 186.178 1573.03 201.798 1581.89 222.104C1590.74 241.889 1595.16 268.183 1595.16 300.985C1595.16 318.167 1593.6 337.171 1590.48 357.998H1339.78C1339.78 380.907 1342.12 401.213 1346.8 418.916C1351.49 436.619 1358.78 451.718 1368.67 464.214C1378.57 476.189 1391.32 485.561 1406.94 492.33C1423.08 498.578 1442.61 501.702 1465.52 501.702C1483.22 501.702 1500.92 498.578 1518.62 492.33C1536.33 486.082 1549.6 478.793 1558.46 470.462L1581.89 515.76ZM1447.55 201.798C1416.83 201.798 1392.1 209.868 1373.36 226.009C1355.14 242.15 1344.2 269.745 1340.56 308.795H1534.24C1534.24 269.224 1526.69 241.629 1511.6 226.009C1496.5 209.868 1475.15 201.798 1447.55 201.798ZM1877.74 216.637C1862.12 211.43 1847.28 208.827 1833.22 208.827C1810.83 208.827 1793.13 215.075 1780.11 227.571C1767.1 239.546 1759.03 254.906 1755.9 273.65V547H1693.42V156.5H1737.16L1748.87 204.141H1752C1761.89 186.438 1773.6 172.901 1787.14 163.529C1801.2 153.636 1818.9 148.69 1840.25 148.69C1855.35 148.69 1872.27 151.293 1891.02 156.5L1877.74 216.637Z" fill="#3A3939"/>
</svg>
