<svg width="1854" height="637" viewBox="0 0 1854 637" fill="none" xmlns="http://www.w3.org/2000/svg">
<path opacity="0.03" d="M0.872002 0.899957H74.991V626H0.872002V0.899957ZM541.151 596.531C523.291 609.628 502.157 619.451 477.748 626C453.339 633.144 427.74 636.716 400.95 636.716C366.421 636.716 337.249 631.358 313.436 620.642C289.623 609.331 269.977 593.554 254.498 573.313C239.615 552.476 228.601 527.77 221.457 499.194C214.908 470.023 211.634 437.875 211.634 402.75C211.634 327.143 228.303 269.395 261.642 229.508C294.981 189.025 342.905 168.784 405.415 168.784C433.991 168.784 458.102 171.165 477.748 175.928C497.989 180.095 516.147 186.346 532.221 194.681L511.682 256.298C497.989 248.559 482.808 242.605 466.139 238.438C449.47 233.675 431.61 231.294 412.559 231.294C328.022 231.294 285.753 288.446 285.753 402.75C285.753 425.373 287.837 447.102 292.004 467.939C296.767 488.18 304.208 506.338 314.329 522.412C325.045 537.891 338.738 550.393 355.407 559.918C372.672 569.443 393.806 574.206 418.81 574.206C440.242 574.206 459.293 570.932 475.962 564.383C493.227 557.834 507.217 550.393 517.933 542.058L541.151 596.531ZM593.601 402.75C593.601 327.143 610.27 269.395 643.609 229.508C677.543 189.025 726.062 168.784 789.168 168.784C822.506 168.784 851.38 174.44 875.789 185.751C900.793 196.467 921.332 212.243 937.406 233.08C953.48 253.321 965.386 278.028 973.126 307.199C980.865 335.775 984.735 367.625 984.735 402.75C984.735 478.357 967.768 536.402 933.834 576.885C900.495 616.772 852.273 636.716 789.168 636.716C755.829 636.716 726.658 631.358 701.654 620.642C677.245 609.331 657.004 593.554 640.93 573.313C624.856 552.476 612.949 527.77 605.21 499.194C597.47 470.023 593.601 437.875 593.601 402.75ZM667.72 402.75C667.72 425.373 669.803 447.102 673.971 467.939C678.733 488.776 685.877 506.933 695.403 522.412C704.928 537.891 717.43 550.393 732.909 559.918C748.387 569.443 767.14 574.206 789.168 574.206C870.133 574.801 910.616 517.649 910.616 402.75C910.616 379.532 908.234 357.505 903.472 336.668C899.304 315.831 892.458 297.674 882.933 282.195C873.407 266.716 860.905 254.512 845.427 245.582C829.948 236.057 811.195 231.294 789.168 231.294C708.202 230.699 667.72 287.851 667.72 402.75ZM1384.02 626V371.495C1384.02 325.059 1377.18 290.232 1363.49 267.014C1350.39 243.201 1325.98 231.294 1290.26 231.294C1258.71 231.294 1232.51 239.926 1211.68 257.191C1191.43 273.86 1177.15 294.995 1168.81 320.594V626H1097.37V179.5H1147.38L1160.77 233.973H1164.35C1178.63 214.922 1197.69 199.444 1221.5 187.537C1245.91 175.035 1274.78 168.784 1308.12 168.784C1332.53 168.784 1353.96 171.761 1372.42 177.714C1390.87 183.072 1406.05 192.895 1417.96 207.183C1430.46 221.471 1439.69 240.819 1445.64 265.228C1452.19 289.041 1455.46 319.403 1455.46 356.314V626H1384.02ZM1782.19 504.552C1782.19 486.692 1776.83 472.702 1766.12 462.581C1755.4 452.46 1742.01 444.126 1725.93 437.577C1710.45 430.433 1693.19 423.884 1674.14 417.931C1655.68 411.382 1638.42 403.345 1622.34 393.82C1606.87 383.699 1593.77 370.9 1583.05 355.421C1572.34 339.942 1566.98 319.106 1566.98 292.911C1566.98 250.047 1579.18 218.792 1603.59 199.146C1628 178.905 1661.93 168.784 1705.39 168.784C1737.54 168.784 1764.33 171.761 1785.76 177.714C1807.79 183.072 1826.84 189.621 1842.91 197.36L1825.95 256.298C1812.26 249.749 1795.59 244.094 1775.94 239.331C1756.89 233.973 1736.35 231.294 1714.32 231.294C1688.13 231.294 1668.78 235.759 1656.28 244.689C1644.37 253.619 1638.42 269.098 1638.42 291.125C1638.42 306.604 1643.78 318.808 1654.49 327.738C1665.21 336.073 1678.31 343.812 1693.78 350.956C1709.86 357.505 1727.12 364.053 1745.58 370.602C1764.63 377.151 1781.89 385.783 1797.37 396.499C1813.45 407.215 1826.84 420.908 1837.56 437.577C1848.27 453.651 1853.63 475.083 1853.63 501.873C1853.63 520.924 1850.36 538.784 1843.81 555.453C1837.85 572.122 1828.33 586.41 1815.23 598.317C1802.13 610.224 1785.76 619.451 1766.12 626C1747.07 633.144 1724.44 636.716 1698.25 636.716C1664.31 636.716 1635.44 633.442 1611.63 626.893C1587.81 620.344 1567.87 612.605 1551.8 603.675L1573.23 542.951C1586.92 550.69 1604.78 557.834 1626.81 564.383C1648.84 570.932 1671.16 574.206 1693.78 574.206C1719.38 574.206 1740.52 569.146 1757.19 559.025C1773.86 548.904 1782.19 530.747 1782.19 504.552Z" fill="#3A3939"/>
</svg>
