<svg width="1884" height="541" viewBox="0 0 1884 541" fill="none" xmlns="http://www.w3.org/2000/svg">
<path opacity="0.03" d="M247.903 418H0.745001V0.0999715H50.296V373.822H247.903V418ZM287.944 141.589C303.068 132.435 320.58 125.669 340.48 121.291C360.778 116.913 381.872 114.724 403.762 114.724C424.458 114.724 440.975 117.51 453.313 123.082C466.049 128.654 475.601 136.017 481.969 145.171C488.735 153.927 493.113 163.678 495.103 174.424C497.491 185.17 498.685 195.916 498.685 206.662C498.685 230.542 498.088 253.825 496.894 276.511C495.7 299.197 495.103 320.689 495.103 340.987C495.103 355.713 495.7 369.643 496.894 382.777C498.088 395.911 500.277 408.05 503.461 419.194H468.238L455.701 377.404H452.716C449.134 382.976 444.557 388.548 438.985 394.12C433.811 399.294 427.443 404.07 419.881 408.448C412.319 412.428 403.563 415.811 393.613 418.597C383.663 421.383 372.32 422.776 359.584 422.776C346.848 422.776 334.908 420.786 323.764 416.806C313.018 412.826 303.665 407.254 295.705 400.09C287.745 392.528 281.377 383.573 276.601 373.225C272.223 362.877 270.034 351.136 270.034 338.002C270.034 320.49 273.616 305.963 280.78 294.421C287.944 282.481 297.894 273.128 310.63 266.362C323.764 259.198 339.286 254.223 357.196 251.437C375.504 248.253 395.603 246.661 417.493 246.661C423.065 246.661 428.438 246.661 433.612 246.661C439.184 246.661 444.756 247.059 450.328 247.855C451.522 235.915 452.119 225.169 452.119 215.617C452.119 193.727 447.741 178.404 438.985 169.648C430.229 160.892 414.309 156.514 391.225 156.514C384.459 156.514 377.096 157.111 369.136 158.305C361.574 159.101 353.614 160.494 345.256 162.484C337.296 164.076 329.535 166.265 321.973 169.051C314.809 171.439 308.441 174.225 302.869 177.409L287.944 141.589ZM372.718 380.986C383.862 380.986 393.812 379.593 402.568 376.807C411.324 373.623 418.886 369.842 425.254 365.464C431.622 360.688 436.796 355.514 440.776 349.942C445.154 344.37 448.338 338.997 450.328 333.823V284.272C444.756 283.874 438.985 283.675 433.015 283.675C427.443 283.277 421.871 283.078 416.299 283.078C403.961 283.078 391.822 283.874 379.882 285.466C368.34 286.66 357.992 289.247 348.838 293.227C340.082 296.809 332.918 301.983 327.346 308.749C322.172 315.117 319.585 323.276 319.585 333.226C319.585 347.156 324.56 358.698 334.51 367.852C344.46 376.608 357.196 380.986 372.718 380.986ZM676.647 312.928L693.363 370.24H696.348L709.482 312.331L767.391 119.5H815.748L727.392 387.553C720.626 407.055 713.86 425.96 707.094 444.268C700.726 462.576 693.562 478.894 685.602 493.222C677.642 507.55 668.687 518.893 658.737 527.251C648.787 536.007 637.245 540.385 624.111 540.385C609.783 540.385 598.042 538.395 588.888 534.415L597.246 493.222C602.42 495.212 607.395 496.207 612.171 496.207C623.315 496.207 634.061 490.237 644.409 478.297C654.757 466.755 663.314 446.656 670.08 418L550.083 119.5H605.007L676.647 312.928ZM843.854 268.75C843.854 218.204 854.998 179.598 877.286 152.932C899.972 125.868 932.409 112.336 974.597 112.336C996.885 112.336 1016.19 116.117 1032.51 123.679C1049.22 130.843 1062.95 141.39 1073.7 155.32C1084.44 168.852 1092.4 185.369 1097.58 204.871C1102.75 223.975 1105.34 245.268 1105.34 268.75C1105.34 319.296 1094 358.101 1071.31 385.165C1049.02 411.831 1016.78 425.164 974.597 425.164C952.309 425.164 932.807 421.582 916.091 414.418C899.773 406.856 886.241 396.309 875.495 382.777C864.749 368.847 856.789 352.33 851.615 333.226C846.441 313.724 843.854 292.232 843.854 268.75ZM893.405 268.75C893.405 283.874 894.798 298.401 897.584 312.331C900.768 326.261 905.544 338.4 911.912 348.748C918.28 359.096 926.638 367.454 936.986 373.822C947.334 380.19 959.871 383.374 974.597 383.374C1028.72 383.772 1055.79 345.564 1055.79 268.75C1055.79 253.228 1054.2 238.502 1051.01 224.572C1048.23 210.642 1043.65 198.503 1037.28 188.155C1030.91 177.807 1022.56 169.648 1012.21 163.678C1001.86 157.31 989.323 154.126 974.597 154.126C920.469 153.728 893.405 191.936 893.405 268.75ZM1223.62 119.5V289.645C1223.62 305.167 1224.42 318.898 1226.01 330.838C1228 342.38 1231.19 352.131 1235.56 360.091C1239.94 367.653 1245.91 373.424 1253.47 377.404C1261.04 381.384 1270.59 383.374 1282.13 383.374C1292.88 383.374 1302.43 381.782 1310.79 378.598C1319.14 375.016 1326.51 370.24 1332.88 364.27C1339.64 358.3 1345.41 351.534 1350.19 343.972C1355.36 336.012 1359.54 327.654 1362.73 318.898V119.5H1410.49V333.226C1410.49 347.554 1410.88 362.479 1411.68 378.001C1412.87 393.125 1414.66 406.458 1417.05 418H1384.22L1372.28 370.837H1369.29C1360.14 386.359 1347.8 399.294 1332.28 409.642C1316.76 419.99 1297.06 425.164 1273.18 425.164C1257.26 425.164 1243.13 423.174 1230.79 419.194C1218.85 415.612 1208.7 409.045 1200.34 399.493C1192.38 389.941 1186.21 377.205 1181.83 361.285C1177.85 344.967 1175.86 324.47 1175.86 299.794V119.5H1223.62ZM1463.06 119.5H1509.63V60.397L1557.39 46.666V119.5H1638.58V161.29H1557.39V326.659C1557.39 347.355 1559.97 362.081 1565.15 370.837C1570.32 379.195 1579.08 383.374 1591.41 383.374C1601.76 383.374 1610.52 382.379 1617.68 380.389C1624.85 378.001 1632.81 375.016 1641.56 371.434L1652.31 407.851C1641.56 413.025 1629.82 417.204 1617.09 420.388C1604.35 423.572 1590.62 425.164 1575.89 425.164C1551.61 425.164 1534.5 418.398 1524.55 404.866C1514.6 390.936 1509.63 367.852 1509.63 335.614V161.29H1463.06V119.5ZM1836.1 336.808C1836.1 324.868 1832.52 315.515 1825.36 308.749C1818.19 301.983 1809.24 296.411 1798.49 292.033C1788.15 287.257 1776.6 282.879 1763.87 278.899C1751.53 274.521 1739.99 269.148 1729.24 262.78C1718.89 256.014 1710.14 247.457 1702.97 237.109C1695.81 226.761 1692.23 212.831 1692.23 195.319C1692.23 166.663 1700.39 145.768 1716.7 132.634C1733.02 119.102 1755.71 112.336 1784.76 112.336C1806.25 112.336 1824.16 114.326 1838.49 118.306C1853.22 121.888 1865.95 126.266 1876.7 131.44L1865.36 170.842C1856.2 166.464 1845.06 162.683 1831.93 159.499C1819.19 155.917 1805.46 154.126 1790.73 154.126C1773.22 154.126 1760.29 157.111 1751.93 163.081C1743.97 169.051 1739.99 179.399 1739.99 194.125C1739.99 204.473 1743.57 212.632 1750.73 218.602C1757.9 224.174 1766.65 229.348 1777 234.124C1787.75 238.502 1799.29 242.88 1811.63 247.258C1824.36 251.636 1835.91 257.407 1846.25 264.571C1857 271.735 1865.95 280.889 1873.12 292.033C1880.28 302.779 1883.86 317.107 1883.86 335.017C1883.86 347.753 1881.68 359.693 1877.3 370.837C1873.32 381.981 1866.95 391.533 1858.19 399.493C1849.44 407.453 1838.49 413.622 1825.36 418C1812.62 422.776 1797.5 425.164 1779.99 425.164C1757.3 425.164 1738 422.975 1722.08 418.597C1706.16 414.219 1692.82 409.045 1682.08 403.075L1696.41 362.479C1705.56 367.653 1717.5 372.429 1732.23 376.807C1746.95 381.185 1761.88 383.374 1777 383.374C1794.12 383.374 1808.24 379.991 1819.39 373.225C1830.53 366.459 1836.1 354.32 1836.1 336.808Z" fill="#3A3939"/>
</svg>
