<svg width="1901" height="451" viewBox="0 0 1901 451" fill="none" xmlns="http://www.w3.org/2000/svg">
<path opacity="0.03" d="M234.703 335.761C224.883 343.29 212.444 348.527 197.387 351.473C182.33 354.419 166.29 355.892 149.269 355.892C128.647 355.892 109.334 352.455 91.331 345.581C73.3277 338.38 57.6157 327.578 44.195 313.175C30.7743 298.772 20.136 280.442 12.28 258.183C4.424 235.597 0.496001 208.919 0.496001 178.15C0.496001 146.071 4.75133 118.903 13.262 96.644C22.1 74.058 33.5567 55.7273 47.632 41.652C62.0347 27.2493 78.074 16.7746 95.75 10.228C113.426 3.68132 131.429 0.407994 149.76 0.407994C169.4 0.407994 185.439 1.55366 197.878 3.84498C210.317 5.80897 220.955 8.59131 229.793 12.192L219.973 48.035C204.261 40.5063 181.839 36.742 152.706 36.742C139.285 36.742 126.028 39.197 112.935 44.107C99.8417 49.017 88.0577 57.0367 77.583 68.166C67.4357 79.2953 59.2523 93.8617 53.033 111.865C46.8137 129.868 43.704 151.963 43.704 178.15C43.704 201.718 46.65 222.34 52.542 240.016C58.434 257.692 66.4537 272.422 76.601 284.206C87.0757 295.99 99.187 304.828 112.935 310.72C127.01 316.612 142.231 319.558 158.598 319.558C173.328 319.558 186.094 318.085 196.896 315.139C208.025 312.193 217.354 308.429 224.883 303.846L234.703 335.761ZM260.3 227.25C260.3 185.679 269.466 153.927 287.796 131.996C306.454 109.737 333.132 98.608 367.829 98.608C386.16 98.608 402.036 101.718 415.456 107.937C429.204 113.829 440.497 122.503 449.335 133.96C458.173 145.089 464.72 158.674 468.975 174.713C473.231 190.425 475.358 207.937 475.358 227.25C475.358 268.821 466.029 300.736 447.371 322.995C429.041 344.926 402.527 355.892 367.829 355.892C349.499 355.892 333.459 352.946 319.711 347.054C306.291 340.835 295.161 332.16 286.323 321.031C277.485 309.574 270.939 295.99 266.683 280.278C262.428 264.239 260.3 246.563 260.3 227.25ZM301.053 227.25C301.053 239.689 302.199 251.636 304.49 263.093C307.109 274.55 311.037 284.533 316.274 293.044C321.512 301.555 328.386 308.429 336.896 313.666C345.407 318.903 355.718 321.522 367.829 321.522C412.347 321.849 434.605 290.425 434.605 227.25C434.605 214.484 433.296 202.373 430.677 190.916C428.386 179.459 424.622 169.476 419.384 160.965C414.147 152.454 407.273 145.744 398.762 140.834C390.252 135.597 379.941 132.978 367.829 132.978C323.312 132.651 301.053 164.075 301.053 227.25ZM681.152 350V211.047C681.152 197.954 680.498 186.661 679.188 177.168C678.206 167.348 676.079 159.165 672.805 152.618C669.532 146.071 664.786 141.161 658.566 137.888C652.674 134.615 644.818 132.978 634.998 132.978C619.941 132.978 607.339 137.561 597.191 146.726C587.371 155.891 580.497 167.348 576.569 181.096V350H537.289V104.5H564.785L572.15 134.451H574.114C582.952 123.976 593.1 115.466 604.556 108.919C616.34 102.045 631.561 98.608 650.219 98.608C665.931 98.608 678.697 101.718 688.517 107.937C698.665 113.829 706.521 124.304 712.085 139.361C719.614 126.595 729.925 116.611 743.018 109.41C756.439 102.209 771.496 98.608 788.19 98.608C801.938 98.608 813.559 100.245 823.051 103.518C832.544 106.464 840.4 111.865 846.619 119.721C852.839 127.577 857.258 138.215 859.876 151.636C862.822 165.057 864.295 182.078 864.295 202.7V350H825.015V202.209C825.015 190.425 824.361 180.278 823.051 171.767C822.069 162.929 819.778 155.728 816.177 150.163C812.904 144.271 808.158 140.016 801.938 137.397C796.046 134.451 788.19 132.978 778.37 132.978C762.004 132.978 749.238 137.561 740.072 146.726C730.907 155.891 724.36 168.985 720.432 186.006V350H681.152ZM935.747 104.5H962.752L970.117 133.96H972.081C979.61 122.503 989.266 113.829 1001.05 107.937C1013.16 101.718 1026.91 98.608 1042.29 98.608C1075.03 98.608 1099.41 108.264 1115.45 127.577C1131.49 146.89 1139.51 178.477 1139.51 222.34C1139.51 242.962 1136.73 261.62 1131.17 278.314C1125.93 294.681 1118.4 308.592 1108.58 320.049C1098.76 331.506 1086.81 340.344 1072.74 346.563C1058.99 352.782 1043.6 355.892 1026.58 355.892C1014.47 355.892 1004.81 355.074 997.613 353.437C990.739 352.128 983.211 349.673 975.027 346.072V448.2H935.747V104.5ZM1034.93 132.978C1018.24 132.978 1004.98 137.397 995.158 146.235C985.666 154.746 978.955 167.839 975.027 185.515V307.283C980.919 311.866 987.63 315.466 995.158 318.085C1002.69 320.376 1012.67 321.522 1025.11 321.522C1047.7 321.522 1065.54 313.175 1078.63 296.481C1092.05 279.46 1098.76 254.582 1098.76 221.849C1098.76 208.428 1097.61 196.317 1095.32 185.515C1093.03 174.386 1089.27 165.057 1084.03 157.528C1079.12 149.672 1072.57 143.616 1064.39 139.361C1056.53 135.106 1046.71 132.978 1034.93 132.978ZM1197.46 122.667C1209.9 115.138 1224.3 109.574 1240.67 105.973C1257.36 102.372 1274.71 100.572 1292.71 100.572C1309.73 100.572 1323.32 102.863 1333.47 107.446C1343.94 112.029 1351.8 118.084 1357.03 125.613C1362.6 132.814 1366.2 140.834 1367.84 149.672C1369.8 158.51 1370.78 167.348 1370.78 176.186C1370.78 195.826 1370.29 214.975 1369.31 233.633C1368.33 252.291 1367.84 269.967 1367.84 286.661C1367.84 298.772 1368.33 310.229 1369.31 321.031C1370.29 331.833 1372.09 341.817 1374.71 350.982H1345.74L1335.43 316.612H1332.97C1330.03 321.195 1326.26 325.777 1321.68 330.36C1317.43 334.615 1312.19 338.543 1305.97 342.144C1299.75 345.417 1292.55 348.2 1284.37 350.491C1276.18 352.782 1266.85 353.928 1256.38 353.928C1245.9 353.928 1236.08 352.291 1226.92 349.018C1218.08 345.745 1210.39 341.162 1203.84 335.27C1197.29 329.051 1192.06 321.686 1188.13 313.175C1184.53 304.664 1182.73 295.008 1182.73 284.206C1182.73 269.803 1185.67 257.856 1191.57 248.363C1197.46 238.543 1205.64 230.851 1216.12 225.286C1226.92 219.394 1239.68 215.302 1254.41 213.011C1269.47 210.392 1286 209.083 1304.01 209.083C1308.59 209.083 1313.01 209.083 1317.26 209.083C1321.84 209.083 1326.43 209.41 1331.01 210.065C1331.99 200.245 1332.48 191.407 1332.48 183.551C1332.48 165.548 1328.88 152.945 1321.68 145.744C1314.48 138.543 1301.39 134.942 1282.4 134.942C1276.84 134.942 1270.78 135.433 1264.23 136.415C1258.01 137.07 1251.47 138.215 1244.59 139.852C1238.05 141.161 1231.66 142.962 1225.45 145.253C1219.55 147.217 1214.32 149.508 1209.73 152.127L1197.46 122.667ZM1267.18 319.558C1276.35 319.558 1284.53 318.412 1291.73 316.121C1298.93 313.502 1305.15 310.393 1310.39 306.792C1315.63 302.864 1319.88 298.609 1323.15 294.026C1326.75 289.443 1329.37 285.024 1331.01 280.769V240.016C1326.43 239.689 1321.68 239.525 1316.77 239.525C1312.19 239.198 1307.61 239.034 1303.02 239.034C1292.88 239.034 1282.89 239.689 1273.07 240.998C1263.58 241.98 1255.07 244.108 1247.54 247.381C1240.34 250.327 1234.45 254.582 1229.86 260.147C1225.61 265.384 1223.48 272.095 1223.48 280.278C1223.48 291.735 1227.57 301.227 1235.76 308.756C1243.94 315.957 1254.41 319.558 1267.18 319.558ZM1602.58 350V210.065C1602.58 184.533 1598.81 165.384 1591.29 152.618C1584.08 139.525 1570.66 132.978 1551.02 132.978C1533.68 132.978 1519.27 137.724 1507.82 147.217C1496.69 156.382 1488.83 168.003 1484.25 182.078V350H1444.97V104.5H1472.46L1479.83 134.451H1481.79C1489.65 123.976 1500.12 115.466 1513.22 108.919C1526.64 102.045 1542.51 98.608 1560.84 98.608C1574.26 98.608 1586.05 100.245 1596.2 103.518C1606.34 106.464 1614.69 111.865 1621.24 119.721C1628.11 127.577 1633.18 138.215 1636.46 151.636C1640.06 164.729 1641.86 181.423 1641.86 201.718V350H1602.58ZM1785.66 263.584L1799.41 310.72H1801.86L1812.67 263.093L1860.29 104.5H1900.06L1827.4 324.959C1821.83 340.998 1816.27 356.547 1810.7 371.604C1805.46 386.661 1799.57 400.082 1793.03 411.866C1786.48 423.65 1779.11 432.979 1770.93 439.853C1762.75 447.054 1753.25 450.655 1742.45 450.655C1730.67 450.655 1721.01 449.018 1713.48 445.745L1720.36 411.866C1724.61 413.503 1728.7 414.321 1732.63 414.321C1741.8 414.321 1750.64 409.411 1759.15 399.591C1767.66 390.098 1774.7 373.568 1780.26 350L1681.57 104.5H1726.74L1785.66 263.584Z" fill="#3A3939"/>
</svg>
