<svg width="212" height="241" viewBox="0 0 212 241" fill="none" xmlns="http://www.w3.org/2000/svg">
<path d="M212 0H0V241H212V0Z" fill="white"/>
<path d="M78.915 120H125.782C127.825 120 129.481 118.321 129.481 116.25V57.5H134.415C135.777 57.5 136.882 56.381 136.882 55V51.2502C136.877 47.7998 134.119 45.004 130.715 45H78.915C76.871 45 75.215 46.6788 75.215 48.7502V116.25C75.215 118.321 76.871 120 78.915 120ZM130.715 47.5C132.758 47.5 134.415 49.1788 134.415 51.2502V55H85.081V51.2502C85.077 49.8929 84.633 48.5757 83.816 47.5H130.715ZM77.681 48.7502C77.681 48.0596 78.234 47.5 78.915 47.5C80.958 47.5 82.615 49.1788 82.615 51.2502V55C82.615 56.381 83.719 57.5 85.081 57.5H127.015V116.25C127.015 116.94 126.462 117.5 125.782 117.5H78.915C78.234 117.5 77.681 116.94 77.681 116.25V48.7502Z" fill="#E18C44"/>
<path d="M85.081 76.25H92.481C93.844 76.25 94.948 75.131 94.948 73.75V72.5C94.948 71.81 94.396 71.25 93.715 71.25C93.034 71.25 92.481 71.81 92.481 72.5V73.75H85.081V66.25H88.782C89.462 66.25 90.015 65.69 90.015 65C90.015 64.31 89.462 63.75 88.782 63.75H85.081C83.719 63.75 82.615 64.869 82.615 66.25V73.75C82.615 75.131 83.719 76.25 85.081 76.25Z" fill="#4D64AA"/>
<path d="M85.081 93.75H92.481C93.844 93.75 94.948 92.631 94.948 91.25V83.75C94.948 82.369 93.844 81.25 92.481 81.25H85.081C83.719 81.25 82.615 82.369 82.615 83.75V91.25C82.615 92.631 83.719 93.75 85.081 93.75ZM85.081 83.75H92.481V91.25H85.081V83.75Z" fill="#4D64AA"/>
<path d="M85.081 111.25H92.481C93.844 111.25 94.948 110.131 94.948 108.75V101.25C94.948 99.869 93.844 98.75 92.481 98.75H85.081C83.719 98.75 82.615 99.869 82.615 101.25V108.75C82.615 110.131 83.719 111.25 85.081 111.25ZM85.081 101.25H92.481V108.75H85.081V101.25Z" fill="#4D64AA"/>
<path d="M99.882 68.75H106.048C106.73 68.75 107.282 68.19 107.282 67.5C107.282 66.81 106.73 66.25 106.048 66.25H99.882C99.201 66.25 98.648 66.81 98.648 67.5C98.648 68.19 99.201 68.75 99.882 68.75Z" fill="#4D64AA"/>
<path d="M110.981 68.75H123.315C123.996 68.75 124.548 68.19 124.548 67.5C124.548 66.81 123.996 66.25 123.315 66.25H110.981C110.3 66.25 109.748 66.81 109.748 67.5C109.748 68.19 110.3 68.75 110.981 68.75Z" fill="#4D64AA"/>
<path d="M99.882 73.749H112.215C112.896 73.749 113.449 73.19 113.449 72.5C113.449 71.809 112.896 71.25 112.215 71.25H99.882C99.201 71.25 98.648 71.809 98.648 72.5C98.648 73.19 99.201 73.749 99.882 73.749Z" fill="#4D64AA"/>
<path d="M123.315 71.25H117.148C116.467 71.25 115.915 71.809 115.915 72.5C115.915 73.19 116.467 73.749 117.148 73.749H123.315C123.996 73.749 124.548 73.19 124.548 72.5C124.548 71.809 123.996 71.25 123.315 71.25Z" fill="#4D64AA"/>
<path d="M99.882 86.25H106.048C106.73 86.25 107.282 85.691 107.282 85C107.282 84.31 106.73 83.75 106.048 83.75H99.882C99.201 83.75 98.648 84.31 98.648 85C98.648 85.691 99.201 86.25 99.882 86.25Z" fill="#4D64AA"/>
<path d="M123.315 83.75H110.981C110.3 83.75 109.748 84.31 109.748 85C109.748 85.691 110.3 86.25 110.981 86.25H123.315C123.996 86.25 124.548 85.691 124.548 85C124.548 84.31 123.996 83.75 123.315 83.75Z" fill="#4D64AA"/>
<path d="M99.882 91.25H112.215C112.896 91.25 113.449 90.69 113.449 90C113.449 89.31 112.896 88.75 112.215 88.75H99.882C99.201 88.75 98.648 89.31 98.648 90C98.648 90.69 99.201 91.25 99.882 91.25Z" fill="#4D64AA"/>
<path d="M123.315 88.75H117.148C116.467 88.75 115.915 89.31 115.915 90C115.915 90.69 116.467 91.25 117.148 91.25H123.315C123.996 91.25 124.548 90.69 124.548 90C124.548 89.31 123.996 88.75 123.315 88.75Z" fill="#4D64AA"/>
<path d="M99.882 103.75H106.048C106.73 103.75 107.282 103.19 107.282 102.5C107.282 101.81 106.73 101.25 106.048 101.25H99.882C99.201 101.25 98.648 101.81 98.648 102.5C98.648 103.19 99.201 103.75 99.882 103.75Z" fill="#4D64AA"/>
<path d="M123.315 101.25H110.981C110.3 101.25 109.748 101.81 109.748 102.5C109.748 103.19 110.3 103.75 110.981 103.75H123.315C123.996 103.75 124.548 103.19 124.548 102.5C124.548 101.81 123.996 101.25 123.315 101.25Z" fill="#4D64AA"/>
<path d="M99.882 108.75H112.215C112.896 108.75 113.449 108.19 113.449 107.5C113.449 106.81 112.896 106.25 112.215 106.25H99.882C99.201 106.25 98.648 106.81 98.648 107.5C98.648 108.19 99.201 108.75 99.882 108.75Z" fill="#4D64AA"/>
<path d="M123.315 106.25H117.148C116.467 106.25 115.915 106.81 115.915 107.5C115.915 108.19 116.467 108.75 117.148 108.75H123.315C123.996 108.75 124.548 108.19 124.548 107.5C124.548 106.81 123.996 106.25 123.315 106.25Z" fill="#4D64AA"/>
<path d="M88.42 67.8662C87.936 67.3932 87.167 67.4002 86.691 67.8812C86.216 68.3642 86.209 69.1432 86.676 69.6342L89.143 72.1342C89.374 72.3682 89.688 72.5002 90.015 72.5002H90.117C90.479 72.4692 90.808 72.2792 91.019 71.9802L97.185 63.2302C97.442 62.8672 97.487 62.3922 97.304 61.9862C97.122 61.5792 96.739 61.3022 96.3 61.2592C95.861 61.2162 95.433 61.4142 95.178 61.7782L89.858 69.3262L88.42 67.8662Z" fill="#4D64AA"/>
<path d="M62.01 160.504L57.65 160.497L57.628 173.017L55.968 173.014L55.99 160.494L51.63 160.486L51.632 159.006L62.012 159.024L62.01 160.504ZM68.624 172.236C68.224 172.555 67.717 172.808 67.103 172.993C66.503 173.179 65.863 173.271 65.183 173.27C64.423 173.269 63.763 173.147 63.203 172.907C62.644 172.652 62.184 172.298 61.825 171.844C61.466 171.377 61.2 170.823 61.028 170.183C60.856 169.542 60.77 168.822 60.772 168.022C60.775 166.316 61.157 165.016 61.919 164.124C62.68 163.232 63.768 162.787 65.181 162.79C65.634 162.791 66.088 162.845 66.541 162.952C66.994 163.046 67.4 163.234 67.76 163.514C68.119 163.795 68.412 164.196 68.638 164.716C68.863 165.223 68.976 165.897 68.974 166.737C68.973 167.177 68.932 167.663 68.851 168.196L62.431 168.185C62.43 168.772 62.49 169.292 62.609 169.745C62.728 170.199 62.914 170.586 63.167 170.906C63.42 171.214 63.746 171.454 64.145 171.628C64.559 171.789 65.058 171.87 65.645 171.871C66.098 171.872 66.552 171.792 67.005 171.633C67.459 171.474 67.799 171.288 68.026 171.075L68.624 172.236ZM65.198 164.19C64.412 164.189 63.778 164.394 63.297 164.807C62.83 165.219 62.549 165.925 62.454 166.925L67.414 166.934C67.415 165.921 67.223 165.214 66.837 164.813C66.451 164.399 65.905 164.191 65.198 164.19ZM73.659 167.925L70.308 163.039L72.268 163.042L74.163 165.806L74.721 166.947L75.303 165.808L77.248 163.051L79.048 163.054L75.659 167.848L79.23 173.055L77.33 173.051L75.215 170.008L74.617 168.806L73.995 170.005L71.83 173.042L70.05 173.038L73.659 167.925ZM87.451 168.649L82.931 168.641L82.923 173.061L81.323 173.058L81.34 163.058L82.94 163.061L82.933 167.241L87.453 167.249L87.46 163.069L89.06 163.072L89.043 173.072L87.443 173.069L87.451 168.649ZM98.374 167.168L98.436 165.928H98.376L97.554 167.207L93.044 173.079L92.124 173.077L92.141 163.077L93.741 163.08L93.731 169.18L93.669 170.36H93.749L94.531 169.121L99.041 163.089L99.981 163.091L99.964 173.091L98.364 173.088L98.374 167.168ZM104.099 163.098L104.094 165.818C104.094 166.178 104.113 166.505 104.153 166.798C104.192 167.078 104.272 167.325 104.391 167.539C104.511 167.739 104.684 167.899 104.911 168.019C105.137 168.127 105.437 168.18 105.81 168.181C106.41 168.182 106.904 168.116 107.291 167.984C107.678 167.851 107.971 167.705 108.171 167.545L108.179 163.105L109.779 163.108L109.762 173.108L108.162 173.105L108.169 168.905C107.955 169.038 107.635 169.184 107.208 169.344C106.795 169.503 106.221 169.582 105.488 169.58C104.995 169.58 104.561 169.526 104.188 169.418C103.815 169.311 103.502 169.124 103.249 168.857C102.996 168.589 102.804 168.236 102.671 167.796C102.552 167.355 102.493 166.802 102.494 166.135L102.499 163.095L104.099 163.098ZM120.148 172.326C119.747 172.645 119.24 172.898 118.626 173.083C118.026 173.269 117.386 173.361 116.706 173.36C115.946 173.359 115.286 173.238 114.727 172.997C114.167 172.742 113.708 172.388 113.348 171.934C112.989 171.467 112.724 170.913 112.551 170.273C112.379 169.633 112.294 168.912 112.295 168.112C112.298 166.406 112.68 165.106 113.442 164.214C114.204 163.322 115.291 162.878 116.704 162.88C117.158 162.881 117.611 162.935 118.064 163.042C118.517 163.137 118.924 163.324 119.283 163.605C119.643 163.885 119.935 164.286 120.161 164.806C120.387 165.313 120.499 165.987 120.497 166.827C120.497 167.267 120.456 167.753 120.375 168.287L113.955 168.275C113.954 168.862 114.013 169.382 114.132 169.836C114.251 170.289 114.437 170.676 114.69 170.997C114.943 171.304 115.269 171.544 115.669 171.718C116.082 171.879 116.582 171.96 117.168 171.961C117.622 171.962 118.075 171.883 118.529 171.723C118.982 171.564 119.323 171.378 119.55 171.165L120.148 172.326ZM116.722 164.28C115.935 164.279 115.301 164.484 114.821 164.897C114.353 165.309 114.072 166.016 113.977 167.015L118.937 167.024C118.939 166.011 118.747 165.304 118.361 164.903C117.975 164.489 117.429 164.281 116.722 164.28ZM129.609 172.483C129.208 172.775 128.735 172.995 128.188 173.14C127.641 173.299 127.067 173.378 126.467 173.377C125.694 173.376 125.041 173.255 124.508 173.014C123.975 172.76 123.536 172.405 123.19 171.951C122.857 171.484 122.612 170.93 122.453 170.29C122.307 169.637 122.235 168.916 122.237 168.13C122.239 166.436 122.615 165.144 123.363 164.252C124.112 163.346 125.186 162.895 126.586 162.897C127.226 162.899 127.766 162.953 128.205 163.06C128.659 163.154 129.065 163.295 129.425 163.482L128.962 164.862C128.656 164.688 128.316 164.554 127.943 164.46C127.57 164.352 127.17 164.298 126.743 164.298C124.85 164.294 123.901 165.573 123.897 168.133C123.896 168.639 123.941 169.126 124.034 169.593C124.14 170.046 124.306 170.453 124.532 170.814C124.771 171.161 125.077 171.441 125.45 171.655C125.837 171.869 126.31 171.977 126.87 171.978C127.35 171.979 127.777 171.906 128.15 171.76C128.537 171.614 128.851 171.448 129.091 171.262L129.609 172.483ZM134.339 168.651L133.419 168.649L133.411 173.149L131.811 173.147L131.829 163.147L133.429 163.149L133.421 167.669L134.281 167.391L137.489 163.156L139.229 163.16L136.122 167.174L135.281 167.833L136.319 168.634L139.651 173.16L137.671 173.157L134.339 168.651ZM147.612 167.254L147.674 166.014H147.614L146.792 167.293L142.282 173.165L141.362 173.163L141.379 163.163L142.979 163.166L142.969 169.266L142.907 170.446H142.987L143.769 169.207L148.279 163.175L149.219 163.177L149.202 173.177L147.602 173.174L147.612 167.254ZM158.53 167.273L158.592 166.033H158.532L157.71 167.312L153.2 173.184L152.28 173.182L152.297 163.182L153.897 163.185L153.887 169.285L153.825 170.465H153.905L154.687 169.227L159.197 163.194L160.137 163.196L160.12 173.196L158.52 173.193L158.53 167.273ZM154.604 159.146C154.737 159.76 154.963 160.187 155.282 160.428C155.615 160.668 155.995 160.789 156.422 160.79C156.848 160.79 157.228 160.664 157.562 160.412C157.896 160.159 158.123 159.746 158.244 159.173L159.444 159.555C159.322 160.328 158.975 160.921 158.401 161.333C157.84 161.745 157.166 161.951 156.38 161.95C156.02 161.949 155.66 161.902 155.3 161.808C154.953 161.714 154.64 161.573 154.361 161.386C154.081 161.199 153.841 160.958 153.642 160.665C153.442 160.371 153.31 160.024 153.244 159.624L154.604 159.146ZM83.127 189.641L78.607 189.633L78.599 194.053L76.999 194.051L77.017 184.051L78.617 184.054L78.609 188.233L83.129 188.241L83.137 184.061L84.737 184.064L84.719 194.064L83.119 194.061L83.127 189.641ZM87.656 184.809C88.163 184.504 88.75 184.278 89.417 184.132C90.098 183.987 90.804 183.915 91.538 183.916C92.231 183.917 92.784 184.012 93.197 184.199C93.624 184.386 93.943 184.634 94.156 184.941C94.382 185.234 94.528 185.561 94.594 185.921C94.674 186.282 94.713 186.642 94.712 187.002C94.711 187.802 94.69 188.582 94.648 189.342C94.607 190.101 94.586 190.821 94.584 191.501C94.584 191.995 94.603 192.461 94.642 192.902C94.681 193.342 94.754 193.748 94.86 194.122L93.68 194.12L93.262 192.719H93.162C93.042 192.905 92.888 193.092 92.701 193.278C92.528 193.451 92.314 193.611 92.06 193.757C91.807 193.89 91.513 194.003 91.18 194.095C90.846 194.188 90.466 194.234 90.04 194.234C89.613 194.233 89.213 194.165 88.84 194.031C88.48 193.897 88.167 193.71 87.901 193.47C87.635 193.216 87.422 192.916 87.263 192.569C87.116 192.222 87.044 191.828 87.045 191.388C87.046 190.802 87.166 190.315 87.407 189.929C87.648 189.529 87.982 189.217 88.409 188.991C88.849 188.751 89.37 188.586 89.97 188.493C90.583 188.388 91.257 188.336 91.99 188.337C92.177 188.337 92.357 188.338 92.53 188.338C92.717 188.338 92.903 188.352 93.09 188.379C93.131 187.979 93.151 187.619 93.152 187.299C93.153 186.566 93.007 186.052 92.714 185.758C92.422 185.464 91.889 185.317 91.115 185.315C90.889 185.315 90.642 185.335 90.375 185.374C90.122 185.4 89.855 185.446 89.575 185.513C89.308 185.566 89.048 185.638 88.795 185.731C88.554 185.811 88.341 185.904 88.154 186.01L87.656 184.809ZM90.482 192.834C90.855 192.835 91.189 192.789 91.482 192.696C91.776 192.59 92.029 192.464 92.243 192.317C92.457 192.158 92.63 191.985 92.764 191.798C92.911 191.612 93.018 191.432 93.085 191.259L93.088 189.599C92.901 189.585 92.708 189.578 92.508 189.578C92.321 189.564 92.134 189.557 91.948 189.557C91.534 189.556 91.128 189.582 90.728 189.635C90.341 189.674 89.994 189.76 89.687 189.893C89.394 190.012 89.153 190.185 88.966 190.412C88.793 190.625 88.705 190.898 88.705 191.231C88.704 191.698 88.87 192.085 89.203 192.392C89.536 192.686 89.962 192.833 90.482 192.834ZM106.557 196.642L105.477 196.641L105.182 194.1L97.662 194.087L97.357 196.626L96.277 196.624L96.284 192.684L97.464 192.686C97.571 192.54 97.712 192.28 97.886 191.907C98.06 191.521 98.227 190.988 98.388 190.308C98.563 189.615 98.711 188.762 98.833 187.749C98.968 186.722 99.05 185.503 99.079 184.089L105.119 184.1L105.104 192.7L106.564 192.702L106.557 196.642ZM103.504 192.697L103.517 185.497L100.517 185.492C100.489 186.052 100.441 186.665 100.374 187.332C100.306 187.985 100.211 188.645 100.09 189.311C99.982 189.964 99.841 190.584 99.667 191.17C99.493 191.757 99.292 192.263 99.064 192.689L103.504 192.697ZM109.51 189.648L109.512 188.348L110.912 188.35C111.152 188.35 111.386 188.311 111.612 188.231C111.853 188.152 112.066 188.045 112.253 187.912C112.44 187.766 112.587 187.6 112.694 187.413C112.814 187.213 112.875 187.007 112.875 186.793C112.876 186.273 112.696 185.906 112.337 185.692C111.977 185.479 111.437 185.371 110.717 185.37C110.197 185.369 109.717 185.448 109.277 185.607C108.85 185.766 108.516 185.919 108.276 186.065L107.818 184.825C108.219 184.599 108.686 184.399 109.219 184.227C109.766 184.055 110.413 183.969 111.16 183.97C113.373 183.974 114.478 184.796 114.476 186.436C114.475 186.903 114.321 187.363 114.013 187.815C113.719 188.255 113.292 188.568 112.731 188.753V188.833C113.518 188.981 114.064 189.262 114.37 189.676C114.689 190.09 114.848 190.637 114.847 191.317C114.846 191.744 114.759 192.137 114.585 192.496C114.411 192.856 114.15 193.169 113.803 193.435C113.456 193.701 113.016 193.914 112.482 194.073C111.962 194.219 111.355 194.291 110.662 194.29C109.982 194.288 109.415 194.227 108.962 194.107C108.522 193.986 108.123 193.838 107.763 193.665L108.225 192.345C108.532 192.519 108.898 192.653 109.324 192.747C109.764 192.841 110.238 192.889 110.744 192.89C111.558 192.891 112.178 192.752 112.605 192.473C113.032 192.194 113.246 191.767 113.247 191.194C113.248 190.714 113.049 190.34 112.649 190.073C112.25 189.792 111.59 189.651 110.67 189.65L109.51 189.648ZM116.819 189.12C116.822 187.427 117.197 186.134 117.946 185.242C118.707 184.337 119.795 183.886 121.208 183.888C121.955 183.889 122.601 184.017 123.147 184.271C123.707 184.512 124.166 184.867 124.526 185.334C124.885 185.788 125.15 186.342 125.323 186.995C125.495 187.636 125.58 188.349 125.579 189.136C125.576 190.829 125.194 192.128 124.432 193.034C123.684 193.926 122.603 194.37 121.19 194.368C120.443 194.367 119.79 194.246 119.23 194.005C118.684 193.75 118.231 193.396 117.872 192.942C117.513 192.475 117.247 191.921 117.075 191.281C116.903 190.627 116.818 189.907 116.819 189.12ZM118.479 189.123C118.478 189.63 118.524 190.117 118.616 190.583C118.722 191.05 118.882 191.457 119.094 191.804C119.307 192.151 119.586 192.432 119.933 192.646C120.279 192.86 120.699 192.967 121.192 192.968C123.006 192.985 123.914 191.706 123.919 189.133C123.92 188.613 123.867 188.119 123.762 187.652C123.669 187.186 123.516 186.779 123.304 186.432C123.091 186.085 122.811 185.811 122.465 185.61C122.119 185.396 121.699 185.289 121.206 185.288C119.392 185.272 118.483 186.55 118.479 189.123ZM128.11 184.14L129.21 184.142L129.508 185.343H129.588C129.896 184.877 130.29 184.524 130.77 184.285C131.264 184.032 131.824 183.907 132.451 183.908C133.784 183.91 134.777 184.305 135.429 185.093C136.081 185.881 136.405 187.168 136.402 188.955C136.4 189.795 136.286 190.554 136.058 191.234C135.843 191.9 135.536 192.466 135.135 192.932C134.734 193.398 134.247 193.758 133.673 194.01C133.113 194.262 132.486 194.388 131.792 194.387C131.299 194.386 130.906 194.352 130.613 194.284C130.333 194.231 130.026 194.13 129.693 193.983L129.686 198.143L128.086 198.14L128.11 184.14ZM132.148 185.307C131.468 185.306 130.928 185.485 130.527 185.844C130.14 186.19 129.866 186.723 129.705 187.443L129.696 192.403C129.936 192.59 130.209 192.737 130.515 192.844C130.822 192.938 131.228 192.986 131.735 192.986C132.655 192.988 133.382 192.649 133.917 191.97C134.465 191.278 134.74 190.265 134.742 188.932C134.743 188.385 134.697 187.892 134.605 187.451C134.512 186.998 134.359 186.618 134.147 186.311C133.947 185.99 133.681 185.743 133.348 185.569C133.028 185.395 132.628 185.308 132.148 185.307Z" fill="#3A3939"/>
</svg>
