<svg width="211" height="241" viewBox="0 0 211 241" fill="none" xmlns="http://www.w3.org/2000/svg">
<path d="M211 0H0V241H211V0Z" fill="white"/>
<path d="M70.996 166.536L70.056 166.534L70.044 173.014L68.384 173.011L68.409 159.011L70.069 159.014L70.057 165.534L70.958 165.256L75.669 159.024L77.589 159.027L72.898 165.039L72.057 165.698L73.076 166.499L78.184 173.028L76.084 173.025L70.996 166.536ZM80.288 163.772C80.795 163.466 81.382 163.241 82.049 163.095C82.729 162.95 83.436 162.877 84.169 162.879C84.862 162.88 85.416 162.974 85.829 163.162C86.255 163.349 86.575 163.596 86.787 163.903C87.013 164.197 87.16 164.524 87.226 164.884C87.305 165.244 87.344 165.604 87.344 165.964C87.342 166.764 87.321 167.544 87.28 168.304C87.238 169.064 87.217 169.784 87.216 170.464C87.215 170.957 87.234 171.424 87.273 171.864C87.313 172.304 87.385 172.711 87.491 173.085L86.311 173.083L85.894 171.682H85.794C85.673 171.868 85.52 172.054 85.333 172.241C85.159 172.414 84.945 172.573 84.692 172.72C84.438 172.853 84.145 172.965 83.811 173.058C83.478 173.151 83.098 173.197 82.671 173.196C82.244 173.195 81.845 173.128 81.471 172.994C81.112 172.86 80.799 172.673 80.532 172.432C80.266 172.179 80.053 171.878 79.894 171.531C79.748 171.184 79.675 170.791 79.676 170.351C79.677 169.764 79.798 169.278 80.039 168.892C80.279 168.492 80.613 168.179 81.04 167.953C81.481 167.714 82.001 167.548 82.601 167.456C83.215 167.35 83.888 167.298 84.621 167.3C84.808 167.3 84.988 167.3 85.161 167.3C85.348 167.301 85.535 167.314 85.721 167.341C85.762 166.942 85.783 166.582 85.783 166.262C85.784 165.528 85.639 165.015 85.346 164.721C85.053 164.427 84.52 164.279 83.747 164.278C83.52 164.278 83.273 164.297 83.007 164.337C82.753 164.363 82.486 164.409 82.206 164.475C81.94 164.528 81.679 164.601 81.426 164.694C81.186 164.774 80.972 164.866 80.785 164.973L80.288 163.772ZM83.114 171.797C83.487 171.798 83.82 171.751 84.114 171.659C84.407 171.553 84.661 171.426 84.874 171.28C85.088 171.12 85.262 170.947 85.395 170.761C85.542 170.574 85.649 170.395 85.716 170.221L85.719 168.561C85.533 168.548 85.339 168.541 85.139 168.54C84.953 168.527 84.766 168.52 84.579 168.519C84.166 168.519 83.759 168.545 83.359 168.597C82.972 168.637 82.626 168.723 82.319 168.856C82.025 168.975 81.785 169.148 81.598 169.374C81.424 169.587 81.337 169.86 81.336 170.194C81.335 170.66 81.501 171.047 81.834 171.355C82.167 171.649 82.594 171.796 83.114 171.797ZM91.411 163.051L91.406 165.771C91.405 166.131 91.425 166.458 91.464 166.752C91.504 167.032 91.583 167.278 91.703 167.492C91.823 167.692 91.996 167.852 92.222 167.973C92.449 168.08 92.748 168.134 93.122 168.134C93.722 168.135 94.215 168.07 94.602 167.937C94.989 167.804 95.283 167.658 95.483 167.499L95.491 163.059L97.091 163.061L97.073 173.061L95.473 173.059L95.481 168.859C95.267 168.991 94.947 169.138 94.52 169.297C94.106 169.456 93.533 169.535 92.799 169.534C92.306 169.533 91.873 169.479 91.5 169.372C91.126 169.264 90.813 169.077 90.561 168.81C90.308 168.543 90.115 168.189 89.982 167.749C89.863 167.309 89.804 166.755 89.805 166.089L89.811 163.049L91.411 163.051ZM107.459 172.279C107.059 172.599 106.552 172.851 105.938 173.037C105.338 173.222 104.697 173.315 104.017 173.313C103.257 173.312 102.598 173.191 102.038 172.95C101.479 172.696 101.019 172.342 100.66 171.888C100.301 171.42 100.035 170.867 99.863 170.226C99.691 169.586 99.605 168.866 99.607 168.066C99.61 166.359 99.992 165.06 100.753 164.168C101.515 163.276 102.602 162.831 104.016 162.833C104.469 162.834 104.922 162.888 105.375 162.996C105.829 163.09 106.235 163.277 106.595 163.558C106.954 163.839 107.247 164.239 107.472 164.76C107.698 165.267 107.81 165.94 107.809 166.78C107.808 167.22 107.767 167.707 107.686 168.24L101.266 168.229C101.265 168.815 101.324 169.335 101.444 169.789C101.563 170.243 101.749 170.63 102.002 170.95C102.254 171.257 102.581 171.498 102.98 171.672C103.393 171.832 103.893 171.913 104.48 171.914C104.933 171.915 105.387 171.836 105.84 171.677C106.294 171.517 106.634 171.331 106.861 171.118L107.459 172.279ZM104.033 164.233C103.247 164.232 102.613 164.438 102.132 164.85C101.665 165.263 101.384 165.969 101.289 166.969L106.249 166.977C106.25 165.964 106.058 165.257 105.672 164.856C105.286 164.442 104.74 164.235 104.033 164.233ZM116.92 172.436C116.52 172.729 116.046 172.948 115.499 173.094C114.952 173.253 114.379 173.332 113.779 173.331C113.005 173.329 112.352 173.208 111.819 172.967C111.287 172.713 110.847 172.359 110.501 171.905C110.169 171.438 109.923 170.884 109.764 170.244C109.619 169.59 109.547 168.87 109.548 168.083C109.551 166.39 109.927 165.097 110.675 164.205C111.423 163.3 112.497 162.848 113.897 162.851C114.537 162.852 115.077 162.906 115.517 163.014C115.97 163.108 116.376 163.248 116.736 163.436L116.274 164.815C115.967 164.641 115.628 164.507 115.254 164.413C114.881 164.306 114.481 164.252 114.055 164.251C112.161 164.248 111.212 165.526 111.208 168.086C111.207 168.593 111.253 169.079 111.345 169.546C111.451 170 111.617 170.407 111.843 170.767C112.083 171.114 112.389 171.395 112.762 171.609C113.148 171.823 113.621 171.93 114.181 171.931C114.661 171.932 115.088 171.86 115.462 171.713C115.849 171.568 116.162 171.401 116.403 171.215L116.92 172.436ZM125.205 164.511L122.065 164.505L122.05 173.105L120.45 173.102L120.465 164.502L117.325 164.497L117.328 163.097L125.208 163.111L125.205 164.511ZM126.796 163.133C127.263 163.107 127.75 163.075 128.257 163.036C128.777 162.997 129.417 162.978 130.177 162.979C131.497 162.982 132.443 163.19 133.016 163.604C133.588 164.005 133.874 164.619 133.872 165.446C133.872 165.912 133.731 166.372 133.45 166.825C133.182 167.264 132.735 167.59 132.108 167.803V167.883C132.894 168.031 133.447 168.305 133.767 168.706C134.086 169.106 134.245 169.64 134.244 170.306C134.242 171.346 133.867 172.099 133.12 172.564C132.372 173.03 131.252 173.261 129.759 173.259C129.199 173.258 128.679 173.237 128.199 173.196C127.719 173.168 127.246 173.134 126.779 173.093L126.796 163.133ZM128.381 171.776C128.635 171.803 128.881 171.824 129.121 171.837C129.374 171.851 129.668 171.858 130.001 171.859C130.894 171.86 131.555 171.735 131.982 171.482C132.422 171.23 132.643 170.797 132.644 170.184C132.645 169.704 132.459 169.317 132.086 169.023C131.727 168.715 131.08 168.561 130.147 168.559L128.387 168.556L128.381 171.776ZM130.349 167.34C130.589 167.34 130.822 167.3 131.049 167.221C131.276 167.141 131.476 167.035 131.65 166.902C131.837 166.755 131.984 166.589 132.091 166.403C132.211 166.216 132.271 166.016 132.272 165.803C132.273 165.27 132.113 164.903 131.794 164.702C131.474 164.488 130.914 164.381 130.114 164.379C129.688 164.378 129.348 164.384 129.094 164.397C128.854 164.41 128.621 164.423 128.394 164.436L128.389 167.336L130.349 167.34ZM136.208 168.13C136.211 166.436 136.587 165.144 137.335 164.252C138.096 163.346 139.184 162.895 140.597 162.897C141.344 162.899 141.99 163.027 142.537 163.281C143.096 163.522 143.556 163.876 143.915 164.343C144.274 164.797 144.54 165.351 144.712 166.005C144.884 166.645 144.969 167.358 144.968 168.145C144.965 169.838 144.583 171.138 143.821 172.043C143.073 172.935 141.992 173.38 140.579 173.377C139.832 173.376 139.179 173.255 138.62 173.014C138.073 172.76 137.621 172.406 137.261 171.952C136.902 171.484 136.637 170.931 136.464 170.29C136.292 169.637 136.207 168.916 136.208 168.13ZM137.868 168.133C137.867 168.639 137.913 169.126 138.006 169.593C138.111 170.06 138.271 170.467 138.483 170.814C138.696 171.161 138.976 171.441 139.322 171.655C139.668 171.869 140.088 171.977 140.581 171.977C142.395 171.994 143.304 170.716 143.308 168.142C143.309 167.622 143.257 167.129 143.151 166.662C143.058 166.195 142.906 165.788 142.693 165.441C142.48 165.094 142.201 164.82 141.854 164.62C141.508 164.406 141.088 164.298 140.595 164.297C138.782 164.281 137.873 165.559 137.868 168.133Z" fill="#3A3939"/>
<path d="M105.547 112.217C114.8 112.217 122.328 104.69 122.328 95.4358C122.328 86.1828 114.8 78.6548 105.547 78.6548C96.294 78.6548 88.765 86.1828 88.765 95.4358C88.765 104.69 96.294 112.217 105.547 112.217ZM105.547 80.8928C113.566 80.8928 120.09 87.4158 120.09 95.4358C120.09 103.456 113.566 109.98 105.547 109.98C97.527 109.98 91.003 103.456 91.003 95.4358C91.003 87.4158 97.527 80.8928 105.547 80.8928Z" fill="#4D64AA"/>
<path d="M132.737 49.7699L123.245 45.1139C123.089 45.0378 122.921 45.0006 122.752 45.0006V45H88.343V45.0006C88.174 45.0006 88.005 45.0378 87.85 45.1139L78.357 49.7699C74.508 51.6582 72.912 56.326 74.8 60.174L85.289 81.561C82.575 85.512 80.984 90.291 80.984 95.436C80.984 98.023 81.384 100.571 82.173 103.01C82.364 103.597 82.995 103.92 83.583 103.729C84.17 103.539 84.493 102.908 84.303 102.32C83.585 100.104 83.221 97.788 83.221 95.436C83.221 83.125 93.237 73.11 105.547 73.11C117.858 73.11 127.874 83.125 127.874 95.436C127.874 107.747 117.858 117.762 105.547 117.762C97.352 117.762 89.828 113.283 85.913 106.074C85.619 105.531 84.939 105.329 84.396 105.624C83.853 105.919 83.652 106.598 83.947 107.141C88.253 115.073 96.53 120 105.547 120C119.092 120 130.111 108.98 130.111 95.436C130.111 90.291 128.52 85.512 125.806 81.56L130.158 72.685C130.43 72.131 130.201 71.46 129.646 71.188C129.092 70.916 128.421 71.145 128.149 71.7L124.287 79.574C121.011 75.71 116.564 72.869 111.499 71.603L123.263 47.6155L131.752 51.7789C134.493 53.1236 135.629 56.448 134.285 59.189L130.134 67.654C129.861 68.208 130.091 68.879 130.645 69.15C131.2 69.423 131.871 69.193 132.143 68.639L136.294 60.174C138.182 56.325 136.587 51.6582 132.737 49.7699ZM90.138 47.2379H120.956L113.78 61.87H97.315L90.138 47.2379ZM86.807 79.575L76.809 59.189C75.465 56.448 76.601 53.1236 79.342 51.7789L87.831 47.6155L99.596 71.603C94.531 72.868 90.084 75.71 86.807 79.575ZM105.547 70.872C104.297 70.872 103.067 70.967 101.866 71.148L98.413 64.108H112.683L109.23 71.149C108.028 70.967 106.799 70.872 105.547 70.872Z" fill="#E18C44"/>
<path d="M97.639 97.4721C97.96 97.7861 98.107 98.2381 98.031 98.6811L97.641 100.954C97.407 102.316 97.957 103.667 99.075 104.479C99.706 104.938 100.445 105.171 101.189 105.171C101.762 105.171 102.337 105.033 102.87 104.753L104.911 103.68C105.309 103.47 105.784 103.47 106.183 103.68L108.224 104.753C109.448 105.396 110.902 105.291 112.019 104.479C113.137 103.667 113.687 102.316 113.453 100.954L113.063 98.6811C112.987 98.2381 113.134 97.7861 113.455 97.4721L115.107 95.8621C116.097 94.8981 116.446 93.4821 116.019 92.1681C115.593 90.8541 114.478 89.9141 113.11 89.7161L110.828 89.3841C110.383 89.3191 109.998 89.0401 109.799 88.6371L108.778 86.5691C108.167 85.3291 106.929 84.5601 105.547 84.5601C104.165 84.5601 102.927 85.3291 102.316 86.5691L101.295 88.6371C101.096 89.0401 100.711 89.3191 100.267 89.3841L97.984 89.7161C96.616 89.9141 95.502 90.8541 95.074 92.1681C94.648 93.4821 94.997 94.8981 95.987 95.8621L97.639 97.4721ZM97.203 92.8591C97.367 92.3541 97.779 92.0061 98.306 91.9301L100.588 91.5981C101.762 91.4281 102.776 90.6911 103.302 89.6271L104.322 87.5581C104.558 87.0821 105.015 86.7971 105.547 86.7971C106.079 86.7971 106.536 87.0821 106.771 87.5581L107.793 89.6271C108.318 90.6911 109.332 91.4281 110.506 91.5981L112.789 91.9301C113.315 92.0061 113.727 92.3541 113.891 92.8591C114.056 93.3651 113.926 93.8881 113.546 94.2601L111.894 95.8701C111.044 96.6981 110.657 97.8901 110.858 99.0591L111.247 101.333C111.337 101.857 111.134 102.356 110.704 102.669C110.274 102.981 109.737 103.02 109.266 102.772L107.224 101.699C106.699 101.423 106.123 101.285 105.547 101.285C104.971 101.285 104.395 101.423 103.87 101.699L101.828 102.772C101.358 103.019 100.82 102.981 100.39 102.668C99.96 102.356 99.757 101.857 99.847 101.333L100.236 99.0591C100.437 97.8901 100.05 96.6971 99.2 95.8691L97.548 94.2601C97.168 93.8881 97.039 93.3651 97.203 92.8591Z" fill="#4D64AA"/>
</svg>
