<svg width="212" height="241" viewBox="0 0 212 241" fill="none" xmlns="http://www.w3.org/2000/svg">
<path d="M212 0H0V241H212V0Z" fill="white"/>
<path d="M70.837 166.646L64.117 166.635L64.105 173.055L62.445 173.052L62.471 159.052L64.131 159.055L64.12 165.155L70.84 165.166L70.851 159.066L72.511 159.068L72.485 173.068L70.825 173.066L70.837 166.646ZM75.172 168.073C75.175 166.379 75.551 165.087 76.299 164.195C77.061 163.289 78.148 162.838 79.561 162.84C80.308 162.841 80.954 162.969 81.501 163.223C82.06 163.464 82.52 163.818 82.879 164.285C83.238 164.739 83.503 165.293 83.676 165.947C83.848 166.587 83.933 167.301 83.932 168.087C83.928 169.781 83.546 171.08 82.784 171.985C82.036 172.877 80.955 173.322 79.542 173.32C78.795 173.319 78.142 173.198 77.583 172.957C77.036 172.703 76.584 172.348 76.225 171.895C75.865 171.427 75.6 170.874 75.428 170.233C75.255 169.58 75.17 168.859 75.172 168.073ZM76.832 168.076C76.831 168.582 76.876 169.069 76.969 169.536C77.075 170.003 77.234 170.41 77.447 170.757C77.659 171.104 77.939 171.384 78.285 171.598C78.631 171.812 79.051 171.919 79.544 171.92C81.358 171.936 82.267 170.658 82.272 168.084C82.273 167.564 82.22 167.071 82.114 166.604C82.022 166.137 81.869 165.73 81.657 165.383C81.444 165.036 81.164 164.763 80.818 164.562C80.472 164.348 80.052 164.241 79.559 164.24C77.745 164.224 76.836 165.502 76.832 168.076ZM86.464 163.111C86.93 163.085 87.417 163.053 87.924 163.014C88.444 162.975 89.084 162.956 89.844 162.957C91.164 162.959 92.11 163.167 92.683 163.582C93.255 163.983 93.541 164.596 93.539 165.423C93.538 165.89 93.398 166.349 93.117 166.802C92.849 167.242 92.402 167.568 91.775 167.78V167.86C92.561 168.008 93.114 168.282 93.433 168.683C93.752 169.083 93.911 169.617 93.91 170.284C93.908 171.324 93.534 172.076 92.786 172.542C92.038 173.007 90.918 173.239 89.425 173.236C88.865 173.235 88.345 173.214 87.865 173.174C87.385 173.146 86.912 173.112 86.445 173.071L86.464 163.111ZM88.047 171.754C88.301 171.781 88.547 171.801 88.787 171.815C89.041 171.829 89.334 171.836 89.667 171.837C90.561 171.838 91.221 171.713 91.648 171.46C92.088 171.207 92.309 170.774 92.31 170.161C92.311 169.681 92.125 169.294 91.753 169C91.393 168.693 90.747 168.538 89.813 168.537L88.053 168.534L88.047 171.754ZM90.016 167.317C90.256 167.318 90.489 167.278 90.716 167.198C90.943 167.119 91.143 167.012 91.317 166.879C91.503 166.733 91.65 166.567 91.757 166.38C91.878 166.194 91.938 165.994 91.939 165.78C91.94 165.247 91.78 164.88 91.461 164.68C91.141 164.466 90.581 164.358 89.781 164.357C89.355 164.356 89.015 164.362 88.761 164.375C88.521 164.388 88.288 164.401 88.061 164.414L88.056 167.314L90.016 167.317ZM103.727 172.32C103.326 172.639 102.819 172.892 102.205 173.077C101.605 173.263 100.965 173.355 100.285 173.354C99.525 173.353 98.865 173.232 98.306 172.991C97.746 172.737 97.287 172.383 96.928 171.929C96.568 171.461 96.303 170.908 96.131 170.267C95.959 169.627 95.873 168.907 95.875 168.107C95.878 166.4 96.26 165.101 97.022 164.209C97.784 163.317 98.871 162.872 100.284 162.874C100.738 162.875 101.191 162.929 101.644 163.036C102.097 163.13 102.504 163.318 102.863 163.598C103.223 163.879 103.515 164.279 103.741 164.8C103.967 165.307 104.079 165.98 104.077 166.82C104.076 167.26 104.035 167.747 103.954 168.28L97.534 168.27C97.533 168.856 97.592 169.376 97.712 169.83C97.831 170.283 98.017 170.67 98.269 170.991C98.522 171.298 98.848 171.538 99.248 171.712C99.661 171.873 100.161 171.954 100.748 171.955C101.201 171.956 101.654 171.876 102.108 171.717C102.562 171.558 102.902 171.372 103.129 171.159L103.727 172.32ZM100.302 164.274C99.515 164.273 98.881 164.479 98.401 164.891C97.933 165.304 97.652 166.01 97.557 167.01L102.517 167.018C102.519 166.004 102.327 165.298 101.941 164.897C101.555 164.483 101.009 164.275 100.302 164.274ZM112.833 167.215L112.895 165.975H112.835L112.013 167.253L107.502 173.126L106.582 173.125L106.6 163.125L108.2 163.127L108.189 169.227L108.127 170.407H108.207L108.989 169.168L113.5 163.136L114.44 163.137L114.422 173.137L112.822 173.135L112.833 167.215ZM108.908 159.088C109.04 159.702 109.266 160.129 109.585 160.369C109.918 160.61 110.298 160.731 110.725 160.731C111.151 160.732 111.532 160.606 111.865 160.353C112.199 160.1 112.427 159.687 112.548 159.114L113.747 159.496C113.626 160.269 113.278 160.862 112.704 161.275C112.143 161.687 111.469 161.893 110.683 161.891C110.323 161.891 109.963 161.843 109.603 161.749C109.256 161.656 108.943 161.515 108.664 161.328C108.384 161.141 108.144 160.9 107.945 160.607C107.745 160.313 107.613 159.966 107.547 159.566L108.908 159.088ZM117.5 173.143L117.518 163.143L119.118 163.145L119.102 171.745L122.522 171.751L122.538 163.151L124.138 163.153L124.122 171.753L127.542 171.759L127.558 163.159L129.158 163.162L129.14 173.162L117.5 173.143ZM138.477 167.257L138.539 166.017H138.479L137.657 167.296L133.146 173.168L132.226 173.167L132.245 163.167L133.845 163.169L133.833 169.269L133.771 170.449H133.851L134.634 169.211L139.145 163.178L140.085 163.18L140.066 173.18L138.466 173.177L138.477 167.257ZM150.446 172.397C150.045 172.716 149.538 172.969 148.924 173.154C148.324 173.34 147.684 173.432 147.004 173.431C146.244 173.43 145.584 173.309 145.024 173.068C144.465 172.814 144.005 172.459 143.646 172.006C143.287 171.538 143.022 170.985 142.849 170.344C142.677 169.704 142.592 168.984 142.593 168.184C142.597 166.477 142.979 165.178 143.741 164.286C144.502 163.394 145.59 162.949 147.003 162.951C147.456 162.952 147.91 163.006 148.363 163.113C148.816 163.207 149.222 163.395 149.582 163.675C149.941 163.956 150.234 164.356 150.46 164.877C150.685 165.384 150.797 166.057 150.796 166.897C150.795 167.337 150.754 167.824 150.673 168.357L144.253 168.347C144.252 168.933 144.311 169.453 144.43 169.907C144.549 170.36 144.735 170.747 144.988 171.068C145.241 171.375 145.567 171.615 145.967 171.789C146.38 171.95 146.88 172.031 147.466 172.032C147.92 172.033 148.373 171.953 148.827 171.794C149.28 171.635 149.621 171.449 149.848 171.236L150.446 172.397ZM147.021 164.351C146.234 164.35 145.6 164.555 145.119 164.968C144.652 165.381 144.371 166.087 144.275 167.087L149.235 167.095C149.237 166.081 149.045 165.374 148.659 164.974C148.273 164.56 147.727 164.352 147.021 164.351ZM64.618 185.455L61.478 185.45L61.462 194.05L59.862 194.048L59.878 185.448L56.738 185.442L56.741 184.042L64.621 184.055L64.618 185.455ZM73.18 193.27C72.78 193.589 72.272 193.841 71.659 194.027C71.058 194.213 70.418 194.305 69.738 194.304C68.978 194.303 68.318 194.182 67.759 193.941C67.199 193.686 66.74 193.332 66.381 192.878C66.022 192.411 65.756 191.857 65.584 191.217C65.412 190.577 65.326 189.857 65.328 189.057C65.331 187.35 65.714 186.051 66.475 185.159C67.237 184.266 68.324 183.822 69.738 183.824C70.191 183.825 70.644 183.879 71.097 183.986C71.551 184.08 71.957 184.268 72.316 184.548C72.676 184.829 72.968 185.229 73.194 185.75C73.42 186.257 73.532 186.93 73.53 187.77C73.529 188.21 73.489 188.697 73.408 189.23L66.988 189.219C66.987 189.806 67.046 190.326 67.165 190.78C67.284 191.233 67.47 191.62 67.723 191.941C67.975 192.248 68.302 192.488 68.701 192.662C69.114 192.823 69.614 192.904 70.201 192.905C70.654 192.905 71.108 192.826 71.561 192.667C72.015 192.508 72.355 192.322 72.582 192.109L73.18 193.27ZM69.755 185.224C68.968 185.223 68.335 185.428 67.854 185.841C67.386 186.253 67.105 186.96 67.01 187.959L71.97 187.968C71.972 186.954 71.78 186.247 71.394 185.847C71.008 185.433 70.462 185.225 69.755 185.224ZM78.215 188.958L74.864 184.072L76.824 184.076L78.719 186.839L79.277 187.98L79.859 186.841L81.804 184.084L83.604 184.087L80.215 188.881L83.786 194.087L81.886 194.084L79.771 191.04L79.174 189.839L78.551 191.038L76.386 194.075L74.606 194.072L78.215 188.958ZM92.007 189.681L87.487 189.673L87.479 194.093L85.879 194.09L85.897 184.09L87.497 184.093L87.489 188.273L92.009 188.281L92.017 184.101L93.617 184.103L93.599 194.103L91.999 194.101L92.007 189.681ZM96.129 189.107C96.132 187.414 96.508 186.121 97.256 185.229C98.018 184.324 99.105 183.872 100.518 183.875C101.265 183.876 101.911 184.004 102.458 184.258C103.017 184.499 103.477 184.853 103.836 185.32C104.195 185.774 104.46 186.328 104.633 186.981C104.805 187.622 104.89 188.335 104.889 189.122C104.885 190.815 104.503 192.114 103.741 193.02C102.993 193.912 101.912 194.357 100.499 194.355C99.752 194.353 99.099 194.232 98.54 193.991C97.993 193.737 97.541 193.383 97.182 192.929C96.822 192.462 96.557 191.908 96.385 191.268C96.213 190.614 96.127 189.894 96.129 189.107ZM97.789 189.11C97.788 189.617 97.833 190.103 97.926 190.57C98.032 191.037 98.191 191.444 98.404 191.791C98.616 192.138 98.896 192.419 99.242 192.632C99.588 192.846 100.008 192.954 100.502 192.955C102.315 192.971 103.224 191.692 103.229 189.119C103.23 188.599 103.177 188.106 103.071 187.639C102.979 187.172 102.826 186.765 102.614 186.418C102.401 186.071 102.121 185.797 101.775 185.597C101.429 185.383 101.009 185.275 100.516 185.275C98.702 185.258 97.793 186.537 97.789 189.11ZM112.681 185.535L109.781 185.53C109.74 186.09 109.699 186.696 109.657 187.35C109.616 187.99 109.555 188.636 109.474 189.289C109.393 189.929 109.285 190.549 109.15 191.149C109.016 191.735 108.842 192.255 108.627 192.708C108.427 193.161 108.173 193.527 107.865 193.807C107.572 194.073 107.218 194.206 106.805 194.205C106.551 194.205 106.331 194.191 106.145 194.164C105.958 194.137 105.792 194.09 105.645 194.023L105.887 192.683C106.047 192.737 106.221 192.764 106.407 192.764C106.674 192.765 106.914 192.652 107.128 192.425C107.342 192.199 107.529 191.773 107.69 191.146C107.852 190.507 107.987 189.627 108.095 188.507C108.204 187.387 108.28 185.927 108.323 184.127L114.283 184.137L114.265 194.137L112.665 194.135L112.681 185.535ZM116.793 189.141C116.796 187.448 117.172 186.155 117.92 185.263C118.682 184.358 119.769 183.906 121.182 183.909C121.929 183.91 122.576 184.038 123.122 184.292C123.681 184.533 124.141 184.887 124.5 185.354C124.859 185.808 125.125 186.362 125.297 187.015C125.469 187.656 125.554 188.369 125.553 189.156C125.55 190.849 125.167 192.148 124.405 193.054C123.657 193.946 122.576 194.391 121.163 194.389C120.416 194.387 119.763 194.266 119.204 194.025C118.657 193.771 118.205 193.417 117.846 192.963C117.486 192.496 117.221 191.942 117.049 191.302C116.877 190.648 116.791 189.928 116.793 189.141ZM118.453 189.144C118.452 189.651 118.498 190.138 118.59 190.604C118.696 191.071 118.855 191.478 119.068 191.825C119.28 192.172 119.56 192.453 119.906 192.666C120.252 192.88 120.672 192.988 121.166 192.989C122.979 193.005 123.888 191.726 123.893 189.153C123.894 188.633 123.841 188.14 123.735 187.673C123.643 187.206 123.49 186.799 123.278 186.452C123.065 186.105 122.786 185.831 122.439 185.631C122.093 185.417 121.673 185.309 121.18 185.309C119.367 185.292 118.457 186.571 118.453 189.144ZM133.922 185.57L129.682 185.563L129.666 194.163L128.066 194.16L128.085 184.16L133.925 184.17L133.922 185.57ZM141.7 188.262L141.762 187.022H141.702L140.88 188.301L136.369 194.174L135.449 194.172L135.467 184.172L137.067 184.175L137.056 190.275L136.994 191.455H137.074L137.856 190.216L142.367 184.183L143.307 184.185L143.289 194.185L141.689 194.182L141.7 188.262ZM152.618 188.28L152.68 187.04H152.62L151.798 188.319L147.287 194.192L146.367 194.19L146.385 184.19L147.985 184.193L147.974 190.293L147.912 191.473H147.992L148.774 190.234L153.285 184.201L154.225 184.203L154.207 194.203L152.607 194.2L152.618 188.28Z" fill="#3A3939"/>
<path d="M120.846 89.3719C123.398 86.0059 124.748 81.9889 124.748 77.7529C124.748 72.5609 122.711 67.6929 119.013 64.0469C115.316 60.4019 110.415 58.4329 105.222 58.5079C100.189 58.5789 95.448 60.5989 91.871 64.1939C88.294 67.7899 86.299 72.5419 86.253 77.5749C86.214 81.8899 87.571 85.9799 90.178 89.4029C94.409 94.9599 96.74 101.766 96.74 108.569V116.012C96.74 119.314 99.426 122 102.728 122H108.297C111.599 122 114.285 119.314 114.285 116.012V108.569C114.285 101.692 116.537 95.0529 120.846 89.3719ZM92.141 87.9079C89.87 84.9249 88.687 81.3599 88.721 77.5979C88.803 68.5599 96.221 61.1029 105.257 60.9759C109.79 60.9149 114.057 62.6259 117.28 65.8039C120.504 68.9829 122.28 73.2269 122.28 77.7539C122.28 81.4459 121.104 84.9479 118.879 87.8809C114.34 93.8669 111.896 100.851 111.796 108.105H99.204C99.101 100.921 96.602 93.7659 92.141 87.9079ZM99.208 115.176V114.177L111.817 115.622V116.012C111.817 116.218 111.796 116.418 111.762 116.614L99.208 115.176ZM99.208 111.693V110.573H111.817V113.138L99.208 111.693ZM102.728 119.532C101.402 119.532 100.246 118.795 99.646 117.71L110.268 118.927C109.706 119.309 109.027 119.532 108.297 119.532H102.728Z" fill="#E18C44"/>
<path d="M93.299 79.6101C93.202 78.9641 93.156 78.3011 93.163 77.6381C93.169 76.9571 92.621 76.3991 91.94 76.3931C91.263 76.3871 90.701 76.9341 90.695 77.6161C90.688 78.4071 90.743 79.2001 90.858 79.9741C90.949 80.5861 91.476 81.0261 92.077 81.0261C92.137 81.0261 92.199 81.0211 92.26 81.0121C92.934 80.9111 93.399 80.2841 93.299 79.6101Z" fill="#4D64AA"/>
<path d="M100.56 98.3512C100.688 98.3512 100.818 98.3312 100.946 98.2892C101.593 98.0762 101.945 97.3792 101.732 96.7322C100.365 92.5732 98.327 88.6992 95.675 85.2172C95.237 84.6412 94.848 84.0282 94.521 83.3942C94.208 82.7892 93.463 82.5522 92.858 82.8652C92.253 83.1782 92.016 83.9222 92.328 84.5272C92.722 85.2882 93.187 86.0232 93.712 86.7122C96.197 89.9752 98.107 93.6062 99.388 97.5032C99.559 98.0222 100.042 98.3512 100.56 98.3512Z" fill="#4D64AA"/>
<path d="M118.464 81.978C117.839 81.709 117.113 81.998 116.843 82.624C116.452 83.531 115.946 84.3971 115.34 85.1971C114.928 85.7401 115.034 86.514 115.577 86.926C115.8 87.095 116.062 87.176 116.322 87.176C116.695 87.176 117.063 87.008 117.306 86.688C118.033 85.729 118.64 84.6901 119.11 83.6001C119.379 82.9741 119.09 82.248 118.464 81.978Z" fill="#4D64AA"/>
<path d="M105.5 65.4162C112.303 65.4162 117.838 70.9502 117.838 77.7532C117.838 78.1402 117.82 78.5302 117.785 78.9122C117.723 79.5902 118.222 80.1912 118.901 80.2532C118.939 80.2572 118.977 80.2592 119.015 80.2592C119.646 80.2592 120.184 79.7782 120.242 79.1372C120.284 78.6812 120.306 78.2152 120.306 77.7532C120.306 69.5902 113.664 62.9482 105.5 62.9482C104.819 62.9482 104.266 63.5002 104.266 64.1822C104.266 64.8632 104.819 65.4162 105.5 65.4162Z" fill="#4D64AA"/>
<path d="M105.5 56.377C106.181 56.377 106.734 55.825 106.734 55.144V48.2339C106.734 47.5524 106.181 47 105.5 47C104.819 47 104.266 47.5524 104.266 48.2339V55.144C104.266 55.825 104.819 56.377 105.5 56.377Z" fill="#4D64AA"/>
<path d="M93.017 58.816C93.246 59.212 93.66 59.433 94.087 59.433C94.296 59.433 94.508 59.38 94.703 59.267C95.293 58.927 95.495 58.172 95.154 57.582L91.701 51.6002C91.36 51.0099 90.606 50.8077 90.016 51.1484C89.426 51.4891 89.223 52.2438 89.564 52.8339L93.017 58.816Z" fill="#4D64AA"/>
<path d="M131.868 91.7672L125.887 88.3142C125.296 87.9732 124.542 88.1752 124.201 88.7662C123.86 89.3562 124.063 90.1112 124.653 90.4512L130.635 93.9042C130.829 94.0172 131.041 94.0702 131.251 94.0702C131.677 94.0702 132.092 93.8492 132.32 93.4532C132.661 92.8632 132.459 92.1082 131.868 91.7672Z" fill="#4D64AA"/>
<path d="M79.131 64.1699L85.113 67.6229C85.308 67.7349 85.52 67.7889 85.729 67.7889C86.155 67.7889 86.57 67.5669 86.799 67.1709C87.139 66.5809 86.937 65.8269 86.347 65.4859L80.365 62.0329C79.775 61.6919 79.02 61.8939 78.68 62.4849C78.339 63.0749 78.541 63.8289 79.131 64.1699Z" fill="#4D64AA"/>
<path d="M135.234 76.7349H128.325C127.643 76.7349 127.091 77.2869 127.091 77.9689C127.091 78.6499 127.643 79.2029 128.325 79.2029H135.234C135.916 79.2029 136.468 78.6499 136.468 77.9689C136.468 77.2869 135.916 76.7349 135.234 76.7349Z" fill="#4D64AA"/>
<path d="M83.909 77.9689C83.909 77.2869 83.356 76.7349 82.675 76.7349H75.765C75.084 76.7349 74.531 77.2869 74.531 77.9689C74.531 78.6499 75.084 79.2029 75.765 79.2029H82.675C83.356 79.2029 83.909 78.6499 83.909 77.9689Z" fill="#4D64AA"/>
<path d="M125.271 67.789C125.48 67.789 125.692 67.735 125.887 67.623L131.868 64.17C132.459 63.829 132.661 63.075 132.32 62.484C131.979 61.894 131.225 61.6919 130.635 62.0329L124.653 65.486C124.063 65.827 123.86 66.5809 124.201 67.1709C124.43 67.5669 124.845 67.789 125.271 67.789Z" fill="#4D64AA"/>
<path d="M85.113 88.314L79.131 91.768C78.541 92.108 78.339 92.863 78.68 93.453C78.908 93.849 79.323 94.07 79.749 94.07C79.959 94.07 80.171 94.017 80.365 93.905L86.347 90.452C86.937 90.111 87.139 89.356 86.799 88.766C86.458 88.176 85.703 87.974 85.113 88.314Z" fill="#4D64AA"/>
<path d="M116.297 59.267C116.492 59.38 116.704 59.433 116.913 59.433C117.34 59.433 117.754 59.212 117.983 58.816L121.436 52.8339C121.777 52.2438 121.574 51.4891 120.984 51.1484C120.394 50.8077 119.64 51.0099 119.299 51.6002L115.846 57.582C115.505 58.172 115.707 58.927 116.297 59.267Z" fill="#4D64AA"/>
</svg>
