<svg width="212" height="241" viewBox="0 0 212 241" fill="none" xmlns="http://www.w3.org/2000/svg">
<path d="M212 0H0V241H212V0Z" fill="white"/>
<path d="M79.081 59.097H109.564V66.21C109.564 66.772 110.018 67.226 110.581 67.226H117.694V75.355H119.726V66.21C119.726 65.928 119.611 65.674 119.427 65.49L111.301 57.364C111.116 57.179 110.862 57.065 110.581 57.065H83.145V55.032H121.758V77.387H123.79V54.016C123.79 53.454 123.336 53 122.774 53H82.129C81.567 53 81.113 53.454 81.113 54.016V57.065H78.064C77.502 57.065 77.048 57.518 77.048 58.081V114.984C77.048 115.546 77.502 116 78.064 116H112.613V113.968H79.081V59.097ZM111.597 60.534L116.257 65.194H111.597V60.534Z" fill="#E18C44"/>
<path d="M132.936 83.484H131.405C126.868 83.484 122.601 81.485 119.697 78.001L119.491 77.754C119.106 77.289 118.314 77.289 117.929 77.754L117.724 78C114.819 81.485 110.551 83.484 106.014 83.484H104.484C103.922 83.484 103.468 83.938 103.468 84.5V100.957C103.468 104.958 105.626 108.678 109.1 110.662L118.206 115.866C118.361 115.955 118.536 116 118.71 116C118.883 116 119.058 115.955 119.214 115.866L128.319 110.662C131.793 108.678 133.952 104.958 133.952 100.957V84.5C133.952 83.938 133.498 83.484 132.936 83.484ZM131.919 100.957C131.919 104.231 130.155 107.273 127.311 108.897L118.71 113.814L110.108 108.898C107.265 107.273 105.5 104.231 105.5 100.957V85.516H106.014C110.863 85.516 115.442 83.501 118.71 79.957C121.976 83.501 126.556 85.516 131.405 85.516H131.919V100.957Z" fill="#E18C44"/>
<path d="M118.71 86.5322C112.547 86.5322 107.532 91.5472 107.532 97.7102C107.532 103.872 112.547 108.887 118.71 108.887C124.872 108.887 129.887 103.872 129.887 97.7102C129.887 91.5472 124.872 86.5322 118.71 86.5322ZM118.71 106.855C113.667 106.855 109.564 102.753 109.564 97.7102C109.564 92.6672 113.667 88.5642 118.71 88.5642C123.753 88.5642 127.855 92.6672 127.855 97.7102C127.855 102.753 123.753 106.855 118.71 106.855Z" fill="#4D64AA"/>
<path d="M118.225 100.869L116.38 99.0239L114.943 100.46L117.992 103.509C118.184 103.702 118.444 103.807 118.71 103.807C118.793 103.807 118.876 103.797 118.958 103.776C119.306 103.688 119.58 103.425 119.684 103.082L122.732 92.9209L120.785 92.3369L118.225 100.869Z" fill="#4D64AA"/>
<path d="M81.113 69.2578H107.532V71.2898H81.113V69.2578Z" fill="#4D64AA"/>
<path d="M81.113 73.3232H107.532V75.3552H81.113V73.3232Z" fill="#4D64AA"/>
<path d="M81.113 77.3872H107.532V79.4192H81.113V77.3872Z" fill="#4D64AA"/>
<path d="M81.113 81.4521H101.435V83.4841H81.113V81.4521Z" fill="#4D64AA"/>
<path d="M81.113 85.5161H101.435V87.5481H81.113V85.5161Z" fill="#4D64AA"/>
<path d="M81.113 89.5811H101.435V91.6131H81.113V89.5811Z" fill="#4D64AA"/>
<path d="M81.113 101.774H101.435V103.807H81.113V101.774Z" fill="#4D64AA"/>
<path d="M81.113 105.839H101.435V107.871H81.113V105.839Z" fill="#4D64AA"/>
<path d="M81.113 109.903H101.435V111.936H81.113V109.903Z" fill="#4D64AA"/>
<path d="M82.129 61.1289H84.161V63.1609H82.129V61.1289Z" fill="#4D64AA"/>
<path d="M86.193 61.1289H88.226V63.1609H86.193V61.1289Z" fill="#4D64AA"/>
<path d="M90.258 61.1289H92.29V63.1609H90.258V61.1289Z" fill="#4D64AA"/>
<path d="M94.322 61.1289H107.532V63.1609H94.322V61.1289Z" fill="#4D64AA"/>
<path d="M66.983 171.883C67.436 171.883 67.856 171.817 68.243 171.685C68.63 171.552 68.964 171.359 69.244 171.106C69.525 170.84 69.745 170.527 69.906 170.167C70.067 169.808 70.147 169.415 70.148 168.988C70.15 168.055 69.871 167.361 69.312 166.907C68.766 166.452 68.007 166.224 67.033 166.223L65.553 166.22L65.554 165.64L68.443 161.205L69.364 160.327L68.064 160.524L64.104 160.518L64.107 159.038L71.247 159.05L71.245 159.63L68.057 164.404L67.355 164.983V165.023L68.036 164.884C68.569 164.899 69.062 164.999 69.515 165.187C69.968 165.361 70.361 165.622 70.694 165.969C71.026 166.303 71.286 166.71 71.471 167.19C71.657 167.657 71.75 168.191 71.748 168.791C71.747 169.511 71.619 170.15 71.365 170.71C71.11 171.269 70.763 171.742 70.322 172.128C69.895 172.501 69.388 172.787 68.801 172.986C68.214 173.185 67.593 173.284 66.94 173.283C66.34 173.282 65.8 173.234 65.32 173.14C64.84 173.046 64.421 172.925 64.061 172.778L64.484 171.359C64.79 171.506 65.15 171.633 65.563 171.74C65.989 171.834 66.463 171.882 66.983 171.883ZM74.072 166.054C74.076 163.654 74.466 161.848 75.242 160.636C76.031 159.424 77.172 158.819 78.665 158.822C80.279 158.825 81.444 159.426 82.162 160.628C82.893 161.816 83.256 163.629 83.252 166.069C83.247 168.469 82.851 170.275 82.062 171.488C81.286 172.7 80.145 173.304 78.638 173.302C77.052 173.299 75.893 172.664 75.162 171.396C74.431 170.128 74.068 168.348 74.072 166.054ZM75.732 166.057C75.73 166.924 75.782 167.717 75.888 168.437C76.006 169.144 76.185 169.758 76.424 170.278C76.663 170.785 76.962 171.186 77.322 171.48C77.695 171.76 78.134 171.901 78.641 171.902C79.654 171.904 80.395 171.438 80.864 170.506C81.345 169.56 81.588 168.08 81.592 166.067C81.594 165.213 81.542 164.427 81.436 163.706C81.344 162.986 81.179 162.366 80.94 161.846C80.714 161.325 80.415 160.925 80.042 160.644C79.669 160.364 79.209 160.223 78.663 160.222C77.663 160.22 76.922 160.692 76.44 161.638C75.972 162.584 75.736 164.057 75.732 166.057ZM96.365 164.491L93.465 164.486C93.424 165.046 93.383 165.653 93.342 166.306C93.301 166.946 93.24 167.593 93.158 168.246C93.077 168.886 92.969 169.505 92.835 170.105C92.7 170.692 92.526 171.211 92.312 171.664C92.111 172.117 91.857 172.484 91.55 172.763C91.256 173.029 90.903 173.162 90.489 173.161C90.236 173.161 90.016 173.147 89.829 173.12C89.643 173.093 89.476 173.046 89.33 172.979L89.572 171.64C89.732 171.693 89.905 171.72 90.092 171.721C90.359 171.721 90.599 171.608 90.813 171.382C91.026 171.156 91.214 170.729 91.375 170.103C91.536 169.463 91.671 168.583 91.78 167.464C91.889 166.344 91.965 164.884 92.008 163.084L97.968 163.094L97.949 173.094L96.349 173.091L96.365 164.491ZM108.329 172.311C107.929 172.63 107.422 172.883 106.808 173.068C106.208 173.254 105.568 173.346 104.888 173.345C104.128 173.344 103.468 173.223 102.908 172.982C102.349 172.728 101.889 172.373 101.53 171.92C101.171 171.452 100.905 170.899 100.733 170.258C100.561 169.618 100.476 168.898 100.477 168.098C100.48 166.391 100.863 165.092 101.624 164.2C102.386 163.308 103.474 162.863 104.887 162.865C105.34 162.866 105.794 162.92 106.247 163.027C106.7 163.121 107.106 163.309 107.466 163.589C107.825 163.87 108.118 164.27 108.343 164.791C108.569 165.298 108.681 165.971 108.68 166.811C108.679 167.251 108.638 167.738 108.557 168.271L102.137 168.261C102.136 168.847 102.195 169.367 102.314 169.821C102.433 170.274 102.619 170.661 102.872 170.982C103.125 171.289 103.451 171.529 103.851 171.703C104.264 171.864 104.763 171.945 105.35 171.946C105.803 171.947 106.257 171.867 106.711 171.708C107.164 171.549 107.505 171.363 107.732 171.15L108.329 172.311ZM104.904 164.265C104.118 164.264 103.484 164.469 103.003 164.882C102.536 165.295 102.254 166.001 102.159 167.001L107.119 167.009C107.121 165.995 106.929 165.288 106.543 164.888C106.157 164.474 105.611 164.266 104.904 164.265ZM117.58 164.526L114.44 164.521L114.424 173.121L112.824 173.118L112.84 164.518L109.7 164.513L109.703 163.113L117.583 163.126L117.58 164.526ZM125.281 168.719L120.761 168.711L120.753 173.131L119.153 173.129L119.172 163.129L120.772 163.131L120.764 167.311L125.284 167.319L125.292 163.139L126.892 163.141L126.873 173.141L125.273 173.139L125.281 168.719ZM136.205 167.237L136.267 165.997H136.207L135.385 167.275L130.874 173.148L129.954 173.146L129.972 163.146L131.572 163.149L131.561 169.249L131.499 170.429H131.579L132.361 169.19L136.872 163.158L137.812 163.159L137.794 173.159L136.194 173.157L136.205 167.237ZM147.123 167.255L147.185 166.015H147.125L146.303 167.293L141.792 173.166L140.872 173.164L140.89 163.164L142.49 163.167L142.479 169.267L142.417 170.447H142.497L143.279 169.208L147.79 163.176L148.73 163.177L148.712 173.177L147.112 173.175L147.123 167.255ZM143.198 159.128C143.33 159.742 143.556 160.169 143.875 160.409C144.208 160.65 144.588 160.77 145.015 160.771C145.441 160.772 145.822 160.646 146.155 160.393C146.489 160.14 146.717 159.727 146.838 159.154L148.037 159.536C147.916 160.309 147.568 160.902 146.994 161.314C146.433 161.727 145.759 161.932 144.973 161.931C144.613 161.93 144.253 161.883 143.893 161.789C143.546 161.695 143.233 161.555 142.954 161.368C142.674 161.181 142.434 160.94 142.235 160.647C142.035 160.353 141.903 160.006 141.837 159.606L143.198 159.128ZM43.3875 189.004C43.3907 187.311 43.7664 186.018 44.5147 185.126C45.2764 184.22 46.3639 183.769 47.7772 183.771C48.5239 183.772 49.1703 183.9 49.7165 184.154C50.276 184.395 50.735 184.749 51.095 185.217C51.454 185.67 51.719 186.224 51.891 186.878C52.064 187.518 52.149 188.232 52.148 189.018C52.144 190.712 51.762 192.011 51 192.916C50.252 193.808 49.1711 194.253 47.7578 194.251C47.0111 194.25 46.358 194.129 45.7984 193.888C45.2522 193.634 44.7996 193.28 44.4404 192.826C44.0813 192.358 43.8156 191.805 43.6435 191.164C43.4714 190.511 43.3861 189.791 43.3875 189.004ZM45.0475 189.007C45.0466 189.513 45.0923 190 45.1848 190.467C45.2906 190.934 45.4498 191.341 45.6625 191.688C45.8752 192.035 46.1547 192.315 46.501 192.529C46.8472 192.743 47.267 192.85 47.7604 192.851C49.5737 192.867 50.483 191.589 50.488 189.016C50.488 188.496 50.436 188.002 50.33 187.535C50.238 187.068 50.085 186.662 49.8725 186.315C49.6598 185.968 49.3803 185.694 49.034 185.493C48.6878 185.279 48.268 185.172 47.7746 185.171C45.9613 185.155 45.0523 186.433 45.0475 189.007ZM60.697 185.432L56.277 185.425L56.261 194.025L54.661 194.022L54.679 184.022L62.299 184.035L62.281 194.035L60.681 194.032L60.697 185.432ZM66.967 192.643C67.46 192.723 67.933 192.764 68.386 192.765C69.226 192.766 69.813 192.607 70.147 192.288C70.481 191.955 70.649 191.489 70.65 190.889C70.651 190.355 70.485 189.915 70.152 189.568C69.833 189.221 69.267 189.046 68.453 189.045C68.227 189.045 67.98 189.051 67.713 189.064C67.447 189.077 67.2 189.116 66.973 189.183L66.967 192.643ZM66.975 187.863C67.296 187.81 67.602 187.777 67.896 187.764C68.189 187.738 68.469 187.725 68.736 187.726C69.416 187.727 69.982 187.808 70.435 187.968C70.902 188.116 71.275 188.323 71.554 188.59C71.834 188.857 72.026 189.178 72.132 189.551C72.252 189.911 72.311 190.298 72.31 190.711C72.308 191.925 71.966 192.804 71.285 193.35C70.618 193.895 69.53 194.167 68.024 194.164C67.17 194.163 66.284 194.122 65.364 194.04L65.383 184.04L66.983 184.043L66.975 187.863ZM73.903 184.054L75.503 184.057L75.484 194.057L73.884 194.054L73.903 184.054ZM84.963 185.472L81.823 185.467L81.807 194.067L80.207 194.064L80.223 185.465L77.083 185.459L77.086 184.059L84.966 184.072L84.963 185.472ZM97.371 189.673L92.851 189.665L92.843 194.085L91.243 194.083L91.261 184.083L92.861 184.085L92.854 188.265L97.374 188.273L97.381 184.093L98.981 184.095L98.963 194.095L97.363 194.093L97.371 189.673ZM101.901 184.84C102.408 184.534 102.995 184.309 103.662 184.163C104.342 184.018 105.049 183.945 105.782 183.947C106.476 183.948 107.029 184.042 107.442 184.229C107.868 184.417 108.188 184.664 108.401 184.971C108.627 185.265 108.773 185.592 108.839 185.952C108.918 186.312 108.957 186.672 108.957 187.032C108.955 187.832 108.934 188.612 108.892 189.372C108.851 190.132 108.83 190.852 108.828 191.532C108.827 192.025 108.847 192.492 108.886 192.932C108.925 193.372 108.998 193.779 109.104 194.152L107.924 194.15L107.506 192.749H107.406C107.286 192.936 107.132 193.122 106.945 193.309C106.771 193.482 106.558 193.641 106.304 193.787C106.051 193.92 105.757 194.033 105.424 194.126C105.09 194.219 104.71 194.265 104.283 194.264C103.857 194.263 103.457 194.196 103.084 194.062C102.724 193.928 102.411 193.741 102.145 193.501C101.879 193.247 101.666 192.946 101.506 192.6C101.36 192.253 101.288 191.859 101.289 191.419C101.29 190.833 101.411 190.346 101.651 189.96C101.892 189.56 102.226 189.247 102.653 189.021C103.093 188.782 103.614 188.616 104.214 188.524C104.828 188.418 105.501 188.366 106.234 188.367C106.421 188.368 106.601 188.368 106.774 188.368C106.961 188.369 107.148 188.382 107.334 188.409C107.375 188.009 107.396 187.649 107.396 187.329C107.398 186.596 107.252 186.082 106.959 185.789C106.666 185.495 106.133 185.347 105.36 185.346C105.133 185.346 104.887 185.365 104.62 185.405C104.366 185.431 104.1 185.477 103.82 185.543C103.553 185.596 103.293 185.669 103.039 185.762C102.799 185.842 102.585 185.935 102.399 186.041L101.901 184.84ZM104.726 192.865C105.099 192.865 105.433 192.819 105.726 192.727C106.02 192.62 106.273 192.494 106.487 192.348C106.701 192.188 106.874 192.015 107.008 191.829C107.155 191.642 107.262 191.462 107.329 191.289L107.332 189.629C107.145 189.616 106.952 189.609 106.752 189.608C106.565 189.595 106.379 189.588 106.192 189.587C105.779 189.587 105.372 189.613 104.972 189.665C104.585 189.705 104.238 189.791 103.931 189.924C103.638 190.043 103.397 190.216 103.21 190.442C103.037 190.655 102.95 190.929 102.949 191.262C102.948 191.729 103.114 192.116 103.447 192.423C103.78 192.717 104.206 192.864 104.726 192.865ZM117.316 184.126L118.416 184.127L118.714 185.328H118.794C119.101 184.862 119.495 184.509 119.976 184.27C120.47 184.017 121.03 183.892 121.657 183.893C122.99 183.895 123.982 184.29 124.634 185.078C125.286 185.865 125.61 187.153 125.607 188.939C125.606 189.779 125.491 190.539 125.263 191.219C125.048 191.885 124.741 192.451 124.34 192.917C123.939 193.383 123.452 193.742 122.878 193.995C122.317 194.247 121.69 194.373 120.997 194.372C120.504 194.371 120.11 194.337 119.817 194.27C119.537 194.216 119.231 194.115 118.898 193.968L118.89 198.128L117.29 198.126L117.316 184.126ZM121.354 185.292C120.674 185.291 120.134 185.47 119.733 185.83C119.346 186.176 119.071 186.708 118.91 187.428L118.901 192.388C119.14 192.575 119.413 192.722 119.72 192.83C120.026 192.923 120.433 192.971 120.94 192.972C121.86 192.973 122.587 192.634 123.122 191.955C123.669 191.263 123.945 190.25 123.947 188.917C123.948 188.37 123.902 187.876 123.81 187.436C123.717 186.983 123.565 186.603 123.352 186.296C123.153 185.975 122.886 185.728 122.553 185.554C122.234 185.38 121.834 185.293 121.354 185.292ZM129.72 192.746C130.214 192.827 130.687 192.868 131.14 192.868C131.98 192.87 132.567 192.711 132.901 192.391C133.235 192.058 133.403 191.592 133.404 190.992C133.405 190.459 133.239 190.018 132.906 189.671C132.587 189.324 132.02 189.15 131.207 189.148C130.98 189.148 130.734 189.154 130.467 189.167C130.2 189.18 129.954 189.22 129.727 189.286L129.72 192.746ZM129.729 187.966C130.049 187.913 130.356 187.88 130.649 187.868C130.943 187.841 131.223 187.828 131.49 187.829C132.17 187.83 132.736 187.911 133.189 188.072C133.655 188.219 134.028 188.426 134.308 188.694C134.587 188.961 134.78 189.281 134.886 189.655C135.005 190.015 135.065 190.401 135.064 190.815C135.062 192.028 134.72 192.908 134.039 193.453C133.371 193.999 132.284 194.27 130.778 194.268C129.924 194.266 129.038 194.225 128.118 194.143L128.136 184.143L129.736 184.146L129.729 187.966ZM136.656 184.157L138.256 184.16L138.238 194.16L136.638 194.157L136.656 184.157ZM147.449 189.755L142.929 189.748L142.921 194.168L141.321 194.165L141.339 184.165L142.939 184.168L142.932 188.348L147.452 188.355L147.459 184.175L149.059 184.178L149.041 194.178L147.441 194.175L147.449 189.755ZM154.65 189.687L153.73 189.686L153.722 194.186L152.122 194.183L152.14 184.183L153.74 184.186L153.732 188.706L154.592 188.427L157.8 184.192L159.54 184.195L156.433 188.21L155.592 188.869L156.63 189.67L159.962 194.196L157.982 194.193L154.65 189.687ZM168.759 193.41C168.358 193.73 167.851 193.982 167.238 194.168C166.637 194.353 165.997 194.446 165.317 194.445C164.557 194.443 163.897 194.322 163.338 194.081C162.778 193.827 162.319 193.473 161.96 193.019C161.601 192.552 161.335 191.998 161.163 191.358C160.991 190.718 160.905 189.997 160.907 189.197C160.91 187.491 161.292 186.191 162.054 185.299C162.816 184.407 163.903 183.962 165.317 183.965C165.77 183.965 166.223 184.019 166.676 184.127C167.129 184.221 167.536 184.408 167.895 184.689C168.255 184.969 168.547 185.37 168.773 185.89C168.999 186.397 169.111 187.071 169.109 187.911C169.108 188.351 169.068 188.837 168.987 189.371L162.567 189.36C162.565 189.947 162.625 190.467 162.744 190.92C162.863 191.374 163.049 191.761 163.302 192.081C163.554 192.388 163.881 192.629 164.28 192.803C164.693 192.964 165.193 193.044 165.78 193.045C166.233 193.046 166.687 192.967 167.14 192.808C167.594 192.648 167.934 192.462 168.161 192.249L168.759 193.41ZM165.334 185.365C164.547 185.363 163.914 185.569 163.433 185.982C162.965 186.394 162.684 187.1 162.589 188.1L167.549 188.108C167.551 187.095 167.359 186.388 166.973 185.987C166.587 185.573 166.041 185.366 165.334 185.365Z" fill="#3A3939"/>
</svg>
