<svg width="212" height="241" viewBox="0 0 212 241" fill="none" xmlns="http://www.w3.org/2000/svg">
<path d="M212 0H0V241H212V0Z" fill="white"/>
<path d="M76.117 162.221C76.116 162.555 76.062 162.895 75.955 163.241C75.848 163.588 75.687 163.914 75.473 164.22C75.259 164.513 74.986 164.773 74.652 164.999C74.318 165.225 73.924 165.398 73.471 165.517V165.597C73.871 165.664 74.25 165.778 74.61 165.939C74.983 166.1 75.309 166.32 75.589 166.601C75.868 166.881 76.094 167.221 76.267 167.622C76.439 168.022 76.525 168.495 76.524 169.042C76.523 169.762 76.368 170.389 76.061 170.921C75.766 171.441 75.372 171.867 74.878 172.199C74.398 172.532 73.844 172.778 73.217 172.937C72.59 173.096 71.95 173.175 71.297 173.174C71.07 173.173 70.803 173.173 70.497 173.172C70.19 173.172 69.87 173.158 69.537 173.131C69.203 173.117 68.87 173.09 68.537 173.049C68.204 173.022 67.91 172.975 67.657 172.908L67.683 159.128C68.176 159.048 68.75 158.983 69.403 158.93C70.056 158.878 70.77 158.853 71.543 158.854C72.063 158.855 72.59 158.902 73.123 158.997C73.669 159.077 74.162 159.245 74.602 159.499C75.042 159.74 75.401 160.08 75.68 160.521C75.973 160.961 76.118 161.528 76.117 162.221ZM71.459 171.734C71.886 171.735 72.299 171.689 72.7 171.596C73.1 171.49 73.453 171.33 73.76 171.118C74.067 170.891 74.308 170.619 74.482 170.299C74.669 169.979 74.763 169.599 74.764 169.159C74.765 168.613 74.653 168.172 74.427 167.839C74.214 167.505 73.928 167.245 73.568 167.057C73.222 166.87 72.829 166.743 72.389 166.675C71.949 166.608 71.509 166.574 71.069 166.573L69.329 166.57L69.32 171.59C69.413 171.617 69.546 171.637 69.719 171.651C69.893 171.665 70.079 171.678 70.279 171.692C70.479 171.706 70.686 171.719 70.899 171.733C71.113 171.733 71.299 171.734 71.459 171.734ZM70.371 165.172C70.598 165.172 70.871 165.166 71.191 165.153C71.512 165.141 71.778 165.121 71.992 165.095C72.312 164.989 72.612 164.862 72.892 164.716C73.173 164.557 73.42 164.377 73.633 164.177C73.86 163.964 74.034 163.725 74.155 163.458C74.288 163.178 74.356 162.879 74.356 162.559C74.357 162.119 74.271 161.758 74.098 161.478C73.939 161.185 73.719 160.951 73.44 160.777C73.16 160.603 72.84 160.483 72.48 160.415C72.12 160.335 71.754 160.294 71.381 160.294C70.941 160.293 70.534 160.306 70.16 160.332C69.8 160.344 69.527 160.371 69.34 160.41L69.331 165.17L70.371 165.172ZM86.478 172.239C86.077 172.558 85.57 172.81 84.957 172.996C84.356 173.182 83.716 173.274 83.036 173.273C82.276 173.272 81.616 173.151 81.057 172.91C80.497 172.655 80.038 172.301 79.679 171.847C79.32 171.38 79.054 170.826 78.882 170.186C78.71 169.546 78.624 168.826 78.626 168.026C78.629 166.319 79.011 165.02 79.773 164.128C80.535 163.235 81.622 162.791 83.036 162.793C83.489 162.794 83.942 162.848 84.395 162.955C84.848 163.049 85.255 163.237 85.614 163.517C85.974 163.798 86.266 164.198 86.492 164.719C86.718 165.226 86.83 165.899 86.828 166.739C86.827 167.179 86.787 167.666 86.706 168.199L80.286 168.188C80.284 168.775 80.343 169.295 80.463 169.749C80.582 170.202 80.768 170.589 81.02 170.91C81.273 171.217 81.599 171.457 81.999 171.631C82.412 171.792 82.912 171.873 83.499 171.874C83.952 171.874 84.406 171.795 84.859 171.636C85.313 171.477 85.653 171.291 85.88 171.078L86.478 172.239ZM83.053 164.193C82.266 164.192 81.633 164.397 81.152 164.81C80.684 165.222 80.403 165.929 80.308 166.928L85.268 166.937C85.27 165.923 85.078 165.216 84.692 164.816C84.306 164.402 83.76 164.194 83.053 164.193ZM89.351 163.043L90.451 163.045L90.749 164.246H90.829C91.137 163.78 91.531 163.427 92.011 163.188C92.505 162.935 93.065 162.809 93.692 162.81C95.025 162.813 96.018 163.208 96.67 163.995C97.321 164.783 97.646 166.07 97.642 167.857C97.641 168.697 97.526 169.457 97.298 170.136C97.084 170.803 96.776 171.369 96.375 171.835C95.974 172.301 95.487 172.66 94.913 172.912C94.353 173.165 93.726 173.29 93.032 173.289C92.539 173.289 92.146 173.255 91.853 173.187C91.573 173.134 91.266 173.033 90.933 172.886L90.925 177.046L89.325 177.043L89.351 163.043ZM93.389 164.21C92.709 164.209 92.169 164.388 91.768 164.747C91.381 165.093 91.107 165.626 90.945 166.346L90.936 171.306C91.176 171.493 91.449 171.64 91.755 171.747C92.062 171.841 92.468 171.888 92.975 171.889C93.895 171.891 94.622 171.552 95.157 170.873C95.705 170.18 95.98 169.168 95.982 167.834C95.984 167.288 95.938 166.794 95.845 166.354C95.753 165.9 95.6 165.52 95.387 165.213C95.188 164.893 94.922 164.646 94.589 164.472C94.269 164.298 93.869 164.211 93.389 164.21ZM106.281 168.651L101.761 168.644L101.753 173.064L100.153 173.061L100.172 163.061L101.772 163.064L101.764 167.244L106.284 167.251L106.292 163.071L107.892 163.074L107.873 173.074L106.273 173.071L106.281 168.651ZM110.403 168.078C110.406 166.385 110.782 165.092 111.53 164.2C112.292 163.294 113.38 162.843 114.793 162.845C115.54 162.846 116.186 162.974 116.732 163.228C117.292 163.469 117.751 163.823 118.11 164.291C118.469 164.745 118.735 165.298 118.907 165.952C119.079 166.592 119.165 167.306 119.163 168.092C119.16 169.786 118.778 171.085 118.016 171.99C117.268 172.883 116.187 173.327 114.773 173.325C114.027 173.324 113.374 173.203 112.814 172.962C112.268 172.708 111.815 172.354 111.456 171.9C111.097 171.432 110.831 170.879 110.659 170.238C110.487 169.585 110.402 168.865 110.403 168.078ZM112.063 168.081C112.062 168.587 112.108 169.074 112.2 169.541C112.306 170.008 112.465 170.415 112.678 170.762C112.891 171.109 113.17 171.389 113.517 171.603C113.863 171.817 114.283 171.924 114.776 171.925C116.589 171.941 117.498 170.663 117.503 168.09C117.504 167.57 117.452 167.076 117.346 166.609C117.253 166.143 117.101 165.736 116.888 165.389C116.675 165.042 116.396 164.768 116.05 164.567C115.703 164.353 115.284 164.246 114.79 164.245C112.977 164.229 112.068 165.507 112.063 168.081ZM128.498 172.448C128.097 172.74 127.623 172.96 127.076 173.105C126.53 173.265 125.956 173.344 125.356 173.343C124.583 173.341 123.93 173.22 123.397 172.979C122.864 172.725 122.425 172.371 122.079 171.917C121.746 171.45 121.501 170.896 121.342 170.256C121.196 169.602 121.124 168.882 121.126 168.096C121.129 166.402 121.505 165.11 122.253 164.217C123.001 163.312 124.076 162.86 125.476 162.863C126.116 162.864 126.655 162.918 127.095 163.025C127.548 163.12 127.955 163.26 128.314 163.447L127.852 164.827C127.546 164.653 127.206 164.519 126.833 164.425C126.459 164.318 126.06 164.264 125.633 164.263C123.74 164.26 122.791 165.538 122.786 168.098C122.785 168.605 122.831 169.092 122.923 169.559C123.029 170.012 123.195 170.419 123.421 170.779C123.66 171.126 123.966 171.407 124.339 171.621C124.726 171.835 125.199 171.942 125.759 171.943C126.239 171.944 126.665 171.871 127.039 171.725C127.426 171.579 127.74 171.413 127.98 171.227L128.498 172.448ZM136.783 164.521L133.643 164.516L133.627 173.116L132.027 173.114L132.043 164.514L128.903 164.508L128.906 163.108L136.786 163.121L136.783 164.521ZM139.959 171.727C140.452 171.807 140.925 171.848 141.379 171.849C142.219 171.85 142.839 171.691 143.239 171.372C143.64 171.039 143.841 170.573 143.842 169.973C143.843 169.44 143.651 168.999 143.264 168.652C142.878 168.305 142.272 168.13 141.445 168.129C141.219 168.129 140.972 168.135 140.705 168.148C140.439 168.161 140.192 168.2 139.965 168.267L139.959 171.727ZM139.968 166.947C140.288 166.894 140.594 166.861 140.888 166.848C141.181 166.822 141.461 166.809 141.728 166.81C142.421 166.811 143.008 166.892 143.487 167.052C143.967 167.2 144.353 167.407 144.646 167.674C144.952 167.942 145.172 168.262 145.305 168.635C145.437 168.996 145.503 169.382 145.502 169.796C145.5 171.009 145.132 171.888 144.397 172.434C143.676 172.979 142.549 173.251 141.016 173.248C140.163 173.247 139.276 173.205 138.356 173.124L138.375 163.124L139.975 163.127L139.968 166.947ZM64.279 193.342C63.879 193.635 63.405 193.854 62.858 194C62.311 194.159 61.737 194.238 61.137 194.237C60.364 194.236 59.711 194.115 59.178 193.874C58.645 193.619 58.206 193.265 57.86 192.811C57.528 192.344 57.282 191.791 57.123 191.15C56.978 190.497 56.906 189.777 56.907 188.99C56.91 187.297 57.286 186.004 58.034 185.112C58.783 184.206 59.857 183.755 61.257 183.757C61.897 183.758 62.437 183.812 62.877 183.92C63.33 184.014 63.736 184.154 64.096 184.342L63.633 185.721C63.327 185.547 62.987 185.413 62.614 185.319C62.241 185.212 61.841 185.158 61.414 185.157C59.521 185.154 58.572 186.433 58.567 188.993C58.566 189.499 58.612 189.986 58.704 190.453C58.81 190.906 58.976 191.313 59.202 191.674C59.442 192.021 59.748 192.301 60.121 192.515C60.507 192.729 60.98 192.837 61.54 192.838C62.02 192.838 62.447 192.766 62.82 192.62C63.207 192.474 63.521 192.307 63.761 192.121L64.279 193.342ZM72.565 185.416L69.425 185.41L69.409 194.01L67.809 194.008L67.825 185.408L64.685 185.403L64.687 184.003L72.567 184.016L72.565 185.416ZM73.995 184.758C74.502 184.452 75.089 184.226 75.756 184.081C76.436 183.935 77.143 183.863 77.876 183.864C78.57 183.866 79.123 183.96 79.536 184.147C79.962 184.335 80.282 184.582 80.495 184.889C80.721 185.182 80.867 185.509 80.933 185.869C81.012 186.23 81.051 186.59 81.051 186.95C81.049 187.75 81.028 188.53 80.986 189.29C80.945 190.049 80.924 190.769 80.922 191.449C80.921 191.943 80.941 192.409 80.98 192.85C81.019 193.29 81.091 193.696 81.197 194.07L80.017 194.068L79.6 192.667H79.5C79.38 192.854 79.226 193.04 79.039 193.226C78.865 193.399 78.652 193.559 78.398 193.705C78.145 193.838 77.851 193.951 77.517 194.044C77.184 194.137 76.804 194.183 76.377 194.182C75.951 194.181 75.551 194.114 75.178 193.98C74.818 193.846 74.505 193.659 74.239 193.418C73.972 193.165 73.76 192.864 73.6 192.517C73.454 192.17 73.382 191.777 73.383 191.337C73.384 190.75 73.505 190.264 73.745 189.878C73.986 189.478 74.32 189.165 74.747 188.939C75.187 188.7 75.708 188.534 76.308 188.442C76.921 188.336 77.595 188.284 78.328 188.285C78.515 188.285 78.695 188.286 78.868 188.286C79.055 188.286 79.241 188.3 79.428 188.327C79.469 187.927 79.49 187.567 79.49 187.247C79.491 186.514 79.346 186 79.053 185.706C78.76 185.413 78.227 185.265 77.454 185.264C77.227 185.263 76.98 185.283 76.714 185.322C76.46 185.349 76.194 185.395 75.913 185.461C75.647 185.514 75.387 185.587 75.133 185.68C74.893 185.759 74.679 185.852 74.493 185.959L73.995 184.758ZM76.82 192.783C77.193 192.783 77.527 192.737 77.82 192.644C78.114 192.538 78.367 192.412 78.581 192.266C78.794 192.106 78.968 191.933 79.102 191.746C79.249 191.56 79.356 191.38 79.423 191.207L79.426 189.547C79.239 189.533 79.046 189.526 78.846 189.526C78.659 189.512 78.473 189.505 78.286 189.505C77.873 189.504 77.466 189.53 77.066 189.583C76.679 189.622 76.332 189.709 76.025 189.841C75.732 189.961 75.491 190.134 75.304 190.36C75.131 190.573 75.043 190.846 75.043 191.18C75.042 191.646 75.208 192.033 75.541 192.341C75.873 192.634 76.3 192.782 76.82 192.783ZM90.188 189.625L85.668 189.617L85.659 194.037L84.059 194.035L84.078 184.035L85.678 184.037L85.67 188.217L90.19 188.225L90.198 184.045L91.798 184.047L91.779 194.047L90.179 194.045L90.188 189.625ZM103.695 196.607L102.615 196.605L102.32 194.065L94.8 194.052L94.495 196.592L93.415 196.59L93.423 192.65L94.603 192.652C94.71 192.505 94.85 192.246 95.024 191.873C95.198 191.486 95.366 190.953 95.527 190.273C95.702 189.58 95.85 188.727 95.972 187.714C96.107 186.688 96.189 185.468 96.219 184.055L102.259 184.065L102.243 192.665L103.703 192.667L103.695 196.607ZM100.643 192.662L100.656 185.462L97.656 185.457C97.628 186.017 97.581 186.63 97.513 187.297C97.445 187.95 97.35 188.61 97.229 189.276C97.121 189.929 96.98 190.549 96.806 191.136C96.631 191.722 96.43 192.228 96.203 192.655L100.643 192.662ZM105.538 184.81C106.045 184.504 106.632 184.278 107.299 184.133C107.979 183.987 108.686 183.915 109.419 183.916C110.113 183.917 110.666 184.012 111.079 184.199C111.505 184.386 111.825 184.634 112.037 184.941C112.264 185.234 112.41 185.561 112.476 185.921C112.555 186.282 112.594 186.642 112.594 187.002C112.592 187.802 112.571 188.582 112.529 189.341C112.488 190.101 112.467 190.821 112.465 191.501C112.464 191.995 112.483 192.461 112.523 192.901C112.562 193.342 112.634 193.748 112.74 194.122L111.56 194.12L111.143 192.719H111.043C110.923 192.906 110.769 193.092 110.582 193.278C110.408 193.451 110.195 193.611 109.941 193.757C109.687 193.89 109.394 194.003 109.06 194.096C108.727 194.189 108.347 194.235 107.92 194.234C107.493 194.233 107.094 194.166 106.721 194.032C106.361 193.898 106.048 193.711 105.782 193.47C105.515 193.217 105.303 192.916 105.143 192.569C104.997 192.222 104.925 191.829 104.925 191.389C104.927 190.802 105.047 190.316 105.288 189.93C105.529 189.53 105.863 189.217 106.29 188.991C106.73 188.752 107.251 188.586 107.851 188.494C108.464 188.388 109.138 188.336 109.871 188.337C110.058 188.337 110.238 188.338 110.411 188.338C110.598 188.338 110.784 188.352 110.971 188.379C111.012 187.979 111.032 187.619 111.033 187.299C111.034 186.566 110.889 186.052 110.596 185.758C110.303 185.464 109.77 185.317 108.997 185.316C108.77 185.315 108.523 185.335 108.257 185.374C108.003 185.401 107.736 185.447 107.456 185.513C107.19 185.566 106.929 185.639 106.676 185.732C106.436 185.811 106.222 185.904 106.035 186.011L105.538 184.81ZM108.363 192.835C108.736 192.835 109.07 192.789 109.363 192.696C109.657 192.59 109.91 192.464 110.124 192.318C110.337 192.158 110.511 191.985 110.645 191.798C110.792 191.612 110.899 191.432 110.966 191.259L110.969 189.599C110.782 189.585 110.589 189.578 110.389 189.578C110.202 189.564 110.016 189.557 109.829 189.557C109.416 189.556 109.009 189.582 108.609 189.635C108.222 189.674 107.875 189.76 107.568 189.893C107.275 190.013 107.034 190.186 106.847 190.412C106.674 190.625 106.586 190.898 106.586 191.232C106.585 191.698 106.751 192.085 107.084 192.393C107.416 192.686 107.843 192.834 108.363 192.835ZM115.621 184.087L116.721 184.088L117.019 185.289H117.099C117.406 184.823 117.8 184.47 118.281 184.231C118.774 183.978 119.335 183.853 119.961 183.854C121.295 183.856 122.287 184.251 122.939 185.039C123.591 185.826 123.915 187.114 123.912 188.9C123.91 189.74 123.796 190.5 123.568 191.18C123.353 191.846 123.045 192.412 122.645 192.878C122.244 193.344 121.756 193.703 121.183 193.956C120.622 194.208 119.995 194.334 119.302 194.333C118.809 194.332 118.415 194.298 118.122 194.231C117.842 194.177 117.536 194.076 117.203 193.929L117.195 198.089L115.595 198.087L115.621 184.087ZM119.659 185.253C118.979 185.252 118.438 185.431 118.038 185.791C117.65 186.137 117.376 186.669 117.215 187.389L117.206 192.349C117.445 192.536 117.718 192.683 118.025 192.791C118.331 192.884 118.738 192.932 119.244 192.933C120.164 192.934 120.892 192.595 121.426 191.916C121.974 191.224 122.25 190.211 122.252 188.877C122.253 188.331 122.207 187.837 122.115 187.397C122.022 186.944 121.87 186.564 121.657 186.257C121.457 185.936 121.191 185.689 120.858 185.515C120.539 185.341 120.139 185.254 119.659 185.253ZM132.506 185.514L129.366 185.509L129.35 194.109L127.75 194.107L127.766 185.507L124.626 185.501L124.629 184.101L132.509 184.114L132.506 185.514ZM133.936 184.857C134.443 184.551 135.03 184.325 135.697 184.18C136.378 184.034 137.084 183.962 137.818 183.963C138.511 183.964 139.064 184.058 139.477 184.246C139.904 184.433 140.223 184.68 140.436 184.987C140.662 185.281 140.808 185.608 140.874 185.968C140.953 186.328 140.993 186.688 140.992 187.048C140.991 187.848 140.969 188.628 140.928 189.388C140.886 190.148 140.865 190.868 140.864 191.548C140.863 192.041 140.882 192.508 140.921 192.948C140.96 193.388 141.033 193.795 141.139 194.169L139.959 194.167L139.541 192.766H139.441C139.321 192.952 139.167 193.139 138.98 193.325C138.807 193.498 138.593 193.658 138.339 193.804C138.086 193.937 137.792 194.05 137.459 194.143C137.125 194.235 136.745 194.281 136.319 194.281C135.892 194.28 135.492 194.213 135.119 194.079C134.759 193.945 134.446 193.758 134.18 193.517C133.914 193.263 133.701 192.963 133.542 192.616C133.396 192.269 133.323 191.876 133.324 191.436C133.325 190.849 133.446 190.363 133.687 189.976C133.927 189.577 134.261 189.264 134.688 189.038C135.129 188.799 135.649 188.633 136.249 188.541C136.863 188.435 137.536 188.383 138.27 188.384C138.456 188.384 138.636 188.384 138.81 188.385C138.996 188.385 139.183 188.399 139.369 188.426C139.41 188.026 139.431 187.666 139.431 187.346C139.433 186.612 139.287 186.099 138.994 185.805C138.702 185.511 138.168 185.364 137.395 185.362C137.168 185.362 136.922 185.382 136.655 185.421C136.402 185.447 136.135 185.494 135.855 185.56C135.588 185.613 135.328 185.686 135.074 185.779C134.834 185.858 134.621 185.951 134.434 186.058L133.936 184.857ZM136.761 192.881C137.134 192.882 137.468 192.836 137.761 192.743C138.055 192.637 138.309 192.511 138.522 192.364C138.736 192.205 138.909 192.032 139.043 191.845C139.19 191.659 139.297 191.479 139.364 191.306L139.367 189.646C139.181 189.632 138.987 189.625 138.787 189.625C138.601 189.611 138.414 189.604 138.227 189.604C137.814 189.603 137.407 189.629 137.007 189.682C136.62 189.721 136.274 189.807 135.967 189.94C135.673 190.06 135.433 190.233 135.246 190.459C135.072 190.672 134.985 190.945 134.984 191.278C134.983 191.745 135.149 192.132 135.482 192.439C135.815 192.733 136.241 192.881 136.761 192.881ZM152.272 188.207L152.395 186.307H152.295L151.572 187.846L149.145 191.762L148.585 191.761L146.072 187.837L145.415 186.296L145.335 186.295L145.492 188.176L145.481 194.136L144.001 194.133L144.019 184.133L145.599 184.136L148.391 188.621L148.969 189.781L149.009 189.782L149.611 188.583L152.239 184.147L153.839 184.149L153.821 194.149L152.261 194.147L152.272 188.207Z" fill="#3A3939"/>
<path d="M140.958 58.925L131.348 47.7251C131.33 47.7039 131.311 47.6834 131.291 47.6637C130.452 46.8245 129.091 46.7749 128.193 47.5504L120.535 54.163C120.081 54.555 119.806 55.101 119.762 55.7C119.719 56.298 119.911 56.878 120.303 57.333L120.603 57.68L120.109 58.107C118.798 59.239 116.825 59.577 114.832 59.012C114.792 59.001 109.12 57.391 109.079 57.382C108.045 57.141 105.371 56.762 102.817 58.41C102.775 58.434 88.14 66.81 88.101 66.836C86.765 67.706 84.904 69.882 86.405 72.515C86.411 72.526 86.417 72.536 86.423 72.546C87.066 73.594 87.993 74.219 89.074 74.392C89.115 75.467 89.593 76.497 90.445 77.235C92.1 78.667 94.613 78.486 96.046 76.831L101.47 70.564C101.69 70.31 101.874 70.031 102.022 69.732L102.246 69.64C102.539 70.736 103.338 71.828 104.971 72.291C111.777 74.221 113.194 74.78 115.099 74.57C120.411 74 121.629 73.826 124.304 72.286C126.229 71.179 128.102 69.884 129.885 68.431L130.211 68.809C131.025 69.75 132.444 69.852 133.382 69.041L140.672 62.747C141.801 61.772 141.929 60.057 140.958 58.925ZM94.384 75.393C93.286 76.662 91.211 75.82 91.272 74.174C91.272 74.174 97.763 71.488 97.764 71.488L94.384 75.393ZM123.208 70.382C120.932 71.692 120.166 71.816 114.888 72.382C113.443 72.537 112.31 72.088 105.571 70.177C104.708 69.932 104.483 69.47 104.388 69.145C104.259 68.699 104.341 68.274 104.341 68.274C104.342 68.269 104.342 68.264 104.344 68.259C104.346 68.249 104.348 68.24 104.35 68.23C104.351 68.228 104.42 67.934 104.609 67.678C104.773 67.457 105.019 67.242 105.609 67.324C107.688 67.61 112.639 68.272 112.689 68.278C113.292 68.359 113.843 67.936 113.923 67.335C114.004 66.734 113.582 66.181 112.98 66.1C112.93 66.094 107.984 65.432 105.909 65.147C103.966 64.879 102.822 66.079 102.371 67.212L100.768 67.873C88.119 73.088 90.971 71.956 90.032 72.227C88.265 72.475 87.054 70.175 89.276 68.693L103.933 60.303C103.934 60.303 103.935 60.302 103.936 60.302C103.954 60.291 103.971 60.281 103.988 60.27C105.824 59.075 107.777 59.339 108.557 59.517L114.233 61.127C116.939 61.894 119.673 61.387 121.545 59.77L122.039 59.344C122.877 60.314 127.705 65.905 128.449 66.768C126.772 68.13 125.013 69.343 123.208 70.382ZM139.236 61.083C139.212 61.103 131.94 67.393 131.91 67.39C131.867 67.387 121.906 55.883 121.971 55.826L129.629 49.2137C129.644 49.201 129.662 49.1947 129.681 49.1947C129.696 49.1947 129.711 49.1988 129.723 49.207L139.29 60.356C139.475 60.572 139.451 60.898 139.236 61.083Z" fill="#E18C44"/>
<path d="M122.138 94.6589C122.006 91.1149 117.535 89.4839 115.167 92.2199L109.742 98.4869C109.522 98.7409 109.338 99.0199 109.19 99.3179L108.967 99.4109C108.674 98.3139 107.875 97.2229 106.241 96.7599C99.037 94.7159 98.098 94.3069 96.135 94.4789C96.128 94.4799 96.121 94.4799 96.114 94.4809C90.802 95.0509 89.584 95.2249 86.909 96.7639C84.984 97.8719 83.111 99.1669 81.328 100.62L81.001 100.242C80.191 99.3039 78.769 99.1999 77.831 100.01L70.144 106.647C69.229 107.437 69.133 108.819 69.931 109.729L80.061 121.273C80.819 122.137 82.139 122.246 83 121.518C83.003 121.514 83.016 121.503 83.02 121.5L90.678 114.888C91.618 114.076 91.722 112.658 90.91 111.718L90.61 111.37L91.104 110.944C92.415 109.812 94.388 109.473 96.381 110.038L101.476 111.484C102.06 111.649 102.668 111.31 102.833 110.726C102.999 110.142 102.66 109.535 102.076 109.369L96.981 107.924C94.274 107.157 91.54 107.664 89.668 109.281L89.174 109.707L82.764 102.283C84.441 100.921 86.2 99.7079 88.005 98.6689C90.283 97.3579 91.048 97.2339 96.337 96.6669C97.574 96.5599 98.347 96.7819 102.585 97.9999C105.869 98.9429 106.547 98.9479 106.825 99.9059C106.954 100.351 106.872 100.776 106.872 100.776C106.818 101.013 106.716 101.221 106.604 101.372C106.44 101.593 106.193 101.808 105.604 101.727C103.525 101.441 98.574 100.779 98.524 100.772C97.921 100.692 97.37 101.114 97.29 101.716C97.209 102.317 97.632 102.87 98.233 102.95C98.283 102.957 103.229 103.618 105.304 103.904C107.021 104.14 108.293 103.217 108.842 101.839C108.897 101.816 119.907 97.2789 119.959 97.2519C121.12 96.6629 122.216 96.5279 122.907 97.6379C123.703 99.0599 122.292 100.12 121.937 100.357L107.28 108.747C107.274 108.751 107.267 108.755 107.261 108.759C107.249 108.765 107.236 108.774 107.225 108.781C106.982 108.939 106.724 109.08 106.455 109.199C105.901 109.447 105.653 110.097 105.9 110.651C106.148 111.205 106.798 111.453 107.352 111.206C107.717 111.043 108.07 110.851 108.398 110.639C108.441 110.615 123.07 102.242 123.112 102.214C127.097 99.6199 125.18 95.1449 122.138 94.6589ZM89.247 113.154C89.251 113.158 89.261 113.169 89.259 113.19C89.257 113.222 81.688 119.747 81.664 119.768L71.597 108.296L79.267 101.673C79.272 101.669 79.284 101.658 79.303 101.661C79.324 101.662 79.334 101.673 79.338 101.678C80.373 102.876 88.186 111.925 89.247 113.154ZM113.449 97.5619L116.829 93.6579C117.914 92.4039 120.002 93.2089 119.941 94.8769C119.941 94.8769 113.45 97.5619 113.449 97.5619Z" fill="#E18C44"/>
<path d="M104.349 81.1428C104.555 81.5048 105.161 81.9908 105.879 81.9738C106.472 81.9598 107.022 81.6058 107.319 81.1268C108.734 78.8528 111.695 79.3658 112.579 81.4358C112.818 81.9938 113.463 82.2528 114.021 82.0148C114.579 81.7758 114.839 81.1308 114.6 80.5728C113.1 77.0598 108.315 76.2638 105.834 79.4218C102.827 75.5688 96.647 77.7578 96.652 82.5988C96.657 87.6888 101.064 91.5818 105.187 93.5278C105.612 93.7278 106.095 93.7178 106.498 93.5268C109.462 92.1198 112.614 89.6248 114.072 86.6108C114.337 86.0648 114.108 85.4068 113.562 85.1428C113.015 84.8778 112.358 85.1068 112.094 85.6538C110.906 88.1088 108.274 90.1758 105.839 91.4018C102.41 89.7058 98.854 86.5508 98.85 82.5968C98.847 79.6148 102.848 78.5018 104.349 81.1428Z" fill="#4D64AA"/>
</svg>
