<svg width="212" height="241" viewBox="0 0 212 241" fill="none" xmlns="http://www.w3.org/2000/svg">
<path d="M212 0H0V241H212V0Z" fill="white"/>
<path d="M132.829 57.061H88.858C85.042 57.061 81.937 59.91 81.937 63.401L81.654 99.273H73.073C72.465 99.273 72 99.771 72 100.335V105.272C72 109.893 75.992 113.673 80.81 113.88V113.939H117.838V113.872C118.113 113.883 118.28 113.939 118.469 113.939H118.496C123.634 113.911 127.776 110.031 127.749 105.271V73.895H138.927C139.535 73.895 140 73.384 140 72.822V63.763C140.007 60.082 136.803 57.087 132.829 57.061ZM81.291 111.899H81.284C77.367 111.899 74.202 108.899 74.202 105.271V101.314H109.166V105.254C109.157 107.55 110.137 109.755 111.887 111.381C112.073 111.554 112.267 111.644 112.466 111.899H81.291ZM125.547 105.27C125.547 108.899 122.413 111.899 118.494 111.899H118.471C114.533 111.872 111.359 108.903 111.368 105.254V100.335C111.372 99.763 110.884 99.293 110.267 99.273H83.856L84.14 63.408C84.14 61.035 86.256 59.101 88.858 59.101H127.63C126.375 60.376 125.547 61.99 125.547 63.791V105.27ZM137.798 63.781V71.854H127.749V63.789C127.749 61.235 130.042 59.101 132.797 59.101H132.828C135.59 59.126 137.81 61.214 137.798 63.774V63.781Z" fill="#E18C44"/>
<path d="M97.858 82.1731L103.536 85.7701C103.906 86.0061 104.396 86.0061 104.767 85.7701L110.427 82.1741C112.394 80.9311 113.846 78.3331 113.846 76.1301V68.8531C113.858 68.4691 113.629 68.1121 113.259 67.9371L104.614 63.9981C104.311 63.8581 103.955 63.8581 103.652 63.9981L95.023 67.9261C94.653 68.1011 94.425 68.4581 94.437 68.8421V76.1301C94.437 78.3331 95.893 80.9311 97.858 82.1731ZM96.639 69.4791L104.141 66.0501L111.643 69.4881V76.1301C111.643 77.6661 110.556 79.6211 109.185 80.4871L104.129 83.6911L99.092 80.4881C97.721 79.6211 96.639 77.6661 96.639 76.1301V69.4791Z" fill="#4D64AA"/>
<path d="M102.279 77.67C102.485 77.864 102.765 77.974 103.059 77.976H103.062C103.354 77.975 103.634 77.866 103.84 77.674L108.221 73.614C108.652 73.215 108.652 72.568 108.221 72.17C107.792 71.771 107.094 71.771 106.664 72.169L103.065 75.503L101.627 74.157C101.199 73.757 100.501 73.754 100.069 74.151C99.636 74.548 99.634 75.194 100.062 75.594L102.279 77.67Z" fill="#4D64AA"/>
<path d="M117.838 88.688H91.409C90.801 88.688 90.308 89.145 90.308 89.709C90.308 90.272 90.801 90.729 91.409 90.729H117.838C118.446 90.729 118.939 90.272 118.939 89.709C118.939 89.145 118.446 88.688 117.838 88.688Z" fill="#4D64AA"/>
<path d="M117.838 93.4072H91.409C90.801 93.4072 90.308 93.8642 90.308 94.4272C90.308 94.9902 90.801 95.4472 91.409 95.4472H117.838C118.446 95.4472 118.939 94.9902 118.939 94.4272C118.939 93.8642 118.446 93.4072 117.838 93.4072Z" fill="#4D64AA"/>
<path d="M76.655 160.502L70.815 160.493L70.792 173.013L69.132 173.01L69.158 159.01L76.658 159.022L76.655 160.502ZM75.47 163.76C75.977 163.455 76.564 163.229 77.231 163.083C77.911 162.938 78.618 162.866 79.351 162.867C80.045 162.868 80.598 162.962 81.011 163.15C81.437 163.337 81.757 163.584 81.969 163.891C82.195 164.185 82.342 164.512 82.408 164.872C82.487 165.232 82.526 165.592 82.525 165.952C82.524 166.752 82.503 167.532 82.461 168.292C82.42 169.052 82.398 169.772 82.397 170.452C82.396 170.945 82.415 171.412 82.455 171.852C82.494 172.292 82.566 172.699 82.672 173.072L81.492 173.07L81.075 171.67H80.975C80.855 171.856 80.701 172.042 80.514 172.229C80.34 172.402 80.127 172.561 79.873 172.708C79.619 172.841 79.326 172.954 78.992 173.046C78.659 173.139 78.279 173.185 77.852 173.184C77.425 173.184 77.025 173.116 76.652 172.982C76.293 172.849 75.98 172.661 75.713 172.421C75.447 172.167 75.234 171.867 75.075 171.52C74.929 171.173 74.857 170.779 74.857 170.339C74.858 169.753 74.979 169.266 75.22 168.88C75.461 168.48 75.795 168.168 76.222 167.942C76.662 167.702 77.183 167.537 77.783 167.444C78.396 167.339 79.07 167.286 79.803 167.288C79.99 167.288 80.17 167.288 80.343 167.289C80.53 167.289 80.716 167.302 80.903 167.329C80.944 166.93 80.964 166.57 80.965 166.25C80.966 165.516 80.821 165.003 80.528 164.709C80.235 164.415 79.702 164.267 78.929 164.266C78.702 164.266 78.455 164.285 78.189 164.325C77.935 164.351 77.668 164.397 77.388 164.464C77.121 164.517 76.861 164.589 76.608 164.682C76.368 164.762 76.154 164.855 75.967 164.961L75.47 163.76ZM78.295 171.785C78.668 171.786 79.001 171.74 79.295 171.647C79.588 171.541 79.842 171.414 80.056 171.268C80.269 171.108 80.443 170.935 80.577 170.749C80.724 170.562 80.831 170.383 80.898 170.209L80.901 168.549C80.714 168.536 80.521 168.529 80.321 168.528C80.134 168.515 79.947 168.508 79.761 168.508C79.347 168.507 78.941 168.533 78.541 168.586C78.154 168.625 77.807 168.711 77.5 168.844C77.207 168.963 76.966 169.136 76.779 169.363C76.605 169.576 76.518 169.849 76.518 170.182C76.517 170.649 76.683 171.036 77.015 171.343C77.348 171.637 77.775 171.784 78.295 171.785ZM85.553 163.037L86.653 163.039L86.951 164.239L87.031 164.24C87.338 163.773 87.732 163.421 88.213 163.181C88.706 162.929 89.267 162.803 89.893 162.804C91.227 162.806 92.219 163.201 92.871 163.989C93.523 164.777 93.847 166.064 93.844 167.851C93.842 168.691 93.728 169.451 93.5 170.13C93.285 170.796 92.977 171.363 92.576 171.829C92.176 172.295 91.688 172.654 91.114 172.906C90.554 173.159 89.927 173.284 89.234 173.283C88.74 173.282 88.347 173.248 88.054 173.181C87.774 173.127 87.468 173.027 87.134 172.88L87.127 177.04L85.527 177.037L85.553 163.037ZM89.591 164.204C88.911 164.203 88.37 164.382 87.97 164.741C87.582 165.087 87.308 165.62 87.147 166.34L87.137 171.3C87.377 171.487 87.65 171.634 87.957 171.741C88.263 171.835 88.67 171.882 89.176 171.883C90.096 171.885 90.824 171.546 91.358 170.867C91.906 170.174 92.181 169.161 92.184 167.828C92.185 167.281 92.139 166.788 92.047 166.348C91.954 165.894 91.802 165.514 91.589 165.207C91.389 164.887 91.123 164.64 90.79 164.466C90.47 164.292 90.071 164.205 89.591 164.204ZM96.212 163.795C96.719 163.489 97.306 163.263 97.973 163.118C98.653 162.972 99.36 162.9 100.093 162.901C100.787 162.902 101.34 162.996 101.753 163.184C102.179 163.371 102.499 163.618 102.711 163.925C102.938 164.219 103.084 164.546 103.15 164.906C103.229 165.266 103.268 165.626 103.268 165.986C103.266 166.786 103.245 167.566 103.203 168.326C103.162 169.086 103.141 169.806 103.139 170.486C103.138 170.979 103.158 171.446 103.197 171.886C103.236 172.326 103.308 172.733 103.414 173.107L102.234 173.105L101.817 171.704H101.717C101.597 171.89 101.443 172.077 101.256 172.263C101.082 172.436 100.869 172.596 100.615 172.742C100.362 172.875 100.068 172.988 99.734 173.08C99.401 173.173 99.021 173.219 98.594 173.219C98.168 173.218 97.768 173.151 97.395 173.017C97.035 172.883 96.722 172.695 96.456 172.455C96.189 172.201 95.977 171.901 95.817 171.554C95.671 171.207 95.599 170.814 95.599 170.374C95.601 169.787 95.721 169.301 95.962 168.914C96.203 168.515 96.537 168.202 96.964 167.976C97.404 167.737 97.925 167.571 98.525 167.478C99.138 167.373 99.812 167.321 100.545 167.322C100.732 167.322 100.912 167.322 101.085 167.323C101.272 167.323 101.458 167.337 101.645 167.364C101.686 166.964 101.707 166.604 101.707 166.284C101.708 165.55 101.563 165.037 101.27 164.743C100.977 164.449 100.444 164.302 99.671 164.3C99.444 164.3 99.197 164.32 98.931 164.359C98.677 164.385 98.411 164.432 98.13 164.498C97.864 164.551 97.604 164.624 97.35 164.717C97.11 164.796 96.896 164.889 96.709 164.995L96.212 163.795ZM99.037 171.819C99.41 171.82 99.744 171.774 100.037 171.681C100.331 171.575 100.584 171.449 100.798 171.302C101.011 171.143 101.185 170.97 101.319 170.783C101.466 170.597 101.573 170.417 101.64 170.244L101.643 168.584C101.456 168.57 101.263 168.563 101.063 168.563C100.876 168.549 100.69 168.542 100.503 168.542C100.09 168.541 99.683 168.567 99.283 168.62C98.896 168.659 98.549 168.745 98.242 168.878C97.949 168.998 97.708 169.17 97.521 169.397C97.348 169.61 97.26 169.883 97.26 170.216C97.259 170.683 97.425 171.07 97.758 171.377C98.09 171.671 98.517 171.818 99.037 171.819ZM112.405 168.661L107.885 168.654L107.876 173.074L106.276 173.071L106.295 163.071L107.895 163.074L107.887 167.254L112.407 167.261L112.415 163.081L114.015 163.084L113.996 173.084L112.396 173.081L112.405 168.661ZM123.473 164.5L120.333 164.494L120.317 173.094L118.717 173.092L118.733 164.492L115.593 164.487L115.596 163.087L123.476 163.1L123.473 164.5ZM131.297 167.192L131.359 165.953L131.299 165.952L130.477 167.231L125.966 173.104L125.046 173.102L125.064 163.102L126.664 163.105L126.653 169.205L126.591 170.385H126.671L127.453 169.146L131.964 163.114L132.904 163.115L132.886 173.115L131.286 173.112L131.297 167.192ZM140.952 168.988L139.411 169.226L136.764 173.121L134.824 173.118L137.23 169.702L138.032 168.964C137.338 168.856 136.746 168.575 136.253 168.121C135.774 167.666 135.535 167.053 135.537 166.279C135.538 165.679 135.639 165.166 135.839 164.74C136.054 164.314 136.354 163.961 136.741 163.681C137.129 163.402 137.589 163.203 138.122 163.084C138.656 162.951 139.256 162.886 139.923 162.887C140.416 162.887 140.876 162.922 141.303 162.989C141.729 163.056 142.149 163.13 142.562 163.211L142.544 173.131L140.944 173.128L140.952 168.988ZM140.96 164.488C140.787 164.421 140.593 164.374 140.38 164.347C140.167 164.307 139.98 164.287 139.82 164.286C138.967 164.285 138.313 164.437 137.859 164.743C137.419 165.049 137.198 165.535 137.197 166.202C137.196 166.802 137.428 167.269 137.894 167.603C138.373 167.924 139 168.085 139.773 168.086C139.787 168.086 139.807 168.086 139.833 168.086C139.86 168.087 139.913 168.087 139.993 168.087C140.073 168.087 140.187 168.087 140.333 168.087C140.48 168.074 140.687 168.061 140.953 168.048L140.96 164.488Z" fill="#3A3939"/>
</svg>
