<svg width="923" height="580" viewBox="0 0 923 580" fill="none" xmlns="http://www.w3.org/2000/svg">
<path d="M1.53 29.4H8.388V30.732H3.024V35.034H8.028V36.366H3.024V42H1.53V29.4ZM10.1808 37.5C10.1808 35.976 10.5168 34.812 11.1888 34.008C11.8728 33.192 12.8508 32.784 14.1228 32.784C14.7948 32.784 15.3768 32.898 15.8688 33.126C16.3728 33.342 16.7868 33.66 17.1108 34.08C17.4348 34.488 17.6748 34.986 17.8308 35.574C17.9868 36.15 18.0648 36.792 18.0648 37.5C18.0648 39.024 17.7228 40.194 17.0388 41.01C16.3668 41.814 15.3948 42.216 14.1228 42.216C13.4508 42.216 12.8628 42.108 12.3588 41.892C11.8668 41.664 11.4588 41.346 11.1348 40.938C10.8108 40.518 10.5708 40.02 10.4148 39.444C10.2588 38.856 10.1808 38.208 10.1808 37.5ZM11.6748 37.5C11.6748 37.956 11.7168 38.394 11.8008 38.814C11.8968 39.234 12.0408 39.6 12.2328 39.912C12.4248 40.224 12.6768 40.476 12.9888 40.668C13.3008 40.86 13.6788 40.956 14.1228 40.956C15.7548 40.968 16.5708 39.816 16.5708 37.5C16.5708 37.032 16.5228 36.588 16.4268 36.168C16.3428 35.748 16.2048 35.382 16.0128 35.07C15.8208 34.758 15.5688 34.512 15.2568 34.332C14.9448 34.14 14.5668 34.044 14.1228 34.044C12.4908 34.032 11.6748 35.184 11.6748 37.5ZM26.1132 42V36.87C26.1132 35.934 25.9752 35.232 25.6992 34.764C25.4352 34.284 24.9432 34.044 24.2232 34.044C23.5872 34.044 23.0592 34.218 22.6392 34.566C22.2312 34.902 21.9432 35.328 21.7752 35.844V42H20.3352V33H21.3432L21.6132 34.098H21.6852C21.9732 33.714 22.3572 33.402 22.8372 33.162C23.3292 32.91 23.9112 32.784 24.5832 32.784C25.0752 32.784 25.5072 32.844 25.8792 32.964C26.2512 33.072 26.5572 33.27 26.7972 33.558C27.0492 33.846 27.2352 34.236 27.3552 34.728C27.4872 35.208 27.5532 35.82 27.5532 36.564V42H26.1132ZM28.991 33H30.395V31.218L31.835 30.804V33H34.283V34.26H31.835V39.246C31.835 39.87 31.913 40.314 32.069 40.578C32.225 40.83 32.489 40.956 32.861 40.956C33.173 40.956 33.437 40.926 33.653 40.866C33.869 40.794 34.109 40.704 34.373 40.596L34.697 41.694C34.373 41.85 34.019 41.976 33.635 42.072C33.251 42.168 32.837 42.216 32.393 42.216C31.661 42.216 31.145 42.012 30.845 41.604C30.545 41.184 30.395 40.488 30.395 39.516V34.26H28.991V33ZM40.2386 39.552C40.2386 39.192 40.1306 38.91 39.9146 38.706C39.6986 38.502 39.4286 38.334 39.1046 38.202C38.7926 38.058 38.4446 37.926 38.0606 37.806C37.6886 37.674 37.3406 37.512 37.0166 37.32C36.7046 37.116 36.4406 36.858 36.2246 36.546C36.0086 36.234 35.9006 35.814 35.9006 35.286C35.9006 34.422 36.1466 33.792 36.6386 33.396C37.1306 32.988 37.8146 32.784 38.6906 32.784C39.3386 32.784 39.8786 32.844 40.3106 32.964C40.7546 33.072 41.1386 33.204 41.4626 33.36L41.1206 34.548C40.8446 34.416 40.5086 34.302 40.1126 34.206C39.7286 34.098 39.3146 34.044 38.8706 34.044C38.3426 34.044 37.9526 34.134 37.7006 34.314C37.4606 34.494 37.3406 34.806 37.3406 35.25C37.3406 35.562 37.4486 35.808 37.6646 35.988C37.8806 36.156 38.1446 36.312 38.4566 36.456C38.7806 36.588 39.1286 36.72 39.5006 36.852C39.8846 36.984 40.2326 37.158 40.5446 37.374C40.8686 37.59 41.1386 37.866 41.3546 38.202C41.5706 38.526 41.6786 38.958 41.6786 39.498C41.6786 39.882 41.6126 40.242 41.4806 40.578C41.3606 40.914 41.1686 41.202 40.9046 41.442C40.6406 41.682 40.3106 41.868 39.9146 42C39.5306 42.144 39.0746 42.216 38.5466 42.216C37.8626 42.216 37.2806 42.15 36.8006 42.018C36.3206 41.886 35.9186 41.73 35.5946 41.55L36.0266 40.326C36.3026 40.482 36.6626 40.626 37.1066 40.758C37.5506 40.89 38.0006 40.956 38.4566 40.956C38.9726 40.956 39.3986 40.854 39.7346 40.65C40.0706 40.446 40.2386 40.08 40.2386 39.552Z" fill="#777777"/>
<path d="M9.594 571.478C9.234 571.754 8.778 571.946 8.226 572.054C7.674 572.162 7.086 572.216 6.462 572.216C5.706 572.216 4.998 572.09 4.338 571.838C3.678 571.574 3.102 571.178 2.61 570.65C2.118 570.122 1.728 569.45 1.44 568.634C1.152 567.806 1.008 566.828 1.008 565.7C1.008 564.524 1.164 563.528 1.476 562.712C1.8 561.884 2.22 561.212 2.736 560.696C3.264 560.168 3.852 559.784 4.5 559.544C5.148 559.304 5.808 559.184 6.48 559.184C7.2 559.184 7.788 559.226 8.244 559.31C8.7 559.382 9.09 559.484 9.414 559.616L9.054 560.93C8.478 560.654 7.656 560.516 6.588 560.516C6.096 560.516 5.61 560.606 5.13 560.786C4.65 560.966 4.218 561.26 3.834 561.668C3.462 562.076 3.162 562.61 2.934 563.27C2.706 563.93 2.592 564.74 2.592 565.7C2.592 566.564 2.7 567.32 2.916 567.968C3.132 568.616 3.426 569.156 3.798 569.588C4.182 570.02 4.626 570.344 5.13 570.56C5.646 570.776 6.204 570.884 6.804 570.884C7.344 570.884 7.812 570.83 8.208 570.722C8.616 570.614 8.958 570.476 9.234 570.308L9.594 571.478ZM10.5324 567.5C10.5324 565.976 10.8684 564.812 11.5404 564.008C12.2244 563.192 13.2024 562.784 14.4744 562.784C15.1464 562.784 15.7284 562.898 16.2204 563.126C16.7244 563.342 17.1384 563.66 17.4624 564.08C17.7864 564.488 18.0264 564.986 18.1824 565.574C18.3384 566.15 18.4164 566.792 18.4164 567.5C18.4164 569.024 18.0744 570.194 17.3904 571.01C16.7184 571.814 15.7464 572.216 14.4744 572.216C13.8024 572.216 13.2144 572.108 12.7104 571.892C12.2184 571.664 11.8104 571.346 11.4864 570.938C11.1624 570.518 10.9224 570.02 10.7664 569.444C10.6104 568.856 10.5324 568.208 10.5324 567.5ZM12.0264 567.5C12.0264 567.956 12.0684 568.394 12.1524 568.814C12.2484 569.234 12.3924 569.6 12.5844 569.912C12.7764 570.224 13.0284 570.476 13.3404 570.668C13.6524 570.86 14.0304 570.956 14.4744 570.956C16.1064 570.968 16.9224 569.816 16.9224 567.5C16.9224 567.032 16.8744 566.588 16.7784 566.168C16.6944 565.748 16.5564 565.382 16.3644 565.07C16.1724 564.758 15.9204 564.512 15.6084 564.332C15.2964 564.14 14.9184 564.044 14.4744 564.044C12.8424 564.032 12.0264 565.184 12.0264 567.5ZM22.2888 569.786C22.2888 570.206 22.3608 570.506 22.5048 570.686C22.6488 570.866 22.8528 570.956 23.1168 570.956C23.2728 570.956 23.4408 570.944 23.6208 570.92C23.8008 570.896 24.0048 570.842 24.2328 570.758L24.3948 571.892C24.2028 571.988 23.9328 572.066 23.5848 572.126C23.2488 572.186 22.9548 572.216 22.7028 572.216C22.1628 572.216 21.7188 572.066 21.3708 571.766C21.0228 571.454 20.8488 570.932 20.8488 570.2V559.4H22.2888V569.786ZM25.4386 567.5C25.4386 565.976 25.7746 564.812 26.4466 564.008C27.1306 563.192 28.1086 562.784 29.3806 562.784C30.0526 562.784 30.6346 562.898 31.1266 563.126C31.6306 563.342 32.0446 563.66 32.3686 564.08C32.6926 564.488 32.9326 564.986 33.0886 565.574C33.2446 566.15 33.3226 566.792 33.3226 567.5C33.3226 569.024 32.9806 570.194 32.2966 571.01C31.6246 571.814 30.6526 572.216 29.3806 572.216C28.7086 572.216 28.1206 572.108 27.6166 571.892C27.1246 571.664 26.7166 571.346 26.3926 570.938C26.0686 570.518 25.8286 570.02 25.6726 569.444C25.5166 568.856 25.4386 568.208 25.4386 567.5ZM26.9326 567.5C26.9326 567.956 26.9746 568.394 27.0586 568.814C27.1546 569.234 27.2986 569.6 27.4906 569.912C27.6826 570.224 27.9346 570.476 28.2466 570.668C28.5586 570.86 28.9366 570.956 29.3806 570.956C31.0126 570.968 31.8286 569.816 31.8286 567.5C31.8286 567.032 31.7806 566.588 31.6846 566.168C31.6006 565.748 31.4626 565.382 31.2706 565.07C31.0786 564.758 30.8266 564.512 30.5146 564.332C30.2026 564.14 29.8246 564.044 29.3806 564.044C27.7486 564.032 26.9326 565.184 26.9326 567.5ZM39.841 564.386C39.481 564.266 39.139 564.206 38.815 564.206C38.299 564.206 37.891 564.35 37.591 564.638C37.291 564.914 37.105 565.268 37.033 565.7V572H35.593V563H36.601L36.871 564.098H36.943C37.171 563.69 37.441 563.378 37.753 563.162C38.077 562.934 38.485 562.82 38.977 562.82C39.325 562.82 39.715 562.88 40.147 563L39.841 564.386ZM45.6702 569.552C45.6702 569.192 45.5622 568.91 45.3462 568.706C45.1302 568.502 44.8602 568.334 44.5362 568.202C44.2242 568.058 43.8762 567.926 43.4922 567.806C43.1202 567.674 42.7722 567.512 42.4482 567.32C42.1362 567.116 41.8722 566.858 41.6562 566.546C41.4402 566.234 41.3322 565.814 41.3322 565.286C41.3322 564.422 41.5782 563.792 42.0702 563.396C42.5622 562.988 43.2462 562.784 44.1222 562.784C44.7702 562.784 45.3102 562.844 45.7422 562.964C46.1862 563.072 46.5702 563.204 46.8942 563.36L46.5522 564.548C46.2762 564.416 45.9402 564.302 45.5442 564.206C45.1602 564.098 44.7462 564.044 44.3022 564.044C43.7742 564.044 43.3842 564.134 43.1322 564.314C42.8922 564.494 42.7722 564.806 42.7722 565.25C42.7722 565.562 42.8802 565.808 43.0962 565.988C43.3122 566.156 43.5762 566.312 43.8882 566.456C44.2122 566.588 44.5602 566.72 44.9322 566.852C45.3162 566.984 45.6642 567.158 45.9762 567.374C46.3002 567.59 46.5702 567.866 46.7862 568.202C47.0022 568.526 47.1102 568.958 47.1102 569.498C47.1102 569.882 47.0442 570.242 46.9122 570.578C46.7922 570.914 46.6002 571.202 46.3362 571.442C46.0722 571.682 45.7422 571.868 45.3462 572C44.9622 572.144 44.5062 572.216 43.9782 572.216C43.2942 572.216 42.7122 572.15 42.2322 572.018C41.7522 571.886 41.3502 571.73 41.0262 571.55L41.4582 570.326C41.7342 570.482 42.0942 570.626 42.5382 570.758C42.9822 570.89 43.4322 570.956 43.8882 570.956C44.4042 570.956 44.8302 570.854 45.1662 570.65C45.5022 570.446 45.6702 570.08 45.6702 569.552Z" fill="#777777"/>
<path d="M209.04 567.95H207.15L206.448 570.956H205.206L205.908 567.95H204.504L204.756 566.798H206.178L206.736 564.44H205.404L205.656 563.288H207.006L207.69 560.444H208.932L208.248 563.288H210.138L210.822 560.444H212.064L211.38 563.288H212.766L212.478 564.44H211.11L210.552 566.798H211.866L211.578 567.95H210.282L209.58 570.956H208.338L209.04 567.95ZM207.42 566.798H209.31L209.868 564.44H207.978L207.42 566.798ZM215.339 559.4H222.197V560.732H216.833V565.034H221.837V566.366H216.833V572H215.339V559.4ZM224.043 563.216C224.043 562.64 224.127 562.106 224.295 561.614C224.463 561.122 224.709 560.696 225.033 560.336C225.357 559.976 225.759 559.694 226.239 559.49C226.731 559.286 227.301 559.184 227.949 559.184C229.173 559.184 230.127 559.58 230.811 560.372C231.495 561.164 231.837 562.28 231.837 563.72C231.837 565.076 231.681 566.264 231.369 567.284C231.069 568.292 230.649 569.144 230.109 569.84C229.569 570.536 228.927 571.082 228.183 571.478C227.451 571.862 226.653 572.108 225.789 572.216L225.465 571.064C226.161 570.956 226.785 570.752 227.337 570.452C227.901 570.152 228.381 569.774 228.777 569.318C229.185 568.862 229.515 568.346 229.767 567.77C230.019 567.182 230.193 566.546 230.289 565.862C229.965 566.246 229.605 566.516 229.209 566.672C228.825 566.816 228.315 566.888 227.679 566.888C227.187 566.888 226.719 566.81 226.275 566.654C225.843 566.486 225.459 566.246 225.123 565.934C224.787 565.622 224.523 565.238 224.331 564.782C224.139 564.326 224.043 563.804 224.043 563.216ZM225.537 563.072C225.537 563.924 225.759 564.566 226.203 564.998C226.659 565.418 227.253 565.628 227.985 565.628C228.573 565.628 229.077 565.532 229.497 565.34C229.917 565.148 230.217 564.896 230.397 564.584C230.421 564.428 230.433 564.29 230.433 564.17C230.433 564.05 230.433 563.924 230.433 563.792C230.433 563.36 230.379 562.946 230.271 562.55C230.175 562.142 230.025 561.782 229.821 561.47C229.617 561.146 229.347 560.894 229.011 560.714C228.687 560.534 228.303 560.444 227.859 560.444C227.127 560.444 226.557 560.678 226.149 561.146C225.741 561.602 225.537 562.244 225.537 563.072ZM234.446 559.4H241.304V560.732H235.94V565.034H240.944V566.366H235.94V572H234.446V559.4ZM243.151 563.216C243.151 562.64 243.235 562.106 243.403 561.614C243.571 561.122 243.817 560.696 244.141 560.336C244.465 559.976 244.867 559.694 245.347 559.49C245.839 559.286 246.409 559.184 247.057 559.184C248.281 559.184 249.235 559.58 249.919 560.372C250.603 561.164 250.945 562.28 250.945 563.72C250.945 565.076 250.789 566.264 250.477 567.284C250.177 568.292 249.757 569.144 249.217 569.84C248.677 570.536 248.035 571.082 247.291 571.478C246.559 571.862 245.761 572.108 244.897 572.216L244.573 571.064C245.269 570.956 245.893 570.752 246.445 570.452C247.009 570.152 247.489 569.774 247.885 569.318C248.293 568.862 248.623 568.346 248.875 567.77C249.127 567.182 249.301 566.546 249.397 565.862C249.073 566.246 248.713 566.516 248.317 566.672C247.933 566.816 247.423 566.888 246.787 566.888C246.295 566.888 245.827 566.81 245.383 566.654C244.951 566.486 244.567 566.246 244.231 565.934C243.895 565.622 243.631 565.238 243.439 564.782C243.247 564.326 243.151 563.804 243.151 563.216ZM244.645 563.072C244.645 563.924 244.867 564.566 245.311 564.998C245.767 565.418 246.361 565.628 247.093 565.628C247.681 565.628 248.185 565.532 248.605 565.34C249.025 565.148 249.325 564.896 249.505 564.584C249.529 564.428 249.541 564.29 249.541 564.17C249.541 564.05 249.541 563.924 249.541 563.792C249.541 563.36 249.487 562.946 249.379 562.55C249.283 562.142 249.133 561.782 248.929 561.47C248.725 561.146 248.455 560.894 248.119 560.714C247.795 560.534 247.411 560.444 246.967 560.444C246.235 560.444 245.665 560.678 245.257 561.146C244.849 561.602 244.645 562.244 244.645 563.072ZM253.553 559.4H260.411V560.732H255.047V565.034H260.051V566.366H255.047V572H253.553V559.4ZM262.258 563.216C262.258 562.64 262.342 562.106 262.51 561.614C262.678 561.122 262.924 560.696 263.248 560.336C263.572 559.976 263.974 559.694 264.454 559.49C264.946 559.286 265.516 559.184 266.164 559.184C267.388 559.184 268.342 559.58 269.026 560.372C269.71 561.164 270.052 562.28 270.052 563.72C270.052 565.076 269.896 566.264 269.584 567.284C269.284 568.292 268.864 569.144 268.324 569.84C267.784 570.536 267.142 571.082 266.398 571.478C265.666 571.862 264.868 572.108 264.004 572.216L263.68 571.064C264.376 570.956 265 570.752 265.552 570.452C266.116 570.152 266.596 569.774 266.992 569.318C267.4 568.862 267.73 568.346 267.982 567.77C268.234 567.182 268.408 566.546 268.504 565.862C268.18 566.246 267.82 566.516 267.424 566.672C267.04 566.816 266.53 566.888 265.894 566.888C265.402 566.888 264.934 566.81 264.49 566.654C264.058 566.486 263.674 566.246 263.338 565.934C263.002 565.622 262.738 565.238 262.546 564.782C262.354 564.326 262.258 563.804 262.258 563.216ZM263.752 563.072C263.752 563.924 263.974 564.566 264.418 564.998C264.874 565.418 265.468 565.628 266.2 565.628C266.788 565.628 267.292 565.532 267.712 565.34C268.132 565.148 268.432 564.896 268.612 564.584C268.636 564.428 268.648 564.29 268.648 564.17C268.648 564.05 268.648 563.924 268.648 563.792C268.648 563.36 268.594 562.946 268.486 562.55C268.39 562.142 268.24 561.782 268.036 561.47C267.832 561.146 267.562 560.894 267.226 560.714C266.902 560.534 266.518 560.444 266.074 560.444C265.342 560.444 264.772 560.678 264.364 561.146C263.956 561.602 263.752 562.244 263.752 563.072Z" fill="#BBBBBB"/>
<path d="M341.04 567.95H339.15L338.448 570.956H337.206L337.908 567.95H336.504L336.756 566.798H338.178L338.736 564.44H337.404L337.656 563.288H339.006L339.69 560.444H340.932L340.248 563.288H342.138L342.822 560.444H344.064L343.38 563.288H344.766L344.478 564.44H343.11L342.552 566.798H343.866L343.578 567.95H342.282L341.58 570.956H340.338L341.04 567.95ZM339.42 566.798H341.31L341.868 564.44H339.978L339.42 566.798ZM355.241 568.13H353.117V572H351.713V568.13H346.169V567.536L352.145 559.202H353.117V566.87H355.241V568.13ZM351.713 562.946L351.893 561.47H351.839L351.209 562.694L348.671 566.132L347.807 567.014L349.067 566.87H351.713V562.946ZM357.147 559.4C357.375 559.364 357.627 559.34 357.903 559.328C358.191 559.304 358.485 559.292 358.785 559.292C359.097 559.28 359.397 559.274 359.685 559.274C359.985 559.262 360.261 559.256 360.513 559.256C361.521 559.256 362.391 559.412 363.123 559.724C363.867 560.036 364.479 560.474 364.959 561.038C365.439 561.59 365.793 562.256 366.021 563.036C366.261 563.816 366.381 564.674 366.381 565.61C366.381 566.462 366.267 567.284 366.039 568.076C365.823 568.856 365.475 569.552 364.995 570.164C364.515 570.764 363.891 571.25 363.123 571.622C362.355 571.982 361.425 572.162 360.333 572.162C360.141 572.162 359.889 572.156 359.577 572.144C359.277 572.144 358.965 572.132 358.641 572.108C358.317 572.096 358.017 572.084 357.741 572.072C357.465 572.06 357.267 572.042 357.147 572.018V559.4ZM360.549 560.588C360.393 560.588 360.219 560.588 360.027 560.588C359.847 560.588 359.667 560.594 359.487 560.606C359.307 560.618 359.139 560.63 358.983 560.642C358.839 560.654 358.725 560.666 358.641 560.678V570.758C358.701 570.77 358.815 570.782 358.983 570.794C359.151 570.794 359.325 570.8 359.505 570.812C359.685 570.812 359.859 570.818 360.027 570.83C360.195 570.83 360.309 570.83 360.369 570.83C361.209 570.83 361.911 570.686 362.475 570.398C363.051 570.11 363.507 569.726 363.843 569.246C364.191 568.754 364.437 568.196 364.581 567.572C364.725 566.936 364.797 566.282 364.797 565.61C364.797 565.022 364.731 564.434 364.599 563.846C364.467 563.246 364.239 562.706 363.915 562.226C363.591 561.746 363.153 561.356 362.601 561.056C362.061 560.744 361.377 560.588 360.549 560.588ZM376.251 568.202C376.251 568.754 376.167 569.276 375.999 569.768C375.831 570.248 375.585 570.674 375.261 571.046C374.937 571.406 374.535 571.694 374.055 571.91C373.575 572.114 373.029 572.216 372.417 572.216C371.817 572.216 371.277 572.12 370.797 571.928C370.317 571.736 369.903 571.454 369.555 571.082C369.207 570.698 368.937 570.23 368.745 569.678C368.565 569.126 368.475 568.49 368.475 567.77C368.475 566.582 368.625 565.49 368.925 564.494C369.237 563.486 369.663 562.61 370.203 561.866C370.743 561.122 371.379 560.522 372.111 560.066C372.855 559.598 373.659 559.304 374.523 559.184L374.829 560.336C374.157 560.456 373.545 560.684 372.993 561.02C372.441 561.356 371.955 561.77 371.535 562.262C371.127 562.754 370.791 563.306 370.527 563.918C370.263 564.53 370.083 565.16 369.987 565.808C370.179 565.484 370.503 565.19 370.959 564.926C371.415 564.65 371.973 564.512 372.633 564.512C373.761 564.512 374.643 564.836 375.279 565.484C375.927 566.132 376.251 567.038 376.251 568.202ZM374.757 568.346C374.757 567.494 374.559 566.852 374.163 566.42C373.767 565.988 373.155 565.772 372.327 565.772C371.739 565.772 371.229 565.916 370.797 566.204C370.377 566.492 370.083 566.816 369.915 567.176C369.891 567.344 369.879 567.482 369.879 567.59C369.879 567.698 369.879 567.818 369.879 567.95C369.879 568.322 369.927 568.688 370.023 569.048C370.131 569.408 370.293 569.732 370.509 570.02C370.725 570.296 370.989 570.524 371.301 570.704C371.625 570.872 372.003 570.956 372.435 570.956C372.783 570.956 373.095 570.89 373.371 570.758C373.659 570.626 373.905 570.446 374.109 570.218C374.313 569.99 374.469 569.714 374.577 569.39C374.697 569.066 374.757 568.718 374.757 568.346ZM386.635 568.13H384.511V572H383.107V568.13H377.563V567.536L383.539 559.202H384.511V566.87H386.635V568.13ZM383.107 562.946L383.287 561.47H383.233L382.603 562.694L380.065 566.132L379.201 567.014L380.461 566.87H383.107V562.946ZM394.536 568.508H389.892L388.632 572H387.156L391.926 559.202H392.61L397.398 572H395.832L394.536 568.508ZM390.378 567.212H394.086L392.682 563.378L392.232 561.47H392.214L391.764 563.414L390.378 567.212ZM405.065 568.508H400.421L399.161 572H397.685L402.455 559.202H403.139L407.927 572H406.361L405.065 568.508ZM400.907 567.212H404.615L403.211 563.378L402.761 561.47H402.743L402.293 563.414L400.907 567.212Z" fill="#BBBBBB"/>
<path d="M476.04 567.95H474.15L473.448 570.956H472.206L472.908 567.95H471.504L471.756 566.798H473.178L473.736 564.44H472.404L472.656 563.288H474.006L474.69 560.444H475.932L475.248 563.288H477.138L477.822 560.444H479.064L478.38 563.288H479.766L479.478 564.44H478.11L477.552 566.798H478.866L478.578 567.95H477.282L476.58 570.956H475.338L476.04 567.95ZM474.42 566.798H476.31L476.868 564.44H474.978L474.42 566.798ZM482.339 559.4H489.197V560.732H483.833V564.854H488.747V566.186H483.833V570.668H489.287V572H482.339V559.4ZM492.403 570.668H494.923V561.956L495.103 560.894L494.383 561.74L492.403 563.162L491.719 562.244L495.679 559.184H496.327V570.668H498.793V572H492.403V570.668ZM501.492 568.994C501.492 568.238 501.69 567.584 502.086 567.032C502.482 566.468 503.1 565.958 503.94 565.502C503.64 565.322 503.358 565.136 503.094 564.944C502.842 564.74 502.614 564.512 502.41 564.26C502.218 564.008 502.062 563.726 501.942 563.414C501.834 563.102 501.78 562.742 501.78 562.334C501.78 561.866 501.858 561.44 502.014 561.056C502.182 560.672 502.416 560.342 502.716 560.066C503.028 559.79 503.394 559.574 503.814 559.418C504.246 559.262 504.732 559.184 505.272 559.184C505.776 559.184 506.232 559.256 506.64 559.4C507.048 559.544 507.39 559.742 507.666 559.994C507.954 560.246 508.176 560.546 508.332 560.894C508.488 561.242 508.566 561.626 508.566 562.046C508.566 562.73 508.41 563.336 508.098 563.864C507.786 564.38 507.27 564.89 506.55 565.394C506.862 565.574 507.156 565.772 507.432 565.988C507.72 566.204 507.966 566.444 508.17 566.708C508.386 566.972 508.554 567.272 508.674 567.608C508.794 567.932 508.854 568.304 508.854 568.724C508.854 569.24 508.77 569.714 508.602 570.146C508.434 570.566 508.188 570.932 507.864 571.244C507.54 571.544 507.144 571.784 506.676 571.964C506.208 572.132 505.674 572.216 505.074 572.216C504.498 572.216 503.988 572.132 503.544 571.964C503.1 571.796 502.722 571.568 502.41 571.28C502.11 570.992 501.882 570.656 501.726 570.272C501.57 569.876 501.492 569.45 501.492 568.994ZM507.45 568.814C507.45 568.454 507.378 568.142 507.234 567.878C507.09 567.602 506.898 567.356 506.658 567.14C506.43 566.912 506.166 566.708 505.866 566.528C505.566 566.348 505.254 566.174 504.93 566.006C504.198 566.414 503.676 566.87 503.364 567.374C503.052 567.878 502.896 568.358 502.896 568.814C502.896 569.102 502.944 569.378 503.04 569.642C503.136 569.906 503.28 570.134 503.472 570.326C503.664 570.518 503.898 570.674 504.174 570.794C504.462 570.902 504.792 570.956 505.164 570.956C505.464 570.956 505.752 570.914 506.028 570.83C506.304 570.734 506.544 570.602 506.748 570.434C506.964 570.254 507.132 570.032 507.252 569.768C507.384 569.492 507.45 569.174 507.45 568.814ZM503.184 562.298C503.184 562.634 503.25 562.934 503.382 563.198C503.514 563.45 503.688 563.678 503.904 563.882C504.132 564.086 504.39 564.278 504.678 564.458C504.966 564.626 505.266 564.788 505.578 564.944C506.118 564.524 506.514 564.11 506.766 563.702C507.03 563.294 507.162 562.844 507.162 562.352C507.162 561.74 506.97 561.272 506.586 560.948C506.214 560.612 505.764 560.444 505.236 560.444C504.912 560.444 504.624 560.498 504.372 560.606C504.12 560.714 503.904 560.852 503.724 561.02C503.544 561.188 503.406 561.386 503.31 561.614C503.226 561.83 503.184 562.058 503.184 562.298ZM519.67 571.478C519.31 571.754 518.854 571.946 518.302 572.054C517.75 572.162 517.162 572.216 516.538 572.216C515.782 572.216 515.074 572.09 514.414 571.838C513.754 571.574 513.178 571.178 512.686 570.65C512.194 570.122 511.804 569.45 511.516 568.634C511.228 567.806 511.084 566.828 511.084 565.7C511.084 564.524 511.24 563.528 511.552 562.712C511.876 561.884 512.296 561.212 512.812 560.696C513.34 560.168 513.928 559.784 514.576 559.544C515.224 559.304 515.884 559.184 516.556 559.184C517.276 559.184 517.864 559.226 518.32 559.31C518.776 559.382 519.166 559.484 519.49 559.616L519.13 560.93C518.554 560.654 517.732 560.516 516.664 560.516C516.172 560.516 515.686 560.606 515.206 560.786C514.726 560.966 514.294 561.26 513.91 561.668C513.538 562.076 513.238 562.61 513.01 563.27C512.782 563.93 512.668 564.74 512.668 565.7C512.668 566.564 512.776 567.32 512.992 567.968C513.208 568.616 513.502 569.156 513.874 569.588C514.258 570.02 514.702 570.344 515.206 570.56C515.722 570.776 516.28 570.884 516.88 570.884C517.42 570.884 517.888 570.83 518.284 570.722C518.692 570.614 519.034 570.476 519.31 570.308L519.67 571.478ZM529.791 568.13H527.667V572H526.263V568.13H520.719V567.536L526.695 559.202H527.667V566.87H529.791V568.13ZM526.263 562.946L526.443 561.47H526.389L525.759 562.694L523.221 566.132L522.357 567.014L523.617 566.87H526.263V562.946ZM539.6 568.13H537.476V572H536.072V568.13H530.528V567.536L536.504 559.202H537.476V566.87H539.6V568.13ZM536.072 562.946L536.252 561.47H536.198L535.568 562.694L533.03 566.132L532.166 567.014L533.426 566.87H536.072V562.946Z" fill="#BBBBBB"/>
<path d="M161.766 290.922H61.92L34.83 366H3.096L105.651 90.843H120.357L223.299 366H189.63L161.766 290.922ZM72.369 263.058H152.091L121.905 180.627L112.23 139.605H111.843L102.168 181.401L72.369 263.058ZM253.083 186.819C262.887 180.885 274.239 176.499 287.139 173.661C300.297 170.823 313.971 169.404 328.161 169.404C341.577 169.404 352.284 171.21 360.282 174.822C368.538 178.434 374.73 183.207 378.858 189.141C383.244 194.817 386.082 201.138 387.372 208.104C388.92 215.07 389.694 222.036 389.694 229.002C389.694 244.482 389.307 259.575 388.533 274.281C387.759 288.987 387.372 302.919 387.372 316.077C387.372 325.623 387.759 334.653 388.533 343.167C389.307 351.681 390.726 359.55 392.79 366.774H369.957L361.83 339.684H359.895C357.573 343.296 354.606 346.908 350.994 350.52C347.64 353.874 343.512 356.97 338.61 359.808C333.708 362.388 328.032 364.581 321.582 366.387C315.132 368.193 307.779 369.096 299.523 369.096C291.267 369.096 283.527 367.806 276.303 365.226C269.337 362.646 263.274 359.034 258.114 354.39C252.954 349.488 248.826 343.683 245.73 336.975C242.892 330.267 241.473 322.656 241.473 314.142C241.473 302.79 243.795 293.373 248.439 285.891C253.083 278.151 259.533 272.088 267.789 267.702C276.303 263.058 286.365 259.833 297.975 258.027C309.843 255.963 322.872 254.931 337.062 254.931C340.674 254.931 344.157 254.931 347.511 254.931C351.123 254.931 354.735 255.189 358.347 255.705C359.121 247.965 359.508 240.999 359.508 234.807C359.508 220.617 356.67 210.684 350.994 205.008C345.318 199.332 334.998 196.494 320.034 196.494C315.648 196.494 310.875 196.881 305.715 197.655C300.813 198.171 295.653 199.074 290.235 200.364C285.075 201.396 280.044 202.815 275.142 204.621C270.498 206.169 266.37 207.975 262.758 210.039L253.083 186.819ZM308.037 342.006C315.261 342.006 321.711 341.103 327.387 339.297C333.063 337.233 337.965 334.782 342.093 331.944C346.221 328.848 349.575 325.494 352.155 321.882C354.993 318.27 357.057 314.787 358.347 311.433V279.312C354.735 279.054 350.994 278.925 347.124 278.925C343.512 278.667 339.9 278.538 336.288 278.538C328.29 278.538 320.421 279.054 312.681 280.086C305.199 280.86 298.491 282.537 292.557 285.117C286.881 287.439 282.237 290.793 278.625 295.179C275.271 299.307 273.594 304.596 273.594 311.046C273.594 320.076 276.819 327.558 283.269 333.492C289.719 339.168 297.975 342.006 308.037 342.006Z" fill="#F78D46"/>
<path d="M752.53 29.526C752.986 29.418 753.478 29.346 754.006 29.31C754.534 29.274 755.056 29.256 755.572 29.256C756.124 29.256 756.682 29.31 757.246 29.418C757.822 29.526 758.344 29.724 758.812 30.012C759.28 30.3 759.658 30.696 759.946 31.2C760.246 31.704 760.396 32.346 760.396 33.126C760.396 33.894 760.258 34.542 759.982 35.07C759.706 35.598 759.34 36.03 758.884 36.366C758.428 36.69 757.906 36.924 757.318 37.068C756.73 37.212 756.124 37.284 755.5 37.284C755.44 37.284 755.338 37.284 755.194 37.284C755.062 37.284 754.918 37.284 754.762 37.284C754.618 37.272 754.474 37.26 754.33 37.248C754.186 37.236 754.084 37.224 754.024 37.212V42H752.53V29.526ZM755.608 30.552C755.296 30.552 754.996 30.558 754.708 30.57C754.42 30.582 754.192 30.612 754.024 30.66V35.88C754.084 35.904 754.18 35.922 754.312 35.934C754.444 35.934 754.582 35.94 754.726 35.952C754.87 35.952 755.008 35.952 755.14 35.952C755.272 35.952 755.368 35.952 755.428 35.952C755.836 35.952 756.238 35.916 756.634 35.844C757.042 35.76 757.408 35.616 757.732 35.412C758.056 35.208 758.314 34.92 758.506 34.548C758.71 34.176 758.812 33.702 758.812 33.126C758.812 32.634 758.716 32.226 758.524 31.902C758.344 31.566 758.098 31.302 757.786 31.11C757.486 30.906 757.144 30.762 756.76 30.678C756.376 30.594 755.992 30.552 755.608 30.552ZM770.439 30.732H766.515V42H765.021V30.732H761.097V29.4H770.439V30.732ZM782.054 38.796C782.054 38.292 781.904 37.884 781.604 37.572C781.304 37.248 780.926 36.966 780.47 36.726C780.026 36.474 779.54 36.24 779.012 36.024C778.484 35.808 777.992 35.55 777.536 35.25C777.092 34.938 776.72 34.56 776.42 34.116C776.12 33.66 775.97 33.084 775.97 32.388C775.97 31.404 776.312 30.624 776.996 30.048C777.68 29.472 778.652 29.184 779.912 29.184C780.644 29.184 781.31 29.238 781.91 29.346C782.51 29.454 782.978 29.592 783.314 29.76L782.864 31.074C782.588 30.942 782.18 30.816 781.64 30.696C781.112 30.576 780.512 30.516 779.84 30.516C779.048 30.516 778.454 30.696 778.058 31.056C777.662 31.404 777.464 31.818 777.464 32.298C777.464 32.766 777.614 33.156 777.914 33.468C778.214 33.78 778.586 34.062 779.03 34.314C779.486 34.554 779.978 34.794 780.506 35.034C781.034 35.274 781.52 35.556 781.964 35.88C782.42 36.192 782.798 36.57 783.098 37.014C783.398 37.458 783.548 38.01 783.548 38.67C783.548 39.21 783.452 39.696 783.26 40.128C783.068 40.56 782.786 40.932 782.414 41.244C782.042 41.556 781.592 41.796 781.064 41.964C780.536 42.132 779.936 42.216 779.264 42.216C778.364 42.216 777.62 42.144 777.032 42C776.444 41.868 775.988 41.718 775.664 41.55L776.168 40.2C776.444 40.356 776.852 40.512 777.392 40.668C777.932 40.812 778.538 40.884 779.21 40.884C779.606 40.884 779.978 40.848 780.326 40.776C780.674 40.692 780.974 40.566 781.226 40.398C781.478 40.218 781.676 39.996 781.82 39.732C781.976 39.468 782.054 39.156 782.054 38.796ZM785.64 33.666C786.096 33.39 786.624 33.186 787.224 33.054C787.836 32.922 788.472 32.856 789.132 32.856C789.756 32.856 790.254 32.94 790.626 33.108C791.01 33.276 791.298 33.498 791.49 33.774C791.694 34.038 791.826 34.332 791.886 34.656C791.958 34.98 791.994 35.304 791.994 35.628C791.994 36.348 791.976 37.05 791.94 37.734C791.904 38.418 791.886 39.066 791.886 39.678C791.886 40.122 791.904 40.542 791.94 40.938C791.976 41.334 792.042 41.7 792.138 42.036H791.076L790.698 40.776H790.608C790.5 40.944 790.362 41.112 790.194 41.28C790.038 41.436 789.846 41.58 789.618 41.712C789.39 41.832 789.126 41.934 788.826 42.018C788.526 42.102 788.184 42.144 787.8 42.144C787.416 42.144 787.056 42.084 786.72 41.964C786.396 41.844 786.114 41.676 785.874 41.46C785.634 41.232 785.442 40.962 785.298 40.65C785.166 40.338 785.1 39.984 785.1 39.588C785.1 39.06 785.208 38.622 785.424 38.274C785.64 37.914 785.94 37.632 786.324 37.428C786.72 37.212 787.188 37.062 787.728 36.978C788.28 36.882 788.886 36.834 789.546 36.834C789.714 36.834 789.876 36.834 790.032 36.834C790.2 36.834 790.368 36.846 790.536 36.87C790.572 36.51 790.59 36.186 790.59 35.898C790.59 35.238 790.458 34.776 790.194 34.512C789.93 34.248 789.45 34.116 788.754 34.116C788.55 34.116 788.328 34.134 788.088 34.17C787.86 34.194 787.62 34.236 787.368 34.296C787.128 34.344 786.894 34.41 786.666 34.494C786.45 34.566 786.258 34.65 786.09 34.746L785.64 33.666ZM788.196 40.884C788.532 40.884 788.832 40.842 789.096 40.758C789.36 40.662 789.588 40.548 789.78 40.416C789.972 40.272 790.128 40.116 790.248 39.948C790.38 39.78 790.476 39.618 790.536 39.462V37.968C790.368 37.956 790.194 37.95 790.014 37.95C789.846 37.938 789.678 37.932 789.51 37.932C789.138 37.932 788.772 37.956 788.412 38.004C788.064 38.04 787.752 38.118 787.476 38.238C787.212 38.346 786.996 38.502 786.828 38.706C786.672 38.898 786.594 39.144 786.594 39.444C786.594 39.864 786.744 40.212 787.044 40.488C787.344 40.752 787.728 40.884 788.196 40.884ZM800.492 42V36.87C800.492 35.934 800.354 35.232 800.078 34.764C799.814 34.284 799.322 34.044 798.602 34.044C797.966 34.044 797.438 34.218 797.018 34.566C796.61 34.902 796.322 35.328 796.154 35.844V42H794.714V33H795.722L795.992 34.098H796.064C796.352 33.714 796.736 33.402 797.216 33.162C797.708 32.91 798.29 32.784 798.962 32.784C799.454 32.784 799.886 32.844 800.258 32.964C800.63 33.072 800.936 33.27 801.176 33.558C801.428 33.846 801.614 34.236 801.734 34.728C801.866 35.208 801.932 35.82 801.932 36.564V42H800.492ZM808.518 39.552C808.518 39.192 808.41 38.91 808.194 38.706C807.978 38.502 807.708 38.334 807.384 38.202C807.072 38.058 806.724 37.926 806.34 37.806C805.968 37.674 805.62 37.512 805.296 37.32C804.984 37.116 804.72 36.858 804.504 36.546C804.288 36.234 804.18 35.814 804.18 35.286C804.18 34.422 804.426 33.792 804.918 33.396C805.41 32.988 806.094 32.784 806.97 32.784C807.618 32.784 808.158 32.844 808.59 32.964C809.034 33.072 809.418 33.204 809.742 33.36L809.4 34.548C809.124 34.416 808.788 34.302 808.392 34.206C808.008 34.098 807.594 34.044 807.15 34.044C806.622 34.044 806.232 34.134 805.98 34.314C805.74 34.494 805.62 34.806 805.62 35.25C805.62 35.562 805.728 35.808 805.944 35.988C806.16 36.156 806.424 36.312 806.736 36.456C807.06 36.588 807.408 36.72 807.78 36.852C808.164 36.984 808.512 37.158 808.824 37.374C809.148 37.59 809.418 37.866 809.634 38.202C809.85 38.526 809.958 38.958 809.958 39.498C809.958 39.882 809.892 40.242 809.76 40.578C809.64 40.914 809.448 41.202 809.184 41.442C808.92 41.682 808.59 41.868 808.194 42C807.81 42.144 807.354 42.216 806.826 42.216C806.142 42.216 805.56 42.15 805.08 42.018C804.6 41.886 804.198 41.73 803.874 41.55L804.306 40.326C804.582 40.482 804.942 40.626 805.386 40.758C805.83 40.89 806.28 40.956 806.736 40.956C807.252 40.956 807.678 40.854 808.014 40.65C808.35 40.446 808.518 40.08 808.518 39.552ZM751.396 58H752.8V57.496C752.8 56.944 752.842 56.464 752.926 56.056C753.022 55.648 753.172 55.318 753.376 55.066C753.58 54.802 753.844 54.61 754.168 54.49C754.492 54.358 754.894 54.292 755.374 54.292C755.758 54.292 756.094 54.316 756.382 54.364C756.682 54.412 756.994 54.502 757.318 54.634L756.994 55.84C756.718 55.72 756.454 55.642 756.202 55.606C755.962 55.57 755.734 55.552 755.518 55.552C755.206 55.552 754.96 55.6 754.78 55.696C754.612 55.792 754.486 55.936 754.402 56.128C754.33 56.308 754.282 56.536 754.258 56.812C754.246 57.076 754.24 57.388 754.24 57.748V58H756.634V59.26H754.24V67H752.8V59.26H751.396V58ZM757.437 62.5C757.437 60.976 757.773 59.812 758.445 59.008C759.129 58.192 760.107 57.784 761.379 57.784C762.051 57.784 762.633 57.898 763.125 58.126C763.629 58.342 764.043 58.66 764.367 59.08C764.691 59.488 764.931 59.986 765.087 60.574C765.243 61.15 765.321 61.792 765.321 62.5C765.321 64.024 764.979 65.194 764.295 66.01C763.623 66.814 762.651 67.216 761.379 67.216C760.707 67.216 760.119 67.108 759.615 66.892C759.123 66.664 758.715 66.346 758.391 65.938C758.067 65.518 757.827 65.02 757.671 64.444C757.515 63.856 757.437 63.208 757.437 62.5ZM758.931 62.5C758.931 62.956 758.973 63.394 759.057 63.814C759.153 64.234 759.297 64.6 759.489 64.912C759.681 65.224 759.933 65.476 760.245 65.668C760.557 65.86 760.935 65.956 761.379 65.956C763.011 65.968 763.827 64.816 763.827 62.5C763.827 62.032 763.779 61.588 763.683 61.168C763.599 60.748 763.461 60.382 763.269 60.07C763.077 59.758 762.825 59.512 762.513 59.332C762.201 59.14 761.823 59.044 761.379 59.044C759.747 59.032 758.931 60.184 758.931 62.5ZM773.369 67V61.87C773.369 60.934 773.231 60.232 772.955 59.764C772.691 59.284 772.199 59.044 771.479 59.044C770.843 59.044 770.315 59.218 769.895 59.566C769.487 59.902 769.199 60.328 769.031 60.844V67H767.591V58H768.599L768.869 59.098H768.941C769.229 58.714 769.613 58.402 770.093 58.162C770.585 57.91 771.167 57.784 771.839 57.784C772.331 57.784 772.763 57.844 773.135 57.964C773.507 58.072 773.813 58.27 774.053 58.558C774.305 58.846 774.491 59.236 774.611 59.728C774.743 60.208 774.809 60.82 774.809 61.564V67H773.369ZM776.247 58H777.651V56.218L779.091 55.804V58H781.539V59.26H779.091V64.246C779.091 64.87 779.169 65.314 779.325 65.578C779.481 65.83 779.745 65.956 780.117 65.956C780.429 65.956 780.693 65.926 780.909 65.866C781.125 65.794 781.365 65.704 781.629 65.596L781.953 66.694C781.629 66.85 781.275 66.976 780.891 67.072C780.507 67.168 780.093 67.216 779.649 67.216C778.917 67.216 778.401 67.012 778.101 66.604C777.801 66.184 777.651 65.488 777.651 64.516V59.26H776.247V58ZM751.396 83H752.8V82.496C752.8 81.944 752.842 81.464 752.926 81.056C753.022 80.648 753.172 80.318 753.376 80.066C753.58 79.802 753.844 79.61 754.168 79.49C754.492 79.358 754.894 79.292 755.374 79.292C755.758 79.292 756.094 79.316 756.382 79.364C756.682 79.412 756.994 79.502 757.318 79.634L756.994 80.84C756.718 80.72 756.454 80.642 756.202 80.606C755.962 80.57 755.734 80.552 755.518 80.552C755.206 80.552 754.96 80.6 754.78 80.696C754.612 80.792 754.486 80.936 754.402 81.128C754.33 81.308 754.282 81.536 754.258 81.812C754.246 82.076 754.24 82.388 754.24 82.748V83H756.634V84.26H754.24V92H752.8V84.26H751.396V83ZM757.99 83.666C758.446 83.39 758.974 83.186 759.574 83.054C760.186 82.922 760.822 82.856 761.482 82.856C762.106 82.856 762.604 82.94 762.976 83.108C763.36 83.276 763.648 83.498 763.84 83.774C764.044 84.038 764.176 84.332 764.236 84.656C764.308 84.98 764.344 85.304 764.344 85.628C764.344 86.348 764.326 87.05 764.29 87.734C764.254 88.418 764.236 89.066 764.236 89.678C764.236 90.122 764.254 90.542 764.29 90.938C764.326 91.334 764.392 91.7 764.488 92.036H763.426L763.048 90.776H762.958C762.85 90.944 762.712 91.112 762.544 91.28C762.388 91.436 762.196 91.58 761.968 91.712C761.74 91.832 761.476 91.934 761.176 92.018C760.876 92.102 760.534 92.144 760.15 92.144C759.766 92.144 759.406 92.084 759.07 91.964C758.746 91.844 758.464 91.676 758.224 91.46C757.984 91.232 757.792 90.962 757.648 90.65C757.516 90.338 757.45 89.984 757.45 89.588C757.45 89.06 757.558 88.622 757.774 88.274C757.99 87.914 758.29 87.632 758.674 87.428C759.07 87.212 759.538 87.062 760.078 86.978C760.63 86.882 761.236 86.834 761.896 86.834C762.064 86.834 762.226 86.834 762.382 86.834C762.55 86.834 762.718 86.846 762.886 86.87C762.922 86.51 762.94 86.186 762.94 85.898C762.94 85.238 762.808 84.776 762.544 84.512C762.28 84.248 761.8 84.116 761.104 84.116C760.9 84.116 760.678 84.134 760.438 84.17C760.21 84.194 759.97 84.236 759.718 84.296C759.478 84.344 759.244 84.41 759.016 84.494C758.8 84.566 758.608 84.65 758.44 84.746L757.99 83.666ZM760.546 90.884C760.882 90.884 761.182 90.842 761.446 90.758C761.71 90.662 761.938 90.548 762.13 90.416C762.322 90.272 762.478 90.116 762.598 89.948C762.73 89.78 762.826 89.618 762.886 89.462V87.968C762.718 87.956 762.544 87.95 762.364 87.95C762.196 87.938 762.028 87.932 761.86 87.932C761.488 87.932 761.122 87.956 760.762 88.004C760.414 88.04 760.102 88.118 759.826 88.238C759.562 88.346 759.346 88.502 759.178 88.706C759.022 88.898 758.944 89.144 758.944 89.444C758.944 89.864 759.094 90.212 759.394 90.488C759.694 90.752 760.078 90.884 760.546 90.884ZM772.338 92V86.906C772.338 86.426 772.314 86.012 772.266 85.664C772.23 85.304 772.152 85.004 772.032 84.764C771.912 84.524 771.738 84.344 771.51 84.224C771.294 84.104 771.006 84.044 770.646 84.044C770.094 84.044 769.632 84.212 769.26 84.548C768.9 84.884 768.648 85.304 768.504 85.808V92H767.064V83H768.072L768.342 84.098H768.414C768.738 83.714 769.11 83.402 769.53 83.162C769.962 82.91 770.52 82.784 771.204 82.784C771.78 82.784 772.248 82.898 772.608 83.126C772.98 83.342 773.268 83.726 773.472 84.278C773.748 83.81 774.126 83.444 774.606 83.18C775.098 82.916 775.65 82.784 776.262 82.784C776.766 82.784 777.192 82.844 777.54 82.964C777.888 83.072 778.176 83.27 778.404 83.558C778.632 83.846 778.794 84.236 778.89 84.728C778.998 85.22 779.052 85.844 779.052 86.6V92H777.612V86.582C777.612 86.15 777.588 85.778 777.54 85.466C777.504 85.142 777.42 84.878 777.288 84.674C777.168 84.458 776.994 84.302 776.766 84.206C776.55 84.098 776.262 84.044 775.902 84.044C775.302 84.044 774.834 84.212 774.498 84.548C774.162 84.884 773.922 85.364 773.778 85.988V92H772.338ZM781.977 83H783.417V92H781.977V83ZM781.671 80.264C781.671 79.988 781.761 79.754 781.941 79.562C782.133 79.358 782.373 79.256 782.661 79.256C782.949 79.256 783.195 79.358 783.399 79.562C783.603 79.754 783.705 79.988 783.705 80.264C783.705 80.54 783.603 80.768 783.399 80.948C783.195 81.128 782.949 81.218 782.661 81.218C782.373 81.218 782.133 81.128 781.941 80.948C781.761 80.768 781.671 80.54 781.671 80.264ZM788.09 89.786C788.09 90.206 788.162 90.506 788.306 90.686C788.45 90.866 788.654 90.956 788.918 90.956C789.074 90.956 789.242 90.944 789.422 90.92C789.602 90.896 789.806 90.842 790.034 90.758L790.196 91.892C790.004 91.988 789.734 92.066 789.386 92.126C789.05 92.186 788.756 92.216 788.504 92.216C787.964 92.216 787.52 92.066 787.172 91.766C786.824 91.454 786.65 90.932 786.65 90.2V79.4H788.09V89.786ZM794.389 88.832L794.893 90.56H794.983L795.379 88.814L797.125 83H798.583L795.919 91.082C795.715 91.67 795.511 92.24 795.307 92.792C795.115 93.344 794.899 93.836 794.659 94.268C794.419 94.7 794.149 95.042 793.849 95.294C793.549 95.558 793.201 95.69 792.805 95.69C792.373 95.69 792.019 95.63 791.743 95.51L791.995 94.268C792.151 94.328 792.301 94.358 792.445 94.358C792.781 94.358 793.105 94.178 793.417 93.818C793.729 93.47 793.987 92.864 794.191 92L790.573 83H792.229L794.389 88.832Z" fill="#777777"/>
<path d="M754.53 353.526C754.986 353.442 755.508 353.376 756.096 353.328C756.696 353.28 757.242 353.256 757.734 353.256C758.286 353.256 758.808 353.316 759.3 353.436C759.804 353.556 760.242 353.754 760.614 354.03C760.998 354.306 761.304 354.666 761.532 355.11C761.76 355.554 761.874 356.094 761.874 356.73C761.874 357.714 761.604 358.512 761.064 359.124C760.524 359.736 759.84 360.144 759.012 360.348L759.876 361.014L763.008 366H761.262L757.788 360.564L756.024 360.294V366H754.53V353.526ZM757.77 354.552C757.614 354.552 757.452 354.552 757.284 354.552C757.116 354.552 756.954 354.558 756.798 354.57C756.642 354.582 756.492 354.594 756.348 354.606C756.216 354.618 756.108 354.636 756.024 354.66V359.304H757.428C758.256 359.304 758.94 359.1 759.48 358.692C760.02 358.284 760.29 357.648 760.29 356.784C760.29 356.136 760.068 355.602 759.624 355.182C759.18 354.762 758.562 354.552 757.77 354.552ZM770.8 365.28C770.44 365.568 769.984 365.796 769.432 365.964C768.892 366.132 768.316 366.216 767.704 366.216C767.02 366.216 766.426 366.108 765.922 365.892C765.418 365.664 765.004 365.346 764.68 364.938C764.356 364.518 764.116 364.02 763.96 363.444C763.804 362.868 763.726 362.22 763.726 361.5C763.726 359.964 764.068 358.794 764.752 357.99C765.436 357.186 766.414 356.784 767.686 356.784C768.094 356.784 768.502 356.832 768.91 356.928C769.318 357.012 769.684 357.18 770.008 357.432C770.332 357.684 770.596 358.044 770.8 358.512C771.004 358.968 771.106 359.574 771.106 360.33C771.106 360.726 771.07 361.164 770.998 361.644H765.22C765.22 362.172 765.274 362.64 765.382 363.048C765.49 363.456 765.658 363.804 765.886 364.092C766.114 364.368 766.408 364.584 766.768 364.74C767.14 364.884 767.59 364.956 768.118 364.956C768.526 364.956 768.934 364.884 769.342 364.74C769.75 364.596 770.056 364.428 770.26 364.236L770.8 365.28ZM767.704 358.044C766.996 358.044 766.426 358.23 765.994 358.602C765.574 358.974 765.322 359.61 765.238 360.51H769.702C769.702 359.598 769.528 358.962 769.18 358.602C768.832 358.23 768.34 358.044 767.704 358.044ZM780.071 366.414C780.071 367.578 779.759 368.436 779.135 368.988C778.523 369.54 777.611 369.816 776.399 369.816C775.679 369.816 775.097 369.768 774.653 369.672C774.221 369.588 773.849 369.474 773.537 369.33L773.915 368.106C774.191 368.214 774.497 368.316 774.833 368.412C775.169 368.508 775.607 368.556 776.147 368.556C776.651 368.556 777.059 368.508 777.371 368.412C777.695 368.328 777.953 368.178 778.145 367.962C778.337 367.758 778.469 367.488 778.541 367.152C778.613 366.828 778.649 366.438 778.649 365.982V365.118H778.577C778.337 365.466 778.031 365.736 777.659 365.928C777.287 366.108 776.801 366.198 776.201 366.198C774.989 366.198 774.095 365.82 773.519 365.064C772.955 364.308 772.673 363.132 772.673 361.536C772.673 360 773.039 358.836 773.771 358.044C774.503 357.24 775.583 356.838 777.011 356.838C777.695 356.838 778.277 356.892 778.757 357C779.249 357.108 779.687 357.234 780.071 357.378V366.414ZM776.453 364.938C777.065 364.938 777.545 364.788 777.893 364.488C778.241 364.176 778.487 363.696 778.631 363.048V358.44C778.151 358.212 777.539 358.098 776.795 358.098C775.979 358.098 775.337 358.374 774.869 358.926C774.401 359.478 774.167 360.342 774.167 361.518C774.167 362.022 774.209 362.484 774.293 362.904C774.377 363.324 774.509 363.684 774.689 363.984C774.869 364.284 775.103 364.518 775.391 364.686C775.679 364.854 776.033 364.938 776.453 364.938ZM784.141 357V362.13C784.141 362.598 784.165 363.012 784.213 363.372C784.273 363.72 784.369 364.014 784.501 364.254C784.633 364.482 784.813 364.656 785.041 364.776C785.269 364.896 785.557 364.956 785.905 364.956C786.229 364.956 786.517 364.908 786.769 364.812C787.021 364.704 787.243 364.56 787.435 364.38C787.639 364.2 787.813 363.996 787.957 363.768C788.113 363.528 788.239 363.276 788.335 363.012V357H789.775V363.444C789.775 363.876 789.787 364.326 789.811 364.794C789.847 365.25 789.901 365.652 789.973 366H788.983L788.623 364.578H788.533C788.257 365.046 787.885 365.436 787.417 365.748C786.949 366.06 786.355 366.216 785.635 366.216C785.155 366.216 784.729 366.156 784.357 366.036C783.997 365.928 783.691 365.73 783.439 365.442C783.199 365.154 783.013 364.77 782.881 364.29C782.761 363.798 782.701 363.18 782.701 362.436V357H784.141ZM794.15 363.786C794.15 364.206 794.222 364.506 794.366 364.686C794.51 364.866 794.714 364.956 794.978 364.956C795.134 364.956 795.302 364.944 795.482 364.92C795.662 364.896 795.866 364.842 796.094 364.758L796.256 365.892C796.064 365.988 795.794 366.066 795.446 366.126C795.11 366.186 794.816 366.216 794.564 366.216C794.024 366.216 793.58 366.066 793.232 365.766C792.884 365.454 792.71 364.932 792.71 364.2V353.4H794.15V363.786ZM797.66 357.666C798.116 357.39 798.644 357.186 799.244 357.054C799.856 356.922 800.492 356.856 801.152 356.856C801.776 356.856 802.274 356.94 802.646 357.108C803.03 357.276 803.318 357.498 803.51 357.774C803.714 358.038 803.846 358.332 803.906 358.656C803.978 358.98 804.014 359.304 804.014 359.628C804.014 360.348 803.996 361.05 803.96 361.734C803.924 362.418 803.906 363.066 803.906 363.678C803.906 364.122 803.924 364.542 803.96 364.938C803.996 365.334 804.062 365.7 804.158 366.036H803.096L802.718 364.776H802.628C802.52 364.944 802.382 365.112 802.214 365.28C802.058 365.436 801.866 365.58 801.638 365.712C801.41 365.832 801.146 365.934 800.846 366.018C800.546 366.102 800.204 366.144 799.82 366.144C799.436 366.144 799.076 366.084 798.74 365.964C798.416 365.844 798.134 365.676 797.894 365.46C797.654 365.232 797.462 364.962 797.318 364.65C797.186 364.338 797.12 363.984 797.12 363.588C797.12 363.06 797.228 362.622 797.444 362.274C797.66 361.914 797.96 361.632 798.344 361.428C798.74 361.212 799.208 361.062 799.748 360.978C800.3 360.882 800.906 360.834 801.566 360.834C801.734 360.834 801.896 360.834 802.052 360.834C802.22 360.834 802.388 360.846 802.556 360.87C802.592 360.51 802.61 360.186 802.61 359.898C802.61 359.238 802.478 358.776 802.214 358.512C801.95 358.248 801.47 358.116 800.774 358.116C800.57 358.116 800.348 358.134 800.108 358.17C799.88 358.194 799.64 358.236 799.388 358.296C799.148 358.344 798.914 358.41 798.686 358.494C798.47 358.566 798.278 358.65 798.11 358.746L797.66 357.666ZM800.216 364.884C800.552 364.884 800.852 364.842 801.116 364.758C801.38 364.662 801.608 364.548 801.8 364.416C801.992 364.272 802.148 364.116 802.268 363.948C802.4 363.78 802.496 363.618 802.556 363.462V361.968C802.388 361.956 802.214 361.95 802.034 361.95C801.866 361.938 801.698 361.932 801.53 361.932C801.158 361.932 800.792 361.956 800.432 362.004C800.084 362.04 799.772 362.118 799.496 362.238C799.232 362.346 799.016 362.502 798.848 362.706C798.692 362.898 798.614 363.144 798.614 363.444C798.614 363.864 798.764 364.212 799.064 364.488C799.364 364.752 799.748 364.884 800.216 364.884ZM810.982 358.386C810.622 358.266 810.28 358.206 809.956 358.206C809.44 358.206 809.032 358.35 808.732 358.638C808.432 358.914 808.246 359.268 808.174 359.7V366H806.734V357H807.742L808.012 358.098H808.084C808.312 357.69 808.582 357.378 808.894 357.162C809.218 356.934 809.626 356.82 810.118 356.82C810.466 356.82 810.856 356.88 811.288 357L810.982 358.386ZM811.275 365.226C811.275 364.938 811.371 364.704 811.563 364.524C811.755 364.344 812.001 364.254 812.301 364.254C812.673 364.254 812.973 364.386 813.201 364.65C813.441 364.914 813.561 365.298 813.561 365.802C813.561 366.234 813.501 366.612 813.381 366.936C813.261 367.26 813.105 367.536 812.913 367.764C812.721 368.004 812.511 368.196 812.283 368.34C812.055 368.496 811.827 368.61 811.599 368.682L811.149 367.98C811.581 367.812 811.899 367.548 812.103 367.188C812.319 366.84 812.427 366.486 812.427 366.126C812.319 366.162 812.217 366.18 812.121 366.18C811.881 366.18 811.677 366.102 811.509 365.946C811.353 365.778 811.275 365.538 811.275 365.226ZM827.386 356.334C827.386 356.646 827.344 356.958 827.26 357.27C827.188 357.582 827.062 357.87 826.882 358.134C826.702 358.386 826.468 358.614 826.18 358.818C825.892 359.01 825.544 359.154 825.136 359.25V359.358C825.496 359.418 825.838 359.52 826.162 359.664C826.486 359.808 826.768 360.006 827.008 360.258C827.248 360.51 827.434 360.816 827.566 361.176C827.71 361.536 827.782 361.962 827.782 362.454C827.782 363.102 827.644 363.666 827.368 364.146C827.092 364.614 826.72 364.998 826.252 365.298C825.796 365.598 825.274 365.82 824.686 365.964C824.098 366.108 823.492 366.18 822.868 366.18C822.664 366.18 822.4 366.18 822.076 366.18C821.764 366.18 821.422 366.168 821.05 366.144C820.69 366.132 820.318 366.108 819.934 366.072C819.562 366.036 819.22 365.982 818.908 365.91V353.49C819.136 353.454 819.394 353.418 819.682 353.382C819.982 353.346 820.3 353.316 820.636 353.292C820.972 353.268 821.314 353.25 821.662 353.238C822.022 353.226 822.376 353.22 822.724 353.22C823.312 353.22 823.882 353.268 824.434 353.364C824.998 353.448 825.496 353.604 825.928 353.832C826.372 354.06 826.726 354.378 826.99 354.786C827.254 355.194 827.386 355.71 827.386 356.334ZM822.886 364.146C823.186 364.146 823.474 364.11 823.75 364.038C824.038 363.966 824.29 363.858 824.506 363.714C824.722 363.558 824.896 363.366 825.028 363.138C825.16 362.91 825.226 362.64 825.226 362.328C825.226 361.932 825.148 361.62 824.992 361.392C824.836 361.164 824.632 360.99 824.38 360.87C824.128 360.738 823.846 360.654 823.534 360.618C823.222 360.582 822.91 360.564 822.598 360.564H821.284V364.038C821.344 364.062 821.44 364.08 821.572 364.092C821.704 364.104 821.842 364.116 821.986 364.128C822.142 364.128 822.298 364.134 822.454 364.146C822.622 364.146 822.766 364.146 822.886 364.146ZM822.076 358.692C822.244 358.692 822.436 358.686 822.652 358.674C822.88 358.662 823.066 358.644 823.21 358.62C823.666 358.476 824.056 358.26 824.38 357.972C824.716 357.684 824.884 357.306 824.884 356.838C824.884 356.526 824.824 356.268 824.704 356.064C824.584 355.86 824.422 355.698 824.218 355.578C824.026 355.458 823.804 355.374 823.552 355.326C823.3 355.278 823.036 355.254 822.76 355.254C822.448 355.254 822.16 355.26 821.896 355.272C821.632 355.284 821.428 355.302 821.284 355.326V358.692H822.076ZM829.057 361.5C829.057 359.976 829.429 358.806 830.173 357.99C830.917 357.162 831.961 356.748 833.305 356.748C834.025 356.748 834.649 356.862 835.177 357.09C835.705 357.318 836.143 357.642 836.491 358.062C836.839 358.47 837.097 358.968 837.265 359.556C837.445 360.144 837.535 360.792 837.535 361.5C837.535 363.024 837.163 364.2 836.419 365.028C835.687 365.844 834.649 366.252 833.305 366.252C832.585 366.252 831.961 366.138 831.433 365.91C830.905 365.682 830.461 365.364 830.101 364.956C829.753 364.536 829.489 364.032 829.309 363.444C829.141 362.856 829.057 362.208 829.057 361.5ZM831.469 361.5C831.469 361.896 831.505 362.262 831.577 362.598C831.649 362.934 831.757 363.228 831.901 363.48C832.045 363.732 832.231 363.93 832.459 364.074C832.699 364.206 832.981 364.272 833.305 364.272C833.917 364.272 834.373 364.05 834.673 363.606C834.973 363.162 835.123 362.46 835.123 361.5C835.123 360.672 834.985 360.006 834.709 359.502C834.433 358.986 833.965 358.728 833.305 358.728C832.729 358.728 832.279 358.944 831.955 359.376C831.631 359.808 831.469 360.516 831.469 361.5ZM841.569 362.976C841.569 363.396 841.623 363.702 841.731 363.894C841.839 364.086 842.013 364.182 842.253 364.182C842.397 364.182 842.535 364.17 842.667 364.146C842.811 364.122 842.985 364.068 843.189 363.984L843.441 365.82C843.249 365.916 842.955 366.012 842.559 366.108C842.163 366.204 841.755 366.252 841.335 366.252C840.651 366.252 840.129 366.096 839.769 365.784C839.409 365.46 839.229 364.932 839.229 364.2V353.4H841.569V362.976ZM852.098 362.832C852.098 363.336 852.104 363.84 852.116 364.344C852.128 364.848 852.182 365.406 852.278 366.018H850.604L850.28 364.848H850.208C849.968 365.268 849.62 365.61 849.164 365.874C848.72 366.126 848.192 366.252 847.58 366.252C846.452 366.252 845.576 365.88 844.952 365.136C844.328 364.392 844.016 363.228 844.016 361.644C844.016 360.108 844.364 358.914 845.06 358.062C845.756 357.21 846.776 356.784 848.12 356.784C848.492 356.784 848.798 356.808 849.038 356.856C849.278 356.892 849.518 356.958 849.758 357.054V353.4H852.098V362.832ZM848.12 364.272C848.576 364.272 848.936 364.164 849.2 363.948C849.464 363.72 849.65 363.396 849.758 362.976V359.16C849.59 359.028 849.404 358.932 849.2 358.872C848.996 358.8 848.732 358.764 848.408 358.764C847.748 358.764 847.25 358.986 846.914 359.43C846.59 359.874 846.428 360.636 846.428 361.716C846.428 362.484 846.56 363.102 846.824 363.57C847.1 364.038 847.532 364.272 848.12 364.272Z" fill="#303030"/>
<circle cx="835" cy="565" r="15" fill="#E18C44"/>
<circle cx="775" cy="565" r="15" fill="#4D64AA"/>
<circle cx="715" cy="565" r="15" fill="#F9F9F9"/>
</svg>
